<mxfile host="app.diagrams.net" agent="Mozilla/5.0 (Windows NT 10.0; Win64; x64; rv:137.0) Gecko/20100101 Firefox/137.0" version="26.1.3">
  <diagram name="페이지-1" id="SPmD3t-ShsnG2ngJLnCo">
    <mxGraphModel dx="2316" dy="1502" grid="1" gridSize="10" guides="1" tooltips="1" connect="1" arrows="1" fold="1" page="1" pageScale="1" pageWidth="1169" pageHeight="827" math="0" shadow="0">
      <root>
        <mxCell id="0" />
        <mxCell id="1" parent="0" />
        <mxCell id="A81RwFwUyYRlChPBO0ci-151" value="" style="shape=image;verticalLabelPosition=bottom;labelBackgroundColor=default;verticalAlign=top;aspect=fixed;imageAspect=0;image=data:image/png,iVBORw0KGgoAAAANSUhEUgAACHEAAAS3CAYAAABrQ3QvAAAAAXNSR0IArs4c6QAAAARnQU1BAACxjwv8YQUAAAAJcEhZcwAAFiUAABYlAUlSJPAAAP+lSURBVHhe7P1tzB1bYhd67ocAIgrWZOA0UZTmAxERL+mB3CjqIMeeZKzcthkpXBAf0AxSnyRS0A1c0Z0PsWFsS+HIbcnmAx0EIbp8IHOYmyuNMpALiOtzO7KCfGIpmZ7wcgMRtCYfOELRJDnJbYsmEEg/c/52rfb246raVXtX7b1q799PWnLtx/uldr3tqrX+tdbZ+QdWHf7m3/ybzdQLf+SP/JFmCgAAmNq/+Bf/opl6wfk3AAAAAMDxWK8DfuONN1Z/5s/8mebRS50hjo997GOrz3zmM80jAAAAAAAAAACmcHZ2tvriF7/YPHrptzT/AgAAAAAAAABwQEIcAAAAAAAAAAAVEOIAAAAAAAAAAKjA2fkHmulX3L9/f3X79u3m0Qvfd/+vrS595f++eQQAAEzl17/whdVf/f6/0Dx64f/4x/+b1bd9x59qHgEAAAAAsFQ//n//26t/8dM/1Txarb78y7989R/+w39oHr00KsTxY5/9N6sPffXXNI8AAICpPPu1X119x0d+b/PohTc/+ZdW3/39d5tHAAAAAAAs1f1PfM/qnR/70ebRanXp0qXVs2fPmkcvGU4FAAAAAAAAAKACQhwAAAAAAAAAABUQ4gAAAAAAAAAAqIAQBwAAAAAAAABABYQ4AAAAAAAAAAAqIMQBAAAAAAAAAFABIQ4AAAAAAAAAgAoIcQAAAAAAAAAAVECIAwAAAAAAAACgAkIcAAAAAAAAAAAVEOIAAAAAAAAAAKiAEAcAAAAAAAAAQAWEOAAAAAAAAAAAKiDEAQAAAAAAAABQASEOAAAAAAAAAIAKCHEAAAAAAAAAAFRAiAMAAAAAAAAAoAJCHAAAAAAAAAAAFRDiAAAAAAAAAACogBAHAAAAAAAAAEAFhDgAAAAAAAAAACogxAEAAAAAAAAAUAEhDgAAAAAAAACACghxAAAAwEL9rz/zdPWtX/MVG8v3/9n/pnkFff7HH/prrcvvYsnzeKltGbWVbK8AnA6/q/CCfWE3Q695UgCOhRAHAAAAAMCE2hqW2gpAm7bjRVsRkITDGRrOOWSgvm1+2gpQHyEOAAAA4Ci0VUi2lWPgjs5+Y+7YXGLRuw4A7Ffb73FbAYApCHEAAAAAAAAAAFRAiAMAAICTkjvY2+6aO2RxVz1wimo8HrcVwxXAMjimAADHQogDAAAAAAAATlyG4ksgqisUlb/nOSkCSQDzEeIAAACAA/vGb/m2ZgoAppfGtrbGuIsljXOHkIbAtvlpKwBMqwQ3coz94U/dWf3MT/7E89Imf89zUv67P/VfP3+NMAfA9IQ4AAAAgMGGNgTOVVQSA3AsxoRXaig5B4A5tW13+yinKseghDdKcGNbwhz9smwvbnP7KsByCXEAAADAgX3km765mQIAAJhXwhsJX+wS3rgo7yfsBTANIQ4AAAA4sP/DRy83UwAAAPNJgGPK8Ma69OpxqKG5AI6JEAcAAAAc0Ee/7dubKQAAgPnMGeAo8v6CHAC7EeIAJjF2XGzj4wEAwAvf+C3f1kwBU0nvNv/k333haMtf/R/+p+abAgAMs48ARyHIAbAbIQ4AAAA4sLbg85CScacBAAD67DPAUeTzcvMnAOMJcQAAAHBScgd7253tU5YxQ6R85Ju+uZmC4X72p36ymeo39Hmnqi0c1VamMLQHy1Nq7Nj1ePzf3r7XvFO/PK/t9UNLenYB6ueYAu3SK/a+AxzFD3/qjl65AbYgxAEAAAATG1pJOibsAQAAMNbbP/igmRou1ykXA0t/4+9/ZnDYaZ3eAwHGE+IAjlLSvbl7Kd3E6bINAIB9GnP++Y3f8m3NFMzjUHddAgBweLk2GXM+mPBGwhrp2eb/8ue/r/nrC+lFJn/L/48No59ybxxZVuthmH0WYLmEOICjUYIb6X426d501abCEgCAfRs6fEUq8y5WjB6TsV2Nj60IPnVjrnV0YQ1QpzSItv0mjilpTB1iikbEYz5vYVnats9dyjFLHflQOU4kvLFpyJ/8f5435vxdbxwA4whxAIuVisi24AYAABzKmDvd9MLBtsb09hI/99mfbqa4aJ/hoaEBr4980zc3U2wydJkOfR5w2hxTODZjzhlLgGOMsUEOwWKA4YQ4gEUqoQ3BDQAAajKmUt/drGxrbOORa6bdaXRYtm176cwQral/2KYsVZZV2/eZu7hDmyXR8y9LMeac8eOfuNVMjTPmdY71AMMJcQAAAMAExvTCsc+7/zk+2zQe1RBCSMV9W+NtVwEA+vltpc+Ya5NNQ6h0yesyjOJQgrEAwwhxAAAAwATG9Haw3lXxLuPhDx0Hn+MxdiiV4u0ffNBMcSju3J7emGWq0QjYxDGFYzLmnHHsMCoXjelh8BSH+cuxpS1UtY8CLJcQBwAAAOwoXe4PpRcOdrHtOPypPNbg9Lpv/JZva6bqse2dsKdmbKDpFBuNgOEcUzg2Q88Zp7o2Gdobx7bnsgCnRogDAAAAdjBmGJXY9U43TldCGGO2tYuMQ749jXX1GdsINKa3JOD0OKZwbIaeM04VaP3IN31zM9Vvl3NZgFMixAEAAABbSqP6mEr8MeNFw0VTDImy7XAsS5L9sq076bYydP/N89peP6YM1fbatnIK67LPNo1Ap77MgG6OKZyqMUOh9BnTk5je4QA2E+IAAACALY3p2SBdFU9VScrpGdvjS5eEEVScs3RjhrBaZ/sH2jimcGyGBoymHuZxaGBdD2cAmwlxAAAAwBbGVvh//BO3mikYJw1EQ3uMGCLhI41OLNkugaYperSBJTKEQTfHFE7VVEOpADA9IQ4AAAAYKQGOMRX+uSttTBfDsG6OBiJBDpZq2zvmixy7h96h/Ff/h/9p9U/+3Re2KsAy7POYwnTahhnbVHZd10vysz/1k83Ufn3km765mep3qPkDWBIhDoAZpDI0F3ApuUDounBIyXOWUnlavk/Xd5rqu6wvu7bPOvRy2zR/pazP51LWMQCwWX7jxwQ4DKPCLsZsb2O7xBbkYGmyvY45/nYxBEK3HEfaQilzl7/x9z/TzAFjzTksQV+dx5AyZS9Sc3BM4dQNDV0MJbQOMB0hDqBabRd/pYyRC6m297hYdr3YyuvTYJ/3SmVoPjel62Iwf0/Jc/L8vC4Xx1Na/36bSt/3Lxft5ft0faf175JlMVZZfuvLru2zLi63bT5rrHzG+nLom79ifT7X59WFPQAs15gG9SJ3csM2cu44ZnvLkD1DxyIvcp66r/PTNNK2Nd52Fbgo2+tU9rntQy1s8686hmOK31Z2cajQxdjrqVolqN+2ny2xAPUR4gCYQCpXc7GWBvtd5AQ2Df1Thzm2VUIL25xYZ1nktUMuYPOcEo7YxpjPGutigGVXeZ9sK/sIngAA09omwNF3Z3HOB3KesUuZsvGBuuTcdsz5ce6eT0V8KpP1yMExmuM62bbPMRjzWzFnrx1L45jCMTuWkATAKRPiANhBLsxSeT7mgnmIEuY45IXfNo0UbTZdwOZzpmp8mPJiuTSquOgBAHJ+sW2AQ5fCbCPb3Jhz5IQ21nt8SY8cY+Xzsp0f8hoEuow5Bqc3mjFBprLtwyn42Z/6yWbqtDmmUIwJVTPM2DAxAO2EOAC2VHrfmFPe/xCVqGMuZofo+h5Tf05MscwyX1MHcwCAZSqN6WPPWVLhL8BRr7aK+ZQazgG3uc64GNrIttfXC0yXbOf57MwD1GLMdWMajtIbzdhhrPL++RwhJpZm7DY7dR3MEjmmAABLIMQBsIV9NvJPEUoYY8zF7BgXK6Ln+pwYW+m9bs75AgCWJecF25xXlAp/GGub64yuwNC2QY7IPCTUstQwR75721jfx1ZO4Tgz9vpsPdA0dvvP5wgxsTTbDI9yytu4YwoAsBRCHAAjHaKRPxd9+whyzP3dyoVrvsvcy3Cbi+S8Zt/rFgCoT85Vtj0vSoBj7N2aENtsc5sCQ7sEOWI9zOFuYvZt7D6R/WE90LTt9l+2e9s8S7DNDUanOqSKYwowRM57s88q3QXYDyEOgBH2ET7oskvvEkPk7o25v1upXJj7u8Q2FRnbvAYAOC6ptMu5yjbnRQIcbKNUFI/d5oZub7sGOSLnydkv0gAG+7BNY2vb/rDL9p9tPvumhldqld+PbWTf2va1S+WYcnzaeqjaVJynA7AkQhwAA+Uia5vwQbo3zgXe+kVDHufvuSgcY85K030FGPZZ8TvmwnibCoysv6zH9XW7vo7LegYA6pfzhpynbHtOlN98FcOMte02NzTAUZRGp7HXHxfZxplbORaPDTWtD3lw0a5BptLwmmtGja/UZJd6nFPpjcMxBfZv7P4GQDshDoCBxgY4UkGaxvx0b5wLvHV5nL+nEnRMReq+T4LbQgq7BhO6vsMcnzVmbNixFRiZt6y/ru6rs47Lep7iuwAA8yiV+znX2/ZcK7/zfUNawEXZ5rbpfSNy3rxNmCLnpmOvP9ZlO69JGr+yDJXusjRZp9sci7NtXrzmvij/v+s2XHqk2eYGgCXJ8m/bnuYuY+tcTt2ujf9Zz0O25fxurNfTjC2HrAdxTIF6bXs+CnBKhDiAarVd/JUyxsVgQFfpu0Abe0GVC7mhFat53piL2lT47kP5DhcbJLKcSjBhqhPufP85PmvMXSljLuqHXNBfVL5LXivMAQCHN0V4I7Y5LyjKec4uJZ/PcuwS3ohtAxzr8vqx280u2zlsUo7H2/QqMGbbzPN2PWZmH7x43QqHMEXoZZeePGrmmALDQxK7BsIAmI8QB8AAYy780kA/toIzF2xDT653aWQYKg0CQ75DKoCHzneXXPAOuWCd4rO6jLlgyTyMXb/r8tp8XxfpAHAYCedOEd7IOcGYin6Ivu7ZN8k2t2uAo8h2m+13yPn1Ntc3MMSuYbptjsF5fq53t7m2nHIfhF1M2XND9sFj4ZgCL33jt3xbM7VfQiEA0xHiANhgzMVxLsC2bZwfc3I9Z1eLuWgdY9eK6DEXyNt81pCLhzHDrgAAy1TCGwnn7hqKLZXuYyv6IdvM2PPtmKOhJ/OS9+ybn12ub6DLFGG6bRpb123a9ttobKUGqeOYsgeN7INLb3R1TGEXOc8pPdxtKsdo6jrRoe93qJAJwJIIcQBsMObieJdAQw2Vo2NDFbHrRe4Y+azM4yHt2ugDAOxfhq+YIrwRqaBX6b58bRXzKfsY9i7ntGMaeuYIcKzL/LR997k/l9P1kW/65p2Ox7s2thZlXxxyjTm2cRbm8vYPPmimppPww5I5psDrsl8M8bM/9ZPN1DSmfj+AUybEAdBj7N0Iu170DQ0ozHVCvG0IZZvK7m0ryMfO4xy9bOgaEACWZYqK8pynpaF7ikp+KA09m+Q5+wpSlDtRy3m6AAdzGbr9t8nrpjwO572yrffNz9SfCdtKjxNDwwo5lg+tY4olD6vimALbm/pmtaHvNzRkcghjemc51QLshxAHQI8xAYBtQwnrhnYlN/UJduTiftuLyG1OvGvqlnns/OcuFUEOAFiOXSr3I+d5GrSZWt92mXPzQzXylIprmNPY4/LcQbq8b97/4nV9Hh9iP4SLxg6jkmP5mHOX1DOdUpDDMYVjN2Y7O0Qdp/0AYDMhDoAeY3q8qDlBPLexJ95j7ga5qJaT/AQ5cheMMAcALEPOIcYGOUpDek3hU45L23aZ7S4Nbyq3OXZDj8tln9iHHO8zT2lozec6/lOLMUOerO9XF0MEfU4lyOGYwqkYuv9PNUzT0ONH9gUANhPiAOgxpseLfVeyTh0eGNoLyDHadt3lLhhhDgBYjqGV+5FKTw3p7EPZLlOhnX/31bAENdh0XD7EPpF5SkOrfZFajAlW5Pxl/dwl2/KYBtNjD3I4pnBKht5wmP1+inrNofXop1wHDTDG2fkHmulX3L9/f3X79u3m0Qs/9tl/s/rQV39N8wjgpTRij+nWMRdN6xeVY33r13xFM7VZLmC3Sbrn5HXMnQ77NmQZ7mM5Ffv8rFQoDL0wGPpZY7fhLvm8XCTtsn0Dp+nZr/3q6js+8nubRy+8+cm/tPru77/bPAKm0neet8+7M5dq6HnT2HO+oed4fefBQ89Ju4YLmeu7Hbuhy33X68BaDN1OHE+Gu3hctuzqZz/YjzH1H9H1+zb2faZab4f6XT2GY8qp/bYWu57LzWmXeTvEvjCmbnvXfWTMMWabdTfmu+xz2xi6Xmvntxr26/4nvmf1zo/9aPNotbp06dLq2bNnzaOX9MQBwHOnPBxMTHWBlBP3XFTk4iUXGABAfVLRnQrvdam4SoXfHJVXOSdIBV9KzhFSUgncV8rzyuvyHs4tqFX2nSFF0Jku5bicY3H+3UdDQtuxedvjM8wh29mY4MXFc5t1H//ErWZqmHxuPn+pDnFMmVrb72hb8dtKl2wbCYUMkX1+29+zvG7osSr7JADDCHEAQKOvwmOsXLwkzJFKvlTsAQB1mbNyf71BMOcCOSdI0DMl5whDKjnL88rr8h7l3KI0Hmo4ZKjS2Fy2y7JtbirlueX12eZsd8wlx+Uci+dqkFzfD7J9tx2btz0+l32m7Cewq2ynQ7bHIucyfftOOe8ZI5+f+ViqfR5TSinHgr5Snlte77eVOY25aS+/Z9tsi2//4INmajNDqQAMJ8QB0OHnPvvTzRSnYptKjSFSsZcLdRflAFCXKSv38ztfKu/XGwTnUBoPS8NhGgBqVM6Bhpa5ltcpKo1KZdlmXaxvl0OXdXlueX22ufXtrjQ+Qc2ynV7cD+ZS9pOyj9g/2EaO32O20wRSh5zL5DlD78ovMh/Znm3LfluXLMtzvZTlXNbp+nrN9DEZe50zJpARY49XhiMEGE6IAwDW5OJmjiBH5KL82C4GAeDUpSI4v+/5nR9TgTmlNACUin9OV2mIKA1Lc2+P641P+dzsC1CT9f3hEMr+kX3T/sFQ2W7HHL8T4BjTm1gaULcZzuBU6zP8ttYr62RoyfJcL2U5l3W6vl7nXseHMKaeM98/y2zItjf2eDU2RAZw6oQ4AOCCBDkyrugcFxe5uDnFig8AOEb5TU9FcC2VvamIHlrpyvFIA1PWe2mIOIR8bvaFWre/0gA3VcmyHiLLpe31uxT792Zln6jp2Jz9w7qjT7aPbbbbj3/iVjM1XEIf2wQ5yjEt+9ix89vKMUk959h9Ptte9oOL214el/OqMftGPl8vHADjCHEAQIdcXCStPnWYIxc5ghwAsFyl8vJQlfqblEpXjlvZDocGCvZFgxOHVOM+UWTfcB1Im/xmZ/sYK/UVY4dKKLYNckT2sRznj5HfVo7VNoGv7Adl2yslj7e5Btrm8wFOnRAHwETSc8M+y7YX6oyT5TxHmCMXPC6+AWB58vu9beXlPqXSVWPh8cq6rX07zPwJE7EvpeG19mNz5i/z6VqQyHaQRtFtAgO7BDiKXYIcY4ZnWAq/rRyzHC8Otd/mOKMeG2A8IQ6ADh/5pm9upuBlmCMBmqkCHbn4BgCWowQ4lqI0FnJcltBQXQgTsS9v/+CDxewXmU/XgpTAwDamCHAUCXKMrd+Y8vNr4beVdccatMt+u21wa1v5vBxnjlWpK661zDFUOLA/QhwAHcZekLqT5nRcDHTscgFkuwGA5dil0S3nC6lES8n5w8UKtoslz0kpr9lWGiTcsXk8ltTIVGR+NTYxp132i4vH5k3H56mOzWG/OG3b9oKR7W/qAEXpfXSIOT7/0Py2ckp26YFnrHzOMQc4AOYmxAEwkZ/77E83U5ySVF7kgiQVGdtcBNluAGAZtqkoL42DafjL+UIaSVKGNH7kOSnlNaXxcJtGw9yxKTi6fAnjLK2Rqch82waZwzb7Rd+xedPxecpjc+ZbyO60jW1MnTNAkffN+/fJdj7X5x+K31baHHtd3dhjzzby/vkcALYnxAHQY8wJ7c/+1E82U5yiVGRscxFkuwGA+qWCfGwFfxpCSuPgVErDYRoNx55zZKgBli1hnG1le0njW0q2zZRsR32lPC+lvHYXho9gDmP3i2zHcx6bx+4nu+zXHIeh9Qg5Fs8doMj7Zztum5/8bcr9phZ+W49P1ktfKct9vayvl6ynY9zWL8qxJ999DlnOeX8AdnN2/oFm+hX3799f3b59u3n0wo999t+sPvTVX9M8AngpyfUxFz45Kd7l4vNbv+YrmqnNckK67cn3vr/X1MYsp6WskxjT1eWun7WNMfPnwgYonv3ar66+4yO/t3n0wpuf/Eur7/7+u80j4FBq/W1PuGRM5X1t56pzGHpOmgr6NkPP//d9jjlmGyyyLX7jt3zbLPOZbS/BoLHzdIhz89hm+dXqFPbjoWq9Xh97bD7UfrGrocvfNe8wXcepQy2/9fnZZR5q/V0Nv62Mtct5Zq37wrbbXZvsHx//xK1ZfmvH/LZ2nefPYey5SK38VsN+3f/E96ze+bEfbR6tVpcuXVo9e/asefSSnjgAJuQORyIXLADA8Rhaqbnvyq9UkKZRcijDuC3XmIr1bIfZLrItztUIkG0v7z9m+4tjqOSmHmN6Ndxn+GXssdl+QbQdU9OYe6hGtTI/x9yw57cVXt3ucszZRvaPcrza128twCkQ4gCO3i7DVYy9MMsFYJL8U0vaeI73ZR4uWADgeOQ8bKjcmblvY847DOO2TLnDb6jS2Lav89F8ztjGpjH71L7lu+TuzUOUrDvGGROw2/c1Wj5v28awMXJ8yJ3hhyhDG46zntpev6+yJOvH1Px76N4VMj/5TTlGflvhVdnucszJtpeS37Cuc5P8PSXPyTlM9o9DH68AjpEQB3D0UmGwy8VM1wlrlymDHCW8YYzLeeXifcwFPABwOsb0XnGoysuhDYVDGzxZrkMFicY2NsE+HaqnxI980zc3U5tpgKXIMTWNovsKDLCZ31ZOSba9lFzXJJyxHjgtJX8X3ACYnxAHsEhjgxW7DHOSk9KxSpBj22BAKnDy2oQ3VLbvR+4iyl06U4Q5xoR4DlEZAABMb+z56ZTGNBSyPGN6UDlUZfqYxkbD+jCFMaGHQzWGH+pzgc38tgIAtRPiAE5CghBtDfSp+EnJ//VVAm1TKZ/PTDCghDm6wgFlHspzMi8JbxjT8jDWwxx920SXvG5M8EZqHQAAAAAAgEKIA1ikbXsvKA30pSQsMWSokm164yhKmOPiZ1+ch/Ic6pB1kfWSdVQCHV2hjhLCSWBnzDo85B27AMC0Dtl7mrsvj5ue22A324TzgePmtxUAqJ0QB7BIh+i9wFiUp6sEOkqo42IpIZyxjTcqDQCgfmOGKjlUQ+HQLsEFSI/fobbBBJqHMvwPU1jCMANj9gtDr0C9/LYCu8p12D/5d1+otuxyAyswHyEOYLH2XQmdShUV30wl25KhVACgfmMa1hLs3LdU8A8NkgqQLtOYhplsg/tubMrnjemNTmM1+5bts+b9Qj0D7J/fVgCgdkIcwGJ9/BO3mqn9SSpVBQu7yjYk4QwAy/Hf3r7XTG2W4dX2ZWwFv7s0l2lsw8w+G5sSIhoTXnItxZTGHJv3uV/kc8bsFwJ2sH9+WwGA2glxAIuVC65DXKik8X1MZRGsE+AAgOUZE35IrxgZbm3uiv6ERcZW8LtLc7nGXn9k28g2Mtd2mAamvP+YEFForGZKY3s2zH4xZniCbYxtfA09NMJh+G0FAGp2dv6BZvoV9+/fX92+fbt59MKPffbfrD701V/TPAJ4KRcaYy4y/sbf/8xklci5wBnahXSfsfM09u6aXeTCcpuKnTQgDLXrOhnzWdt+n2LMOh/yWWO3320JcAB9nv3ar66+4yO/t3n0wpuf/Eur7/7+u80j4JC2OefMb396j5syPLHtecuU5981G3pOmrGf2wxdvruez441xbVHaaxaDyVt2iZKQ9XPffanVz/7Uz/5fHrba69DngtPdc1Yg1PZl4fa9piY/SH7wlTLMvORfWTsdrbvYwnsW62/q+G3lbF2Oc+seV9YgjH7a9d5/hyGrlf7KrDu/ie+Z/XOj/1o82i1unTp0urZs2fNo5eEOIBJjK04mbriaYpKuW3naex3H2PXiiUhjmGfNec6jDkacIDjI8QBddu1oj/nA7lTcmglvwr+7RxriCPmPmed2yHDB0Icx23X9Zv9Ocrx2bEZplPz72r4bWUMIY7DWXqIYymcm8B+DA1xGE4FOAo5uciFS0409i0n1jk5zEn2VJ+f98r3yXu7GJtflnOWd6m8m0K2hbxfto1sn9YjACxbfstzvrCtNPKlgi+Vj6WkIrirlOfkNXmtRkJyznqI650pZL6dDzOXBOZ3kePs+vG57ZhcylTH5th1voHd+W0FAGqlJw7gKCUFu+mumFzslLshp77oyefH0HmIOeaD7SXhnburIuuxr3KuXPCXdZlKAICx9MQBy7Brjxz7lHOUUwtwpJF1iCX2xFEsrVeJGrZDPXEcvyUdm8N65FQspfcBv60Msct55lL2hVrpiWM/HFtgP/TEAZy0nOzmhCMlJ25tJf+X581RcZL3HTMPc80H28v6WF+PbeuvlLKey/MBgOOVc4RdeuTYFxVwxyvrdcoe5OaU+bQdsg85NufaLMe+mmX+Mp+u/6EuflsBgNoIcQAAAMAItTcWJmSicv+4JThcc5go+0bmT8CZfau5IVbDK9TNbysAUBMhDgAAANhCGuNSmV5LmCMNhO7wPh0lTFRTg3X2hdJQbTvkUEpDbC37RvaL7KsaXqF+flsBgFoIcQAAAMCWUplewhyHqPAvFfsaCE9X1vuhG5zWG5hsh9Qgx+ZDhzlKeCP7BbAsflsBgEMT4gAAAIAdlQbDVPjP3Wi4HtxQsf+qLJMh5Rhd3P6ynczJdsgSHOLYvL5fAMvmt5V1WS9DCgBM4ez8A830K+7fv7+6fft28+iFH/vsv1l96Ku/pnkEAABM5dmv/erqOz7ye5tHL7z5yb+0+u7vv9s8Apbof/2Zp8///bnP/vTzf3/2p37y+b8/85M/8fzfLuuNBN/4Ld/2/N+PfNM360Z7Zv/jD/211Q9/6k7zqFsaWJbSsGIbhHbZN+wXMK9j/F0Nv62Mdaz7wr5kn/vv/tR/3TzqJ0gD1O7+J75n9c6P/WjzaLW6dOnS6tmzZ82jl4Q4AACgAkIcAAAAAK8S4gCOydAQh+FUAAAAAAAAgOqkt5r1IWv6CsCxEOIAAAAAAAAAAKiAEAcAAAAAAAAAQAWEOAAAAAAAAAAAKiDEAQAAAAAAAABQASEOAAAAAAAAAIAKCHEAAAAAAAAAAFRAiAMAAAAAAAAAoAJCHAAAAAAAAAAAFRDiAAAAAAAAAACogBAHAAAAAAAAAEAFhDgAAAAAAAAAACogxAEAAAAAAAAAUAEhDgAAAAAAAACACghxAAAAAAAAAABUQIgDAAAAAAAAAKACQhwAAAAAAAAAABUQ4gAAAAAAAAAAqIAQBwAAAAAAAABABYQ4AAAAAAAAAAAqIMQBAAAAAAAAAFABIQ4AAAAAAAAAgAoIcQAAAAAAAAAAVECIAwAAAAAAAACgAkIcAAAAAAAAAAAVODv/QDP9ivv3769u377dPHrhe/7yX1ld+t99ZfMIAACYyn/8D19Y/dBb/7fm0Qt/7Nr11eWP/Z+bRwAAAAAALNWj/+f/Y/Wvfvb/3TxarX7H7/gdq1//9V9vHr3UGeL42Mc+tvrMZz7TPAIAAAAAAAAAYApnZ2erL37xi82jlwynAgAAAAAAAABQASEOAAAAAAAAAIAKCHEAAAAAAAAAAFTg7PwDzfQr7t+/v7p9+3bz6IX/5X9Zrb7qq5oHAADAZP63/221+tZvbR40/tyf+3Orv/AX/kLzCAAAAACApbpz587qH/7Df9g8Wq2+4iu+YvXv//2/bx69NCrE8d57q9WHP9w8AAAAJvP++6vVG280Dxp3795dvfXWW80jAAAAAACW6s0331y9/fbbzaPV6tKlS6tnz541j14ynAoAAAAAAAAAQAWEOAAAAAAAAAAAKiDEAQAAAAAAAABQASEOAAAAAAAAAIAKCHEAAAAAAAAAAFRAiAMAAAAAAAAAoAJCHAAAAAAAAAAAFRDiAAAAAAAAAACogBAHAAAAAAAAAEAFhDgAAAAAAAAAACogxAEAAAAAAAAAUAEhDgAAAAAAAACACghxAAAAAAAAAABUQIgDAAAAAAAAAKACQhwAAAAAAAAAABUQ4gAAAAAAAAAAqIAQBwAAAAAAAABABYQ4AAAAAAAAAAAqIMQBAAAAAAAAAFABIQ4AAAAAAAAAgAoIcQAAAAAAAAAAVECIAwAAAAAAAACgAkIcAAAAAAAAAAAVEOIAAAAAgB7vvvvu6uzs7LVy48aN5hkAnKr8FrT9RuS3AwBgG0IcAAAAAAAAAAAVEOIAAAAAgAXp6hnkGIreTQDqojcqANg/IQ4AAAAAqvPw4cPWRqP8HWBKaaROyfElJY3TXUNklFKek1JeZ/gMAACmIMQBAAAAAMBJKaGNBDKuXr36vNy6det5eeedd56XPuU5KeV1eY8S8CjBDtqVZX+xzB2E6fpc6woAqIkQBwAAAAAAR+9icCPBizmsBzsEBAAAGEuIAwAAAACAo5XwRnrHmDO40aeEOTIPAACwiRAHAAAAACzIlStXVufn50dZHj161HzL49c1rMPSSu3BhCznhDc2DY+yD5mHLDM9cwAA0EeIA4BRUs9wdtZeAAAAAGpQet8Y0/PGgwcPnpcnT548L21Bo/WS55TXXL9+vXmXzTJPeuUAAKCLEAfAnuUafT348O67zX8AAAAAsLMEOIb2vlFCGwll3Lx583lJbzcpm+Q55TXpRSbvMTTQkXkT5AAAoI0QB8Ae5dr8Yv3B1asvercAAACAKaUh++LQFylzNhwf4jNhXQlw9EnIYj24MSSwMdTFQEcfQQ4AANoIcQDsSYIaXTeApGdPPXIAAAAwpa6G6SG9E2zr6dOnzdSrrl271kzBvO7du9dMtUt4IyGLKYMbXRLoSJijr2cOQQ621RaYm6N0haKy7bY9f45iHwHg1AhxAOzJ48fNRIeOei4AAADgCJUG/qWUTb1K1ODhw4e9IaUEOPYR3rgooZFNQY70IAIAACHEAQAAAADAoiUEcStdnXY4VICj2BTk2NSDCAAAp0OIAwAAAIDFeLypm0PgJHUN5ROHDnAUfUGOOYc5AgBgWYQ4APZk0/C/N282EwAAAPTeUQ9wUdcxI6GJGgIcxZ07d5qp12U4GAAAEOIA2JOENLp6zezpTRMAAIA17lYfp+uu/ww9MYeunlIuX77cTMF+9YUmDiGBkq79Uk9DjHF+fn4yJb3YAMApEeIA2KNcbzx40Dz4QK7Z89h1CAAAwEubAgbuVgfWzRVK2jchNQAAQogDYM/SI8f5+YuS8IZhVAAAAF719OnTZqqdu9WBoWoaSqW4tmnMXQAATpoQBwAAAABVuXXrVjPVLnerH8ud9wC8dPXq1dXZ2dlsZdPvCwBADYQ4AAAAAKjG0HDGvXv3min6dN3xv6m3k211DQdRY28IAAAANRLiAAAAAKAauQt7iBp648g8tN3p3VUePnzYvBIA6pLf1PxOpdy4ceN5afstu1jKc1PK6wGA3QhxAAAAAFCFsaEMvXEA0dfTS40Nyl1Dely/fr2ZYt+yTtoCCkNKVw9EtSuhjfI9EqLMckjJdxr6vcpzU8rry3uWYAcAMI4QBwAAAABV6OqFo6thMw1GaSAC6DpOPH78uJmqQ19YrWv4I5jKenCjhDbmVIIdAh0AMI4QBwAAAAAH1xfGePToUW+QY2wPHkuW71rucB5Suhro1u+UnrJ0aXtuVxHMYRtdAYjajhF9PQhdvny5mTpdT548WZ2fn89WHjx40HzSack+kGPrPoIbXdYDHcIcANBPiAMAAACAg0rjUhp32qRBLxLk6JJGqVMKcgCvu3nzZjP1ulqOEWlE7zrWRd+wMLCtBCayD/Rte/tWwhx+uwGgnRAHAAAAAAeTBpw0LrVJ7xvrjZol0NHmEI20mb+2O727Sl8jM7C7rh574tBBjk0Bjr7jG2wj23u2uzE9b6SnkpRsj6W0/Z6tl/K88tq+/fCi7Jd6XwKA1wlxAJyI9FKYa6KUs7PXS/6e5wjAAwAA+9IX4Ig7d+40Uy8k0NHXFf6hG2mBw+rrsScOdYzYFOC4GFhj//Lb0hZQGFLGhBb2pfy+Dul9o4Q28l0SNkzJ9ljKJuV55bXZD/NeJdixSeZRkAMAXiXEAbBHbeGJlLmGgUy9RAltJHSf67aua7f8Pc9J/WmZJ3WfAADAnPoCHGn8aWs8SgNRzXfbA4eVY0efHCPSYLyP40SGsciQEZsCHJvCJzBGCXD0yXa3HtwYEtYYqwQ78hmbwhyCHADwKiEOgCNUwhu5XuupJ+hVAh3qPgEAgKmlgamvsWbTXelp8DzVIEeWSxrEjrlo0GYX2Uc2BTnSYFzCHAlaTCnHnhLe2DSMhQAHc7h3714z1S77R7a7OYIbXUqYo++3O/vlsf52A8BYQhwARyZ1D7uENy7KewnCAwAAUyl3CHfdmT60UXNIkMNdvTC/a9euNVP1GBLkiByHErRI4CLHixLqyHFqU2NyeU5KXpPX5n1y7NkU3ggBDuaQ7bHv9zX7xT7DGxdlm+/bNzcFUADgVAhxAByR1E8OqCcYLdd+6j4BAIBdpXEpDZx9xjRqbgpypCErDav5XOC0lF5r+o4R63K8KKGOHKdSEsroKuU5KXlNV8N5mwwtIcDBHLI9drlz585BAxxF5qFrv8x+NHXvOACwREIcAEciIYtN9QW5PsoQlAm8n5+/WvK3lK4hKvPerqEAAIBtpVGmr3Ephtw5f9GQIEc+V6MQnKYcIxKaGBrmmFPmIce5DC0BU+sLLGYfqCHAUfSFmB4/ftxMAcDpEuIAOAKbAhwlvJHro9QTtF2z5W8p+f/Um7bVbaSXD9dRAADAGGlUSm8Ym4YX2KWL99JI26cMmSDMwbHJPnaxl4hSeCGhiUOGOfK5OcZlHmpqSOe4PH36tJl63eXLl5upevT1xgEAp06IA2DhErLfFOAo4Y2hUp+Q17TdBOc6CgAAGKr0vrGpQWaXAEeRRtohPXkkzJFQiTAHjHMMd8eXMEeGWZk70FGCG/msfK7wBodU4/Z37dq1ZgoAuEiIA2Dh+nojLgGObeX6bkAdKAAAwCtKzwCbet+IKQIcRd4n77epYTahkhLmAE7TeqCjhDpKsKOUTcrzymtz/BHcoDZDtuVDqLF3EACohRAHwIL11Tfm+myXAEchyAEAAAxVhk5J7xubpFEpDZ1TN3Lm/dIwu6nRKv+f5wG7OZaG2IQuSrCjlBLw6CrleeW1Of4IbgAAsCshDoAF6+qReKoAR5H6hwf9w0sDAAAnLgGOIUOnxD4CFHn/3BHfZe7P30V6MVG6i6FwAIYb8rt8CE+fPm2mAICLhDgAFqqvF447d5qJCd282UwAAAC0yN3nfaGJIs/ZV4Ai85S75S/2yjFkPoFX1doQzHFJGLAtvDVVGTLM11KlN5guNYbfutZFhiYCgFMnxAGwUH29cMzVc6drKAAAoE9fkCNBivzfIYYaKL1yHHIe4FjZn6AeF0OLRQIT6TGrFhl6rcuxDNEEALsQ4gBYoL7w/LVrzcQM9MYBAABs0hbkyF21CVIcsrE3n33oeQCAOV3rqRi8d+9eFUGOzENfzz5+pwFAiANgkR4/biZaCFoAAACHlgaYBDdKzxd9XbwDANPI721XbxwJTmS4mkMGOdIDR+ahy8UQKACcKiEOgAXqG0plboZUAQAAhkhDkp4vtnN+fn7w0tUImAa2tufvswgF7V9Xo2/XdgIczp07d5qpdglR9A1nMoccQ87Oznp74MjxxDkDALwgxAFwROYcSgUAAAAAppAwVltI61DlmMJhCUJs6tEiYYqEKhLmeNg3bvMOEtzIe+dz+nrfiAQ4EvwEAF4Q4gBYmL7rKjcjAQAATC8NYm2NfhqcOBVPnz5tpoAlGBLkiIQ5bt269aVARwl1pCSEMWTolfK88rq8Rwlu5L03EeAAgNcJcQAAAAAAMNq1GbsELXfwK90F+pQA4tBhjxLoKKGOlIQwUtq2vfVSnlde1zdkykUJmghwAMDrhDgAFubx42biAsPQAgAAp6Ltrt9y5++mUp6bUl4PAMcqIYmEJYaGOfbhwYMHzwMmCZoAAK8T4gAAAACgeiW0kSBG212/Q+/8Lc9NKa9fD3gIdcDrHnfcUXL58uVmCqhZwhIJcyQ8ccgwRz4/gZKbxoQGgF5CHAAAAABU6WJwI4GLOZVgh0AHvOrOnTtfavxdbwB2Fz0sS8ITCXOkF4x9BTpKcCOfmc933ACAzYQ4AAAAAKhKwhsJUewjuNGlBDqEOeBFWKM0/pYG4BRgudYDHSXUsR7WGhPwKM8v71FCGymCGwAwnhAHAAAAANUo4Y2EKGqwHuZIuATYjzT8lkbgKUqX9cbmqUpX43cat9uev22BKWWfWw9rlYBH9pE22c7LtlieX95DaAMAdiPEAQAAAMDBJSCRYUzGhDfW7/gtpTQodZU8p7yu3Dk8ROYr4ZIagxxZblOXrvWQZdD2/F2Knk4AAABeEuIAAAAA4KASjEg4YIgS2kggY/2O31I2yXPK69bvNC6hjk1qDXIAHJsS7msrAADHTIgD4EhU0tMwAADAKEMCHAlXrAc35uimvYQ68hmbwhyCHAAAAMxFiANgYa5dayYAAACOwKYAR8IbCVfMEdzoks/L5/aFOYb2HAIAAABjCHEAHJF93Aj2+HEzAQAAsKOHDx82U+0SpNhneGNdPjdhjr4gx40bN5opAAAAmIYQB8DCXL7cTByIYVsAAICp3Lp1q5l63SEDHOv6ghzvVHyBlHnO0DA1lQcPHjRzBwAAQBchDoAj8vRpMwEAAFC5d3u6Ekxjfw0BjuLOnTvN1Os29SYCAAAAYwhxACxMXz1mz01sk1A3CQAATOVpTwr95s2bzVQdEijp6o3jsTEnAU5aemxq632opjAiALAsQhwAC9TXA+2cQYu5QyIAAMDp6Ao/dIUlDu3atWvN1KtqHlKFwzg7O9truXr1avPJr2t7/qGL3msAAKCfEAfAAl2+3Ey0mCtooY4FAADYh66wxKFd7rsQAwAAgIkIcQAs0KbeGKcOXGSoar1wAAAAAMD+pOeath5t9lm6evtJT1Rtz993AYBjJMQBsFB9Q6okcJHgxVTu3WsmAAAAZtY1zMqhPX36tJkCAACA+QhxACzUzZvNRIeE5KcIcty4kWR98wAAAGBmubO3Rrd0TwgAAMAeCHEALNiTJ81Eh12CHHldW4CjrwcQAACAoa5du9ZMvS7dx9fk3Z4Lqwcukrjg/Pxc6Sk3N92VAgAAJ06IA2DBrlxZra5fbx50SJBjbP1nnp/XXQxwbAqNAAAADNXXkJteL/qCE/t2NRdIHS5fvtxMAQAAwO6EOAAW7tGjzUGO9Pp7dvYinJF60La60Pxfet7I89p6Cc7NZQmNAAAATKWvF4sEJ2oIctzIhVKH6x9cjF1xoQTATBJ4bOvRRnlZAOAYCXEAHIEhQY5IOCM3kKUkrLFe8n9dQ0/nvfV2CgAATC2NUwlCdEmQ41BDqyRAcvbBxdI7XRdKH7hz504zBQAAANMQ4gA4EkODHGPlxri8NwAAwBw2BSEytEp6w9hXrxz5nARH+oZQiSdPnuiFAwAAgMkJcQAckYQtnjxpHuwogZC8lx44AACAOSUIkUBEn/SGkVBFwhxz9MyR4EZK3j+fk+BIHwEOAAAA5iLEAXBkUo+Y4SB7hpbulfBG6X1DnSQAALAPJcjRN7RKJMyRgEWGOUkpoY6UEsToU56TUl6X90lwI6Vv6JRCgAMAAIA5CXEA7FHCFW1ljt4u8p5579zQllBGV11o/l6CG3l+wht981Pet60AAABsK8GIRx9ckGwKcqwroY6UEsQoAY+2Up6TUl43VOZrSQGOLJu2ZXDIMmZ5A/RpO8bUXDaFDAEA1glxABy51C8meJFwRlvwIn/fFNwAAADYlwQ5hvTKsU+Zn8yXHjgAAACYmxAHAAAAAFUpvXIcMsxRet44Pz8X3gAAAGBvhDgAAAAAqFIJcyRI8eDBg+fBijlDHfmMFD1vAAAAcChCHAAAAABU7+bNm8+DFSXUkaBFCV2UcMeQgEd53npgo/S4kc9IEd4AAADgUM4+uEA9b6Zfcf/+/dXt27ebRy+8995q9eEPNw8AAIDJvP/+avXGG82Dxt27d1dvvfVW8wgAANjW2dlZM/WqhLimDm7duHFj9c477zSPXkpwLEExAABO05tvvrl6++23m0er1aVLl1bPnj1rHr2kJw4AAAAAAAAAgAoIcQAAAAAAcNTSIXVbmWP4pDLs08WiFw4AAIYQ4gAAAAAAAAAAqIAQBwAAAAAAAABABYQ4AAAAAAAAAAAqIMQBAAAAAAAAAFABIQ4AAAAAAAAAgAoIcQAAAAAAAAAAVECIAwAAAAAAAACgAkIcAAAAAAAAAAAVEOIAAAAAAAAAAKiAEAcAAAAAAAAAQAWEOAAAAAAAAAAAKiDEAQAAAAAAAABQASEOAAAAAAAAAIAKCHEAAAAAAAAAAFRAiAMAAAAAAAAAoAJCHAAAAAAAAAAAFRDiAAAAAAAAAACogBAHAAAAAAAAAEAFhDgAAAAAAAAAACogxAEAAAAAAAAAUAEhDgAAAAAAAACACghxAAAAAAAAAABUQIgDAAAAAAAAAKACQhwAAAAAAAAAABUQ4gAAAAAAAAAAqMDZ+Qea6Vf8wA/8wOqv/JW/0jx64bu/e7X6nb+zeQAAAEzmP/7H1eq//++bB42PfvSjqz/2x/5Y8wgAAAAAgKX6zGc+s/r5n//55tFq9dt/+29f/af/9J+aRy91hjg+9rGPPX8TAAAAAAAAAACmc3Z2tvriF7/YPHrJcCoAAAAAAAAAABUQ4gAAAAAAAAAAqIAQBwAAAAAAAABABc7OP9BMv+L+/fur27dvN49e+IH/+WOrr/yqL28eAQAAU/nC539jdfv/9D83j164c+fO6gd+4AeaRwAAAAAALNV3fdd3rf7u3/27zaPV6tKlS6tnz541j14aFeJ4653rQhwAADCDhDj+8rf+4+bRC3fv3l299dZbzSMAAAAAAJbqzTffXL399tvNo+4Qh+FUAAAAAAAAAAAqIMQBAAAAAAAAAFABIQ4AAAAAAAAAgAoIcQAAAAAAAAAAVECIAwAAAAAAAACgAkIcAAAAAAAAAAAVEOIAAAAAAAAAAKiAEAcAAAAAAAAAQAWEOAAAAAAAAAAAKiDEAQAAAAAAAABQASEOAAAAAAAAAIAKCHEAAAAAAAAAAFRAiAMAAAAAAAAAoAJCHAAAAAAAAAAAFRDiAAAAAAAAAACogBAHAAAAAAAAAEAFhDgAAAAAAAAAACogxAEAAAAAAAAAUAEhDgAAAAAAAACACghxAAAAAAAAAABUQIgDAAAAAAAAAKACQhwAAAAAAAAAABUQ4gAAAAAAAAAAqIAQBwAAAAAHdXZ21lrY3cOHD1uXbf5Ouxs3blhmR6JtPaa8++67zTMYKsusbVlmf6F+1h8ALIsQBwAAAAAAAABABYQ4AAAAAKBS7p6GZTvU/tvVo4xeSDhWtnkAjokQBwAAAAAAWxM2AgCA6QhxAAAAAAAAXHCocFLb56YAAKdBiAMAAABgQbrueK+xAAAAAOMIcQAAAAAAAAAAVECIAwAAAICT9fDhw9ZeRPZVjkXbd6uppAcbAACAJRDiAI7eT/zI51Z/8Rt+vLVsY+r3g0OwHQMAAAAAANRHiAMAtvC3/vzTV4IPv/BP32/+BwAAAAAAALYjxAEAIyXA8fNPf6l59MKnv+vJ894tAABgbleuXFmdn58vogBQl6tXr7YOObSp5HUAAOyHEAcAjJCgxsUAR/EPPv0v9cgBAAAAAB94+PBhayhojvLOO+80n/qqbYNL25R33323+VQA2I0QBwCM8Lmf+eVmqt0v/PNfbaYAAIAle/DgQWvvItuWY9f2nceW69evN+/2qidPnrQ+f0xJDzYAAABLIMQBAAAAAAAAAFABIQ4AAACAI3Ljxo3WLr530dUdum7DgXj69Gkz9aqu4Q0AAIBuQhwAMMLXffRDzVS7b//Or2umAAAAAGGv1yXc0haMm7J0BWi2HZ4orwMAYD+EOABghIQ0/tDl39M8elXX3wEAAOCYPX78uJkCeOnmzZutoaBjLVeuXGm+OQDsRogDAEb63h+6vPoTn/z65tGL8EYe5+8AAFArd8MDc+kbNqVrqBUAAKCdEAcAbCE9cvz1f/Ynn5eENwyjAgAAwCl6+PBhM9Xu1q1bzRQAADCEEAcAAAAAAFsZMpTKpqAHLEl6njk7O5u1AACnTYgDAAAAgF5DGmmB09Q3lEqhN45XXb9+fXV+fj5ryWcAALBMQhwAAAAAR+TatWvNFMC8xvSwoTcOYAo5lqTcuHHjS6WtN5OLpTy3vP7dd99t3hEA6iPEAQAAAMBWrly50kwBp2hMDxt5rkZT2E1bOGFIuXr1avMOy1MCG+W75FiSkl6AShmiPLe8PsukvKdQBwC1EeIAAAAAOAFPnz5tpqBOQxviqEMaVdtkGI+uoTzu3bvXTAF0Ww9ulMDGnNZDHQIdANRAiAMAAAAAqJYAUn3SwNnVqHrnzp3npU1eo3GUpUtI6fz8fNZyqhKg2Fdwo0sJdCRE4ngFwKEIcQAAAABQpdLN+ZDS1SsAy6ChbFm6etRI43aGWUrp6o0jjaPW9+GsDyExpuR1MJccE/I7ngBFLRIiKWEOANg3IQ4AAAAAeh3qbliIx48fN1PUIA2afb1wFI8ePWqmXicQABTpfSPHhKHnGgmIPXjw4Hl58uTJ89LWm8l6Kc9LKa8dKvOVIJPwGQD7JMQBR+AX/un7q5/4kc+t/taff/q8/MVv+PHXSv6e56Tk+ftS5i2la77W543NyrKqbV0P0TXfNc5rrcoy3LT+LU8AAGBJ+oZMESKqRxoxu9ZHGkXTA8e6NJh2cXc7jNcWUBhS+vbFQxra+0YJbuS7JCB28+bN56X0/LNJeV5KeW1ZLildPQetS9BEkAOAfRHigAUrjbif/q4nq3/w6X+5+vmnv/S8tMnf85yUPD+vm7OhN++7Pm8pbco8l+eURmheV9Z3WVZj1vXU6znv2VayTbVZn/e2+c7f3/nb/7p5VL+L37uUru+/q6y/i8tw0/rfx34OAECdLl++3EzBcmxqxNNwdnhZB109aKQBNI2iF6XBtOuO94RBBDngdPX16lNcDG5MrQQ78v5DwhyCHADsixAHLFBpzO1qxB2qNPRO2cC7Ht7YVr5X3kOY44Up1vdcYY5NSvhg1231VJXll/W37TKcYz8HAACY0pAGsb6eOtiPviFQ1odRuSgNr10No4IccJpy3O8LcOSYkfDGHMGNLuthjj737t1rpgBgPkIcsCAlIFFrg3hpbJ5Kvmfe81Qbn+dY31k/c/UWcVHmf5fwwanLeppy+eW9sj8BAHC6Hj9+3ExNY0jX47tKA87QkoYXjtfU2y/j9AUt0uCZxs8+2T83BTnc3b4fWV9tx9BNZVPDNozRF4RI7xuH/E3P8SzbfN8xy/EKgLkJccBClAbxWs3V20LeM9/71IIcc67v9Mywj8b8JQ2PUpusn6ynqWV/EuQAAABqM6SXjU1d7jOfviEP0si5KcBRbApyGKYATsPDhw97jyn77H2jT18PQ309EwHAFIQ4YAGGNOj/iU9+/eqTf+fq6q//sz/5SsnfUvL/cxkS4Oibv/zfH7r8e5pntqs5wDK1Ies7yyvLrW15DlnfWV9z9sgxV6jnFAxZdmX9d+1TfdvA3OseAADYjzSAnZ2dbSy3bt1qXlGvofOYhr9Dyny2LeNNZakSqNgU4Bh7t3xfkCPSMHro9bwPQ/ffXUrXeoND6+tZ6ZA9cFyUgFp6BekidAbAnIQ4oHKbGvRLQ/63f+fXrb72v/rdzV9fyt9S8v+lgXdTA/8Ymxqch8xf/u97f+jyxvk6hR4ENq3vNN5nHWZ5ZbldtL6+87y+cEx6esjnTS3v2bZN9AVPptwml2zT/lSWYVn/XfvUpm0g6/5zP/PLzSMAAI7N0Lvih9JIwZzGNNgvIZByLLLfJ1AxZYCj2BTkyHo2vAocr77jSm0uX77cTL1uSC9SALAtIQ6oXN+QFGmgbWvI7zO0gX+ITQ3OY+evzFeXY+9BYEiAI433bQ33bfK8PL9vPc/Rw8nFbTafn/XaFzzJ3/P/p6wr/FKU9T9mnyrbQNt+1fdZAAAA+9IVzOhqzDuFXhoOLcu4b6iAXQIcxaYgRxp5T6VXDuCFa9euNVP1mDoYCwBDCXFA5boaWtOgO7Qxv01p3N22B4RNDc7pYWGb+ctr+oIc6UHgWPUFdkrvC9vI6/qCHFMHY9a3ixI82GVbPRVDAjzb2rRfAQAAHEJfTwtdIYG+bvjZXXrA6OvxZIoAR7EpyBFlCBthDjh+fb1eHNKm4xQAzEGIAyrW17i+S4PuutzVv00De1+D866NxZmfvnDJMfbGke/UF9gZ0/tCm77tZcpgzPp77Ro8OCV9QwVNtRwFOQAAmFMa4y+WNLqWkobhFFh37969ZupVDx48eP5vW8NZemjI9sW0sp8mLNE1zEFMGeAo8n5PnmzuJbSEOQAA4BQIcUDFPvczv9xMvSqNuofUF6JII/EUvS4ktND1PbuWy5J1BSmmDEL0NeCnZ5WpXf+eP9BMsUlfgGfKIMymgBQAAHUrjaxDSps0zrY9d1PpGlZh/f3ynIslja6l9DUMs500qJ+fn28sJRBRmwQxuraLcjf2nTt3nv97UVf4Y25Zlm3LeFOpWQlZZT/tM0eAo8hwBUOCHEOeU6O2beKQxfAQ1Orp0+6bnA7JOQwAhyDEAYySxv6+wMEUAY7i6z76oWbqVX3DuCxRXy8MUwYh+tbNL/zzX22mpjH1tnDM9rX+i117dQEAAJhCVxAjYYHSyJx/u3rjSPiA3WQZDglZzRngKLKuEzBoW9+RAIfwAbXIPrMedpyjHLOucOGmMNkh9P3W3Lx5s5kCgOkJccACHTLE0NfYP3WDc19j8zENqdLXC8PUQYiuXhimHFIlDKMy3D7Xf6E3DgAADsGdrBR9vXBc7H2jqzeOx48fN1NsKw2QXaGJIo2tcwc41rUNr5J5EOCA41F6W2pT09Br+a3qCpZsOnYCwK6EOIBR9tULR5H3bXMsQ6r0hVHm6IXha//o72qmXjfVkCpd64zX9a3/rp5opqA3DgAA4JAy3E6bNIpdbKzXG8e8Epro6/3iEHeal145Et7IvLnbHY5LXyirpmN739Bd165da6YAYB5CHLBQUzW4j9H3mXMEDuLYh1TpCqPMFYrpe8+phlSZM3xwbPrCSIIWAAAsSRpa10saX0tJQ3Ap0Nc419XrRtffc4d07pRmNxeXb/bhhCgO3ftFwhv77AWEfiVcc7FYR2yj75wgx/ZD9siR35UMadPVY1SOkcJlAMxNiAMq1tcY/unverL3IEdfI/9cwz4cu64wypKDEMIHw/UNpTI3Q6oAACxPGgzaGtBqKGnEWy+Z11LS8FcKp62va/q+ITPy9zSatem7U5phsnzToJplnH81ygNz6zuuRwIUCVLsO6iX8EhXb1FFV7AQAKYkxAEV6xv6IvYd5DjEECb7GP7jUA41/3MOUWMolWnozQQAADhGfYGLTXc1J1jQ1uBnWJVppEE1y7grSAOnqi24eMhyTLqO6+sSqEiYI8f5uQIdee+EN/p63ygSdHOcBGAfhDigYundYlOjeIIcP/Ejn2sezaur14BD3dE/1fAfh9I3/4fozeJYhqhZir79Vm8mAADAsUnjW1fj2NChdgyrAnBchgQ5Isf5EuhI4CLBixLsKGWTPKe8Lu9Rght5703hjRDgAGCfhDigcte/5w80U93+waf/5eovfsOPP28Unqt3h6X3elGjQ/RsMjc9SAAAAHBRGs66uqdP493QRrE8r6uxz7AqtGnrySCltobYNCQvtaQhHHaRIMfQMF8kcJHgRQl2lNK2fa6XPKe8Lu8xJLgR+d2p8bgBwHET4oDKpTeOT/6d/nH4ioQ5Ss8c+wxdlBDJHCXf5xS1LYupih436tAV4jEkDQAAcGz6AhZdvWt06RtWRWMywDIlIJGgxIMHD5q/HF5+axIuye8OAOybEAcswJggR5QwRxrs9aABAAAAHEqCFV13O2/bNX1X8EOQA2DZbt68+fy34ZBhjoQ38vkJb+h9A4BDEeKAhShBjrF36ZcwR3rnAAAAANiXhw8fdgY40ki2beNYXtfV9X4+L58LwDLlGJ8wR3rm2FegowQ38pkJb+TzAeCQhDhgQRLk+N4fujyqV46iDHkizAEAAADM7d13313dunWrefSqNJbt2j19GvnyPm3yufl8ppVeTs7Ozo6i2D5gGdYDHeuhjpT8BnT9DrQpz08p71HeV3ADgNoIccACJczx1//Zn1z9iU9+ffOX4RLm+Ft//qlhVgAAAKBHggBtjb/bllOSBvKrV7tvQOkaDmWsNLp1NeDl8zXUsxSlIbnm0tX7DexTCXWk5DcgpWyjXb8H2Xbz/+X5KeU9AKBWQhywYN/+nV/3PMwxtmeOn3/6S8+HWZkqyJHPz3zsu+T7H6MMmdP2ffdRAACA49J157zGbeayKcCRxrQ0wk0ljXGCHAAAwDER4oAjUHrmSJhiTO8cUwY5AAAAgNO27wBHkSBHl8xPwkwAc+kKTD58+LB5BgDAOEIccEQS5ii9cwwNc0wR5PiFf/6rzRRTSE8pnC7rHwAAWKI0YvYFONJbxhwBjqJvqId33nlHkAMAAFgMIQ44UmPCHO/87X/dTHVLQIRpfd1HP9RMcYqsfwAA4Bik940EJBKU6JIAR19vGVNIQGRIkMPwKtvLOjw/P19UAQCAJRLigCOXMEeGWemTO/936Y3jcz/zy80UUzHMzWnbx/q33wIAwAs3b95sbfzdV1myMnzKoQMcxZAgx71795pHAAAAdRLigBOQXjQ2BTmGDInyhy7/nmbqVYZ/2M7X/tHf1Uy9zhA1x69v/e+D/RYAAJjbPgMcRQly5LMvOsT8AAAAjCXEASdiU5DjH3z6XzZT3Qz/MC1D1NBFiAcAgFPT1kNFCnXr6/nikIGJzFc+ez3IIcABAAAshRAHnJBdQwN9PQf8xI98rplijK7eTYaEali2vv1x7vVvfwUAAKbSFuTI4xoCEyXI8eDBAwEOqnZ2dlZ9ydBJLFeO1W1hScdGAKiTEAecmK7QwBCHbHQ+Vn29m2hoP35/4pNf30y9bs71b38FAACmVBoHE5hIgCOPa5EGyps3bzaPAAAA6ifEAYxyqEbnY/Xt3/l1zdTrNLQfv77ebeZa//ZTAABgLglM1BTgAAAAWCIhDuC5oT10bAod/MI/fb95xFB9wZi/9eefNlMco01DHE0duMj+KRwEAAAAwJTahuDZd3nnnXeauXlVhgJqe/4+y8OHD5u5AYBhhDigYrU24PcFPt752/+6mZpeGqCPsReBvt4Yfv7pL80ajMnyFLw5rL4Qz9TBqDn3TwAAAAAAAHYnxAEVSwN+ghxTNeLmffKebb7uox9qpjb73h+63Ey9rszz1DLvn/6uJ6vP/cwvN385HumNoa8hP997jqBF1pNeGQ6vr3ebmGr9Z3137f8AAABAfc7Pz6svGUYJAIBpCXFA5dLomkbcKXqg6LsLf1ND8kV9oYMpwyd5j7xXlsExG9KQP1UvJHmfv/gNP65BvyKf/DtXm6l2uwQ5yj50cX337cMAAAAAAAAchhAHLER6TEjD+zYNuV2NuMU2jbkJHfQNq7Jr+GQ9vHEqYYNNDfnZBnYJx5Twht436pPeWPr2p9hmf8rz2/ahTdsaAAAAAAAAhyHEAQuTBtk0xKdxNqWrQT9/z/9vCkKk4XhsLxxFhlXZ1PBcwieZj675zd/K/Kbk+acU3ijSkL+pcb2EY8o2UJbdRevLM8teeKN+Y/anvnW/aZ0ntJVtDQAAAACm0DbUjvKy3Lx5s1lSADCMEAcsVBpnU0qD/sWSv+f/+4IQaTBOw/EuhjQ8R+aja37ztzK/KadsSJCjKMuza5mW5XlqYZglG7o/9a37vnWe9942tAUAAAAAAMD8hDjgRE0R4CiGNjzvKp9x/Xv+QPPoeI0JcuxKrwz1mWt/yrqeap8HAAAAAABgHkIcULE5GvLTOJz3nboxN++X952j8Xl9nk8lcJDv+df/2Z983vA+h7xv3l+vDHUq+9MUyv5jXQMAAAAAANRPiAMqVhry0wC7a2P+PoIQed+8f+Z1ijBH3ufUwhsXpeF9ivUfWSfCG8uxa5CnrO9T3n8AAAAAAACW5uz8A830K+7fv7+6fft28+iFt965vvrKr/ry5hFwCL/wT99f/cI//9XV537ml1c///SXmr++qgQovu6jH3r+7yEb7H/iRz73fF5jyPx+7R/9Xc+nNTq3G7P+oyxTy3P5Nq379f1ISAeW6Quf/43VX/7Wf9w8euHu3burt956q3kEAOPduHFj9c477zSPluvJkyerK1euNI9Oy7vvvru6evX1nvquX7++evToUfOo28OHD1e3bt1qHr304MGD1c2bN5tHrOvabyyz5Tk7O2umXlXbMaVrPpemo6nh6B3Lb+3Q3xUAYHtvvvnm6u23324erVaXLl1aPXv2rHn0khAHAABUQIgDgDkIcSyfEMf+CXEcDyGO/RLiWDYhDgCY39AQh+FUAAAAAAAAAAAqIMQBAAAAAAAAAFABIQ4AAAAAAAAAgAoIcQAAAAAcqYxtf35+vvhy5cqV5hudnnz3tmWSdQsch7Z9fInlVB3Lb63fFQCohxAHAAAAAAAAAEAFzs4TsWxx//791e3bt5tHL7z1zvXVV37VlzePAGBaf/EbfryZOrw/8cmvX337d35d8whgfl/4/G+s/vK3/uPm0Qt3795dvfXWW80jAAAAAACW6s0331y9/fbbzaPV6tKlS6tnz541j17SEwcAAAAAAAAAQAWEOAAAAAAAAAAAKiDEAQAAAAAAAABQASEOAAAAAAAAAIAKnJ1/oJl+xf3791e3b99uHr3w1jvXV1/5VV/ePAIAAKbyhc//xuovf+s/bh69cPfu3dVbb73VPAIAAAAAYKnefPPN1dtvv908Wq0uXbq0evbsWfPoJT1xAAAAAAAAAABUQIgDAAAAAAAAAKACQhwAAAAAAAAAABUQ4gAAAAAAAAAAqIAQBwAAAAAAAABABYQ4AAAAAAAAAAAqIMQBAAAAAAAAAFABIQ4AAAAAAAAAgAoIcQAAAAAAAAAAVECIAwAAAAAAAACgAkIcAAAAAAAAAAAVEOIAAAAAAAAAAKiAEAcAAAAAAAAAQAWEOAAAAAAAAAAAKiDEAQAAAAAAAABQASEOAAAAAAAAAIAKCHEAAAAAAAAAAFRAiAMAAAAAAAAAoAJCHAAAAAAAAAAAFRDiAAAAAAAAAACowNn5B5rpV3zv937v6od/+IebRy987X/1u1e/9bfLfQAAwNR+8798cfX//f+83zx64ff9vt+3+tqv/drmEQAAAAAAS/Wv/tW/Wv3iL/5i82i1+q2/9beu/vN//s/No5c6Qxwf+9jHVp/5zGeaRwAAAAAAAAAATOHs7Gz1xS9+sXn0km41AAAAAAAAAAAqIMQBAAAAAAAAAFCBzuFU/uyf/bOrH/3RH20evfD7f//vfz4uCwAAMK3f/M3fXH3uc59rHr3wxhtvPC8AAAAAACzbL/7iL64+//nPN49Wqy/7si9b/Zf/8l+aRy91hjju37+/un37dvPohffee2/14Q9/uHkEAABM5f33338tsHH37t3VW2+91TwCAAAAAGCp3nzzzdXbb7/dPFqtLl26tHr27Fnz6CXDqQAAAAAAAAAAVECIAwAAAAAAAACgAkIcAAAAAAAAAAAVEOIAAAAAAAAAAKiAEAcAAAAAAAAAQAWEOAAAAAAAAAAAKiDEAQAAAAAAAABQASEOAAAAAAAAAIAKCHEAAAAAAAAAAFRAiAMAAAAAAAAAoAJCHAAAAAAAAAAAFRDiAAAAAAAAAACogBAHAAAAAAAAAEAFhDgAAAAAAAAAACogxAEAAAAAAAAAUAEhDgAAAAAAAACACghxAAAAAAAAAABUQIgDAAAAAAAAAKACQhwAAAAAAAAAABUQ4gAAAAAAAAAAqIAQBwAAAAAAAABABYQ4AAAAAAAAAAAqIMQBAAAAAAAAAFABIQ4AAAAAAAAAgAoIcQAAAAAA1btx48bq7OzstfLuu+82z4DT07ZPpAAAsFxCHAAAAAAAAAAAFRDiAAAAAAAYqatnkGMoejdhG9lu2ranpZTs0wAANRDiAAAAAABatTV0pgAAADAPIQ4AAAAAAAAAgAoIcQAAAAAAQIuHDx8+H2aja/ic/D3PMQQNAABTEeIAAAAAAIBGCW4kpHHr1q3VO++887y0yd/znKtXrz5/vkAHAAC7EuIAAAAAABjp0aNHq/Pz86MsV65cab7laUn4IuGNEtzYRgl05H1OLcyR7aZte6qtPHnypJljAIA6CXEAAAAAAHDS0oNGwhfbhjcuyvvk/fTKAQDAWEIcHJ1cGF0clxIAAAAAoE3pfWMOpVcOAAAYSoiDo5IARy6M1iX1njAHAAAAAOxbGvDXbzgqZc4eGg7xmUuVZbWp943r16+vHjx40DosR0r+r0/eX5ADAIChhDg4KhcDHOtcKAEAAACwb9euXWumXvX06dNmanpdoYQrV640U8SmAEfCGwlrPHr0aHXz5s3mry9leabk/xLmyPO75HMyZAsAAGwixMHR2HQnwaZEPQAAAABwGlKX2FdfmFBGwhtDJcyR5+d1XTJki95QAADYRIgDAAAAAICT0tejb4IY2/Zaktf1BTn6PhcAAEKIAwAAAAAYRW8CLFnfsMu7BDiKTUEOw6oAANBHiIOjseni6sGDB83U7lJRkYutvgs+AAAAgCXT0Mwx6htGJfWHuwY4irzP9evXm0evOtZhVfKdzs7Oqi96QwEAaifEwVHpS7hfvny5mdpOCW6UE/1cbAEAAACcoqdPnzZTbNJVJ/X48eNmalpd4YCuQMGpuXfvXjP1qiyfmzdvNo+m8ejRo2bqdfYhAAC6CHFwVEpXhesXpUnQ79oNYsIbghsAAADAKekLGagjYam6euG4c+dOMzWtrt6Bj7U3DgAAdifEwdFJWCMp9/Pz8+clCfqpukEEAAAAOBVdjd2FBmiWpmuIoNwQNlf9YV/vHnrjAACgjRAHAAAAAPCKrsbudV3DUkCtunqXuXbtWjM1j77eOAAA4CIhDgAAAADgFX1DqRTpqUNvHJt19fCwqaeTbXX17jB3UGEJupZ5X28ZU7h8+XIz9bpT2IcSYim9Jtdc0rszAEANhDgAAAAAgC9JLxxDAwY19MZx9erV1dnZ2eDCaeobSmVuhnoGAGAMIQ4AAAAA4EuG9MJR6I2DpTjUUCpF15AqXT2nAABwuoQ4AAAAAIDn+nrh6OqxID1hCHKwVHMPpVJ0Daly69atZgoAAF4Q4gAAAAAAngcxuhqU04vAnTt3mkevq2FYlX26ceNG61AtXaVL23N3LV3rMH9ve35XObZgztAhggAA4NCEOAAAAACAziBGeuBIbwVXrlzpHBIiDeQJNsCSdPUuM4fsP130ZAMAwDohDgAAAAA4cQlgdPVUsN4DR8IcXQ3fhwpyPHnyZHV+fj64cHqEJAAAWBIhDlioXHxmnNqUti4vU2mSUp5TmzL/mce+ed9V3+eUz6p1GdWkLKNNy/GQlSLr67prPlNqmNc+fd9hynnftKzy/zUsp7JeU9rms3yH8hwAAGC8nFN3BTgS2LjYg8CjR4+aqdfpkYMaPX36tJl61bVr15qp/dhnzx8AACzYeYdPfepTiaW/Ut57773mf6FODx48eG27LWWTttdMWT64SGs+aTdPnjxpff8hZap5KLZZ3n2vaSuZ57xmrLGfk7LtZy1F23dO6fvO2yzHlH0tx3xO1lvbPAwteY/sV1Nq+5yUruWSzx/7PbaZ720+J2WOZbRJPq9tXoaUfEdYol/5lV95bXu+e/du878AAPPI+f7Fc5BS+s6tN52zz3Fe3nU9s+/rldjm2mpp5RDLdS5d23nXdfpcurabXeaj7f1SDmGXa/mayr63CwDgdHz84x9/5bzj0qVLzf+8Sk8csBC5Gz13nV+9erX5y3i5G6bcub5vZf5v3brV/GWYzHNeM3Set/2cWP+sQ/c+cGil14NtlmPkdXn9XMtxff667hYbKu+R/epQvThke8vnj/0eZb6HLuNtPyf2uYzKPpzP21a+Y97jEMc6AABYkpzj53y/y/owKheld44nT540j16X8/JjPidPbyTn5+3DtRxLudgDC7vbd88fAAAskxAHLEBpfJ1KqUjZV1BhivkvjbJ985zKpymWUz4r77Ov5VObrK++Srwxpl6O6+GNqeU991nBWMIK2d52kWXcN9/5nPz/rp8Tcy+jvPcU+3Cx72MdAAAsSc6V+66tEtDY1Ig/JMix6VoeAACAVwlxQOWmany9KO+5j6DC1PN/7969ZupVmyqftjFlY/JSzLG9TbWd5T3mCG+sy3fPMphbvsvUYYW2ZVw+Z8p1mveao0eOpR/rAABgSTadfz948GBwLwybghyRc/J99OwHAABwDIQ4oGJDGjVTsZLKkotdXuZv+b/r1683z2w3ZUPyRWk0bZv/rnkeMr95v4uN7KkI6lpOu3xW7KNBvxZd21uWU5bXxWWY5ZoyZDnOuZ2tK/Pats6Hzm+WwdwN/m1hpL7lnL9v0hZU6Fruu35WwjRTLqOlH+sAAGApch6/6fw759Y3b95sHg0zJMhRevab+3oLAABg8c47fOpTnzrPf6+X9957r/lfqNODBw9e225L2UXX+16/fr15xvTy3m2fWUrmaai+5ZKy7ffoe98nT560/m2IPG/T9y/v1fY5KWOWz9DPWrq275aSZdW2LsdsF0PW2Zh10qZrXedzx75313utl120vV9K5vPichqznNvW03pZf6+29ZG/Dd2eNy2jMfPdp20+18uYdTtm+UCNfuVXfuW17fbu3bvN/wIA7GbT+XLKrufMQ64NU/Kcodcm67ree5v34rR0bf9jrjmnMMd8tL1fCgAA9fn4xz/+yjnbpUuXmv95lZ44oEKb7op58uTJqLti8ty8pks+a+puTS/2NJDPH9MV66NHj3rvrC/v33Z3/djlM/SzjtnFYUqyDLNchhqyzuYYCuXBgwfPP3eOu8TmuDvs8ePHr+zbWV5jlvOQfTnz3dY7TfmsMfvhkM/axTEc6wAAoHal941N12Rjr0/aDLk2jJyb53o+5+d65uCUpF4AAAA2EeKAyqTyoq9R8/z8fHAj7LpNDbJTN7Cvf4d87jbz3Fd5lPdPJdRFc33WMWsLcGyzDGNThd9UDeipEMy+MDa8sW7TPjHH8Bvr29K2FaSZ74RXuiR0dHGdzvVZT58+babGO5ZjHQAA1CzXzbm22XRdO0WAY13eq+9aosj5eeZPkIO5Xb58uZmqU+3zBwDAfglxQGX6Go77GiaH2NQgO8cd6vm8bRpii775vVgJlUqnuT7rVO7e3yXAUczdgJ73n6pycdN3nbMicZfv0BdeaaucvXPnTjM1Xt9n7bI+j+1YBwAANck579nZ2cbwRkx5jbVuU095RZ6z63UobEvPGAAA1EiIAyrS17A4VaVGKlESdmgzx4XrLj0lRN/8XrRrpVPfvJ7CRf2uIZhizmDEHJV7fY39c5niM4dUhkY+a9dl1je/26zPYzzWAQBALYYMnVLMHaDIe6eXva5z8ymuV+ZSgjBKd2G8rmBVrfsBAACHIcQBlUhDaFcly1SN68W1a9eaqVcNuUNnjKGNzJt0ze+6qT6rq2Jp6mVToynvvJojGJF9YI5Kjb4uS3cZLqRLtrFdw00xZFlM9VlTLqNjPNYBAEBNcm3XdW1b5P+3HcJwG5mni9ftU12vwBBd27rrQwAAaiTEAZXoawjdZSiENn2VJFMOMzBVZdCQcUGn+qwhgZFjtKmCb6x9ByN20bftzNFjw5Tb2Kb1NtVnTVmxe4zHOgAAqE1fkCOh+ylD/EPluiLBkXx+5u0Q8wBt5hxKdV3XdejUdTIAACyfEAdUYl93phddF4hTNVpP2RPDpu8/5Wf1hQ/2dVF/CFOHV/YdjNjVPitMprzTbNN6m/KzpjpmHNuxDgAAanUxyJHp9IZx6N4v8vkCHBxCV/3Rvm42WeJ1qGGFNhcAgDkIcUAF+sIBU9+ZXnQ1/k7VjeSQ3jOmss/POlZzVOJ1NZ7XaOoQS5d9LpMal/8xHusAAKBmJSxRet+YIzgNS3Ho+qOu69B91UkAALAcQhxQgb7EvwqWF/oapKdcRn3vVdswIFOZq7H/GBrPa5/XvgqoqSuBplifjnUAALB/GcLk0L1vLFGWWZbdIUt6TmmT6/i25++7HIuuHiOn1HdTg/0TAICLhDigAofoTnHuYUM0yC6HOz7259SX9TEe6wAAAFiGvrqqDBsyp3v37jVTr6qxF00AAA5PiAMq0HUne9dYnXNbUo8TLnYZKw33qZxJuXHjxvOyj7tu9q3GYYYc6wAAgF1kSJi2HiHcSMJQXdefc9cLdF0Pu7EGAIA2QhxwYO4Eh+m1BTXOzs6el6tXrz6vnElJJcqY4UDYnmMdAAAAh9Y3dMlc162pk+hS+1AqNQwrVHsBAJiDEAdULI3MpeF56pKGbDgG62GN9e1bUGM5HOsAAGCZ2gL069dmfaU8t7xe8Jt96eqNY47rx2zXXXUSepcFAKCLEAcAi5RKvlT8rYc1AAAAmFcJbOR6rC1AP/TarDy3vD7vVQIeQh3MqW/40Wx7U7p3714z9boMDwQAAG2EOABYlFJZmEo+AAAA5rce3CiBjTmthzoEOpjalStXOnvjyLY31faWfaZrX9ELBwAAfYQ4AFiEVKL0VYAMkUqSlFTWpDx58uT5+KVdlTcAAACnLAGKfQU3upRAhzAHU7p582Yz9bpsb7tua3l9X4BDLxwAAPQR4gCgeqn8SCXK0ErDtqBGSipJUlJZk5K7bwAAAHhVrsFq6wFxPcwBU0h9QZddghy5ASWv73Lnzp1mCgAA2glxQMXWG5/3WfruRoBD6Kv8iBLaKNuwoMayONYBAEA9NjVAX3QxRD/k/L48r7wu7zFUwhyZx9qUXkumLF3rITc4tD1/13JqUl+Q7bBLln+2taFhjjxvUw+i2d7VUwAAsIkQBwBV21Q5lwqQEtoAAABge5saoIv1IP3FEP2QBuryvPK6vEcJd+R9N8k81hjkYHmyHfaFiLKtJcxRhvNpC3Tk/7I95nl9+08+59jrLuYIM+27AADUQIgDKvb06dNmCk5XXwVIKviOvQLkFDjWAQDA4Q0JcFwMbkytBDtKoKOPIAdTyfa8qTeYMpxPysVG//zfpn0n75/PAQCAIYQ44MCG3KECp6qvQk4XpMtiXQEAQL1y9/ymHgQSrNhniD7XEPnMvp45Ms+Zd9hVAhabgkPbyvsKcAAAMIYQB1Ts8ePHzRScpq5KxFPogvSUONYBAMBhpSeBLofuQSDXfn2N65n3tiEuYKwEh7KtbeqVY6gSfnJTAwAAYwlxQAW6Lg43dcUIp+ratWvN1DSECPbDsQ4AAOrT15PFoQMcRWlc71LzEI2Z7zTk11Tolm2t9MrR1wtMn+w3eb3eNwAA2JYQB1Rg6gZpOAbupDo+jnUAAFCfvlB7TY3QaVzvCob39SQC28j2VnqBKYGOru0vf8//pyQkk/1G7xuvEmYCABhHiAMqcPny5WbqdcZ25VT13UnVt89sQ08Q++FYBwAA9em6Htq2F4I53blzp5l6nRsBmEPCGCXQkXBGWxggf8//G/YVAICpCHFABfrS+e4mgXkJD+yPYx0AANSlL/gwdXh+Cn3XFDUPqQIAADCGEAfsYMq79/vucNHIDPPp6zqY6TnWAQDAMvQFJg6pa0gLAACAYyHEAZXo63Ixd6jrFpRT03fX11R3WCU0YCiV/XKsAwAAAAAA6CbEARXpu5vk3r17zdT00mjqDniWZIqhN7LdG8LjMBzrAACgfrUGrAXxAQCAYyfEAQP03Tk+ZYPgo0ePmqnXpZLixo0bzaPppFLm6tWrhpSgOpu67t2lQrFs9xyGYx0AANRvqh4QpySUDQAAnAIhDtjR1A2CDx48aKZeVxo3p7gbJu+R99KQTc369odsu9vsCwIcdXCsAwCAw+sLz9fYc2FfHUzfDTgAAABLIsQBA3V1/z/1XeOpdOgbaiCfl8bIbe8+WW/QzHtBzS5fvtxMtRsb5Mh+c7ExP/tbX6CAeTjWAQBAHfquh6as79hVrg26zu37ri0AAACWRogDBrpz504z9bpUIqRio62xMQ2J+fuYio8MNbCpAiJ3xJydnX3pc9sasvO38vkpeb4GTZYkd4VtClhkm8623bUflP0vz2m7k6xvaA/m5VgHAACH19eDRanvOLSc7/f1DNJXZwMAALA0QhwwUBqTN901Xhob10saEvsqGroMadyM8rmlIfviZ5fP32YeoAabemwouvaD/L2rMf/JkyfNFIfiWAcAAIfXd21Ughxtgep9yGfnfL9Lrif6hoUBAABYGiEOGGHfd+wPbdzcVT7DXSvUbI59IZWUKvrq4FgHAACHNeTGlQQp0vPdvpReFbtC+ZF53nddDQAAwNyEOGCkfd+5n8qIfOYcDZx5z7x3PkNjNrWbqqE/73F+fm6br4xjHQAAHNaQa670fJfe8LqGOtxVGSYxn9HXq2JkXjPPAAAAx0aIA0ZKA2AagOdoaOySz0zFxIMHDyb53LyPBk2WKNvstg39eU22fZV89XKsAwCAwyrn45tcHOowwYsS7CilT3lOeV163ChDJQ4ZIjHXC67tAACAY3V2ntboFvfv31/dvn27efTCe++9t/rwhz/cPAIilQ2PHz9uvTsklQrXrl1bXb58efIGxPK50XVnSmkELfMQGjI5Fqnwe/r06fPptkq+9e3/5s2bz6dZHsc6Tsn777+/euONN5pHL9y9e3f11ltvNY8AAPYj11sJVNQoIZMar/Fy7TIkgFKzjmpiKpcAVJtDrE/7AQBAvzfffHP19ttvN49Wq0uXLq2ePXvWPHpJiAMAACogxAEA1KamBtnae9/QeM2hCHFMy34AAMxpaIjDcCoAAAAAwGvS40UaNIcMsTKXfHbmwfApAADAqRDiAAAAAAA6lTDHkydPnocqypCGc8h75zNKeMPwmAAAwKkR4gAAAAAANrpy5crzUEV6xSihjhLsKOGOIQGP8rz1wEbep/S4kc8Q3gAAAE7V2QcXR62DvN2/f391+/bt5tEL77333urDH/5w8wgAAJjK+++/v3rjjTeaRy/cvXt39dZbbzWPAAAAXnV2dtZMvaqj2h8AgAN68803V2+//XbzaLW6dOnS6tmzZ82jl/TEAQAAAAAAAABQASEOgB09fPjw+V0PtRQAAAAATkN63GgrAAAslxAHAAAAAAAAAEAFhDgAAAAAAAAAACogxAEAAAAAAAAAUAEhDgAAAAAAAACACghxAOzo5s2bq/Pz82oKAAAAAAAAsExCHAAAAAAAAAAAFRDiAAAAAAAAAACogBAHAAAAAAAAAEAFhDgAAAAAAAAAACogxAEAAAAAAAAAUAEhDgAAAAAAAACACghxAAAAAAAAAABUQIgDAAAAAAAAAKACQhwAAAAAAAAAABUQ4gAAAAAAAAAAqIAQBwAAAAAAAABABYQ4AAAAAAAAAAAqIMQBAAAAAAAAAFABIQ4AAAAAAAAAgAoIcQAAAAAAAAAAVECIAwAAAAAAAACgAkIcAAAAAAAAAAAVEOIAAAAAAAAAAKiAEAcAAAAAAAAAQAWEOAAAAAAAAAAAKnB2/oFm+hV/+k//6dXf+3t/r3n0woc+9KHVl33ZlzWPAACAqXzxi19c/dIv/VLz6IXf+Tt/5/MCAAAAAMCyff7zn1/9+q//evNotfotv+W3rH7zN3+zefRSZ4jjYx/72Oozn/lM8wgAAAAAAAAAgCmcnZ09v7nvIsOpAAAAAAAAAABUQIgDAAAAAAAAAKACncOpfN/3fd/q05/+dPPohT/+x//46su//MubRwAAwFR+4zd+Y/WP/tE/ah698Af/4B9c/eE//IebRwAAAAAALNVnP/vZ1b/9t/+2ebRa/bbf9tue1wtf1BniuH///ur27dvNoxfee++91Yc//OHmEQAAMJX3339/9cYbbzSPXrh79+7qrbfeah4BAAAAALBUb7755urtt99uHq1Wly5dWj179qx59JLhVAAAAAAAAAAAKiDEAQAAAAAAAABQASEOAAAAAAAAAIAKCHEAAAAAAAAAAFRAiAMAAAAAAAAAoAJCHAAAAAAAAAAAFRDiAAAAAAAAAACogBAHAAAAAAAAAEAFhDgAAAAAAAAAACogxAEAAAAAAAAAUAEhDgAAAAAAAACACghxAAAAAAAAAABUQIgDAAAAAAAAAKACQhwAAAAAAAAAABUQ4gAAAAAAAAAAqIAQBwAAAAAAAABABYQ4AAAAAAAAAAAqIMQBAAAAAAAAAFABIQ4AAAAAAAAAgAoIcQAAAAAAAAAAVECIAwAAAAAAAACgAkIcAAAAAAAAAAAVEOIAAAAAAAAAAKiAEAcAAAAAAAAAQAWEOAAAAACAL3n33XdXZ2dnr5UbN240z2CMhw8fti7P/J26ZZtvW3fZR+jmGDKdtuWYAgAcNyEOAAAAAAAAAIAKCHEAAAAAAHTQqwAAALBPQhwAAAAAAHAgXcO21FIElgAA9kuIAwAAAAB20NVTwyFK5gUAAIDlEuIAAAAAAOBgunqiEEoCAOAUCXEAAAAAwJG4cuVKMwUAAMASCXEAAAAAAAfz8OHD1l4Y9lWA49PVu8uhSuYHAGAoIQ4AAAAAADiQR48erc7Pz3cqDx48aN7tVfl72/PHlMwfAAD7I8QBLM7FJL3xUeHwsh+u75fuMAEA4JRkCJO2hs+5SpeuRlwAAACWQ4gDWJQ0DL/zzjvNoxeuXr36vOtV4DAS4Mh+uC77acIcAAAAAAAADCfEASxGghoXAxzFrVu39MgBB3IxwLFOjxwAADCtvmvfy5cvN1MA1OTatWvNFADAZkIcwGI8fvy4mWr39OnTZgrYl03hqa7gFQAAsJ2+a98M63JMMjxM23Ay2xbgdDx69Kj1ODB3uX79ejMHAADbE+IAAAAAgIVIT5RtEngAuGjTTVHsh56SAIAxhDgAAAAAYAHGDKVydna2dekbMhGoU1fAi/3q6pH02HpKAgDmJcTBIqXS4uHDh6sbN240f6EmZd1sGmZhrE1jR968ebOZAvZlUyWEuwEBAGA69+7da6Zep4EQaGOY0/2Zui4UADhdQhwsRglulDtCpMvrUoIbWT9ZN3NcICak0TWupPEm4XCePHnSTL1Od6EAADCN1It0XWsLT8Np2xQeSL0d83v69Gkz9Sr1lgDAWEIcLEIuNAQ36jVncOOiR48evVI5lYugPM7fgcPIHX8JcqxXSmS/zN/cDQgAANPo64VDeBpOW1d4oHj8+HEzBQDAEghxAIuTHjnOz8+fl4Q3DKMCh5ewRvbHsm9mvxTgAACAafT1wpEwtXNvOG2bbnwzpMp+dIVlNg0RDQBwkRAHAAAAAFSsrxeOO3fuNFOvKgHrbUrfkIlAXYYOlZJhkJlXV1jGDWgAwFhCHAAAAABQKb1wcMo2DRPC5l44Cr1xzGtomAYAYAghDgAAAACoUAIcV69ebR69rqsXDlgaAYPt5BgxxqF748h6Pjs7G1yWFIzoGkolYTsAgLGEOAAAAACgQn3DqDx48EAvHHDiukJeXUMiJUQxNvjBMF1BpGvXrjVTAADDCXEAAAAAQGVyB3pf7wQ3b95spuB4dfVuQH+vGgl4dfUA0de7D9vp6zHEsRoA2IYQBwAAAABUJHfK37p1q3n0uq677GGJ+hrADbPSLseIrmVTjg+PHj16/m+bQw+rcmwMpQIATE2IAwAAAAAqkcbZvjvlDaPCqTH8x6v6jhEJDawfH3K8aJMAiCDHdAylAgBMTYgDAAAAACqwKcCRBlpd83NsNg2Z8vTp02aKuHfvXjP1ujt37jRTL+R40dUbxCGCHJmX8/PzwWUJxztDqQAAcxDiYJRUJuTENCf4KWdnZ6+V/D3PSTnGpHy+0/pyaFsGKWUZ9Z3IH0qZ/7Z5rnF+a5Vl1bcdlOVZw36waZvN363/3ZVl3Leca9kmLlr6cWHTNp5S1k2et4/vVOYppYb5AQCgbjl/3BTg6BseAZbKkCnD5Rqya3l19dLTd9zQI8fuuoa+6grPAAAMct7hU5/61Hn+e7289957zf9yaj446XxtexhTPriIOH/y5Enzbu3aXjdlyXfYVuY936HtfYeWfH7eY0p989Qm36PtuRfLxXW163cfUjZtH0Xba1O2XbZt75XS937bLo9t53Fbu2y32V671knb81P2/f3m0Pa9Uvq+W5bTtsfIvO/QbX+ovnXeJp/f9tyLpW8+x37mVDJPfZ89pMxxbB66TNvKLr9VLN+v/MqvvLZN3L17t/lfAOCYDTmH7Dsnn1rX/Mx1vtp1Xj/1uXrbZ6Rssuvy2Nf3W6KuZXOxHErX9f4+98eia15SNm2Lm44xU+/b+z6GHErf9juVtvdOAQCW6eMf//grv+mXLl1q/udVeuKgV5LYuVt410R8Esm5m6TGu8/7ZH6zDDLvXanqobIM8x55v0Msh9zl3XdHD5uVu+m33Rbyurx+H+u/rO9t5zXba17vbox+5fiw7TEy6yevP1QvDEs9LmQfyr60yzZelGPzFOtgfb62lfnJe9j3AABOR84jN51DPnnypPUOezgVh6hLq0muEfvqHjb10pPjx4MHD5pHr8t7uw4dr6tO4rpeOACAHQlx0Ko0RG3bMLl0+f67Ns52yfvlffd58ZnvsmtD56mbchnOuf7LvjvVvGZ7zfvtc3tdgrKcpzo+ZH3tu7JkiceFLPdybK7N1POVbSvvad8DADhuOd/bdB65TYAj55K5Ztm21HjOzXF6/PhxM9Xv6dOnzdTpyf7cV/+QY8QQN2/e7A0XuA4dJ8uqy507d5opAIDtCHHwmiEVCMfu3r17kzXOdsky3sdFUT5j7u9y7DZdLG9jjvU/5767r+11CeZaztnGUlm6j+Wcz1jacaEs9xrne45jROQ97XsAAMcr55Gbri30wMExG3Nteqo3J2263hx7jEiPHZuCHDkuHarH0CXpWi9Zvo7bAMCuhDh4RWkk65Ou93KBcH5+/krJ31L6uuY7JmU5dC2LIcshYZE5DVmf9Ou6WM4FWdZx27pPGdJt4pTrZui6HrLdds27bal/OZdtom/ZDjH3cl7icWHosC9D1sGQfXOMIQGOXefJvgcAcFxyTj7kPDLnixoC65Z1eLEXk7ZyqgGETcbWi51SsCDHiWw7fceJbY8Rm4IcUXoMzXzwuiybLvvqhePicWZoAQCWQYiDL9nUsJeGpjQ6peu9tguE/C0l/7/eODXUesPWxdL1PrngaHt+W9k0NuQQ6w1xZTl0LYuyHPouinIhNucFaNfF8Pr3WC/5e9v8lu/SVbq0fUZXaVuOh5Z1c/FiuWxz2Z6yXC4q20T+P99/00XxFOt/SKN8WedDttvMe9c+13eReuy6lvPFbaJv2eZ5WQ+bzLmcpzou7Ev2kU0VnmXeh6yDPKd8r11tqnjPZ+SzhszTpvk55X0PAOCYlOuKvvPIyPlt2zkkHJOu/aDruvlUwjC5Dt5Uz5Pr9F2OEbkO3XStn/WT+XA9+qq2+sJi1/UCAFAIcfAlfen3XDyloWmM0jiV1x6yAXAKmf+yDMaeiG+6KBo69udYqRi6eEGxqUGxNCa62HjhYuVAtoEsn6GyHDet/ykqIDZd2G+z7eb52VYuzvumisZj1naMHLtNRNZD27Jdl+WcfXhqSzsuZH437SPbHpu7tvGhNgU4ynwNlefmNV3yWVOEvgAAOJycQw5pmM154SHOv2Gfuq5vsg/0bf9zXCvXIt8tx4lN18FZRmPrItrkPfquQ4tcj6YHB2GOF/rWzxTrBQAghDj4kq7GqE0XT5vktTmBneKu50PIxcyuDZh5fVdD4VwNc0+fPm2mXhjboHjq2gIc224Dmy7gdln/m167a+Vf37Z7SrI9rB8js0wSAJhz2W6q3N3Gko4LqbzqWwZTrIPIeshyGKMtDLNu2/nKa/rmZVNFHgAAdcr5YxpA+84hI+e4OT/d9Rw38j45L922jD1HhrG6rm+y7UZXPeIc18o1SP1OvtvQ48RUNl2HrpurDnNJ+oIsS637BgDq1Bvi+N1/+Cu+VDhufSfgU10YpKFwioqIfZmqgbC4du1aM/W6OXrjWL8YzsXYkpZ9baZYfnM0zKYisO+1U633HAP6wganaKrj4qb3mbpyZEnHhb7eoeaotBoTZumrNOzb14fIvPRV/Jx6hRkAwJKUu+qHNDrnHHDKc1yoWdd1zXrdw+XLl5up1x3TdVG+S0JeQ+qG5jpO5Do0daCb6n7y/6d8g1iO510hm1NfNgDA9DpDHLdv3169/6++8KXCcesKEWw6eT9WCVxMfVF0qBP5rMOaG2prN9Xy2/Qeqdwb62KvCuumbqBXmfjSro30F/W937YBn01qPy5s6unikNtjX2XhVPtdfi+6fn/nGoILAIDprIc3Nt1VHzmP1Pi3TDlvX+/BpKu4Q/9VXde66zdA5dqqa7nNda18CEOv8fZxnMi1dtcyz7Z+ynVDm+op7ty500ztT9uxZkgBAJZh43Aqf+BPf1UzBadjrouirka5IZU62zrERcQxmfICdcpKm1w8dlVazNVAr9JpnmWb9+s6NsQ2AZ9Naj8uzNnTxS72ud919d405+8FAAC7GRveyDnkVEFgWIq+Xjgu1sf11c8dS28cQ67P93mcyDJPQ//FeopTrl/Msb2vniL1ZY7jAMDUNoY4/vX/6//XTHGKNBZNq29IlTkaal1E7KavYX0bfV2B9vWq0abv+XNdWM99x8cSzHXXSd86G7ttbFL7caHvWHjoed/nfncKlZUAAMci57AZDmFoeCPSKJvrC9fsnJquYHzXNVXXDSV5nznq0vYtx4CumxVSL5VAxSGOEzk+Zb6EzfpvNGkLHwEATKE3xKEXDphWXyP+HPb9ecemL3Szjb4L3rFDJPR1HTrnhXVX5ckpmDrUs65vnfWt623Ufly4d+9eM/W6Q8/7vnrhKLq2OUOqAAAcXhqPE64t4Y2hNIhyytJTTZu+a6o0kHddG43Z92qW734xyJHHhx6+JPN16mGzrm22OPQ6AgCOV2+IQy8cxDGk2mux74ueU77ImsIcSfquiocxNvVUwDzmvjDvW3dTHodrPi7ke3bduXjoXjj61sFcvd8YUgUAoF5pPB4buC6Nsq7VOUUJPXVdy2y63u675trUyL4UOS7kulfQqx7Ztvquvy8GbwAAptQZ4vjeH/q/NlOcgr4eB1IxIcgxvzmGTGB7U4Qt2kzRKNu3rczdU4EuIufTt+6mOj4s+bhw6F44+taByjUAgNMzpvEu5+GHGhIBatEVehpynVoCDm1Sn3Is9ZapcxH0qsOQAIf1BADMqTPE8eFf+/pmilOwqXFMkGN5Dt3guXRTD6WyLy4g5zFXqGfdPtZd7ceFmoMShxjCpG99+U0GADisnJ9uCnKU8IYwPKeubxiVoftHntd1ba7ekiltCnBkO1T/BgDMrXc4FU5HTjw3NVLmgihdHzJMLh5TssxScgGQsXJhV113r+wjaHCqDh3qOUSA4BBq3ra7KnAO1bvJ1L03AQAwXupS2s4HhTfgpb4G8bFDU/Y9X5CDKQwJcMw93C4AQAhx8CVDLpzSwJYgQkIJLoy6gxopuXhMyTJL6bsAmINE+OlZau8hvDR3WGGpx4VDb9t+7wAA6FJ6B0hJzxzCG/BSrqX6AvFjr1Hz/L4ecO7du9dMcWhZVzkeXiy1BiCyrQpwAAA1EeLgSzZdCK1LKKH0zHEqjVvrYY1aghqcHo3JHKulbts59pffhKlLfl8AAKhfGvVS5gpN51x5vU4iDY3rN5H0lfLclPL6IZbWAEt9ss12XdOkMXzbsFO2za4bIFIvl20dxijbqgAHAFATIQ5eMSbIESXMkYqBpTbAbZLvlQvA9bAG1Ojy5cvNFBwX2zYAAKemhDZS35L6iPU6iTQ0Dr2JpDw3pbx+PeAxNNQBY/QFOGLXxvC8XpCDKWzaVkOAAwA4BCEOXlOCHF0XQ11ywptKgGOpAMhJfKksGVo5AgAAALCNi8GNuW8iKcEOgQ6mtKlRfMzNY336GtVLkCPzAl3KTXt9BDgAgEMR4qBVghw5Qd3mwqpUACz54j/zvukkfpOc5Gd8z5Qsx5R0PQoAAABQrN9EMndwo8t6oEOYg21tCnCkjix1jlPpq7fMNp15OZYgRwl4Lb3U0EtKtonMx6ab9gQ4AIBDEuKgVy6sEjzIRdZYufhfYuo98zym0qQtqFHGic34nilZjlNepAIAAADLN+RO8H2rqT6nBEumKsxnU4AjDeKpI5tS6tr6ghxxTEEOdldu3NsU4Mh2JcABABySEAeD5CIrwYRNF0YXLS31nhP5TSfxJbBRwhqCGgCna/33YJ9l6spPAAD2K/UkCRVsqoNYV3r8zDloKW3niuslzyk3n+T1KUOU+pyEOWCTIQGOuRrEhwY5bMunLdvo0Bv3sj2p4wUADk2Ig1FyArteCTDUEoIcmb++E/lccOZ7l8AGwNTGVOACAADLtKnBe936jSSlx8/USZSySZ5Tbj7J61PyXiXUsUmuUTR+0yfbx6ECHEW2801BjmzLCU7VXj/J9Mo2uqnOJdtqjo9Djq0AAHMT4mArpRKgXPgPUXuQ4+nTp83U68oFp5N4ata3DbNs165da6ZOU83btv0OAIAxhgQ4yk0kqXOZ60aSEurIZ2wKcwhy0CXbRV/D+D4CHMWQIEfcu3evmeLYZfsc2uPRPrdVAIAhhDjY2ZgwR60XSpt64XASD8zt1O8GqjkkJ8AHAMBUNgU40gi975tI8nn53L4wRxpBMwQtRK5fNzWOH6JRfEiQ486dO83UspT616WUIYGaOWTbHBPeiHLcBQCoiRAHk8nFxKYT9Jw819hQ2Xcn9aEuOqBNX0Xe48ePm6n5nHrQYE59x6EcX0/ZPrbtbdU8bwAA1KUvBJEG79Q/HCpAnM9NI2ZfkKPv5pddHbqBmmkdsleDviDHIfcx9iN1K0PDG9lOs//bJgCAGglxMKm+C6ViaV3PT3kirwGcpTN0xHyEAV5UoLQZWgEzp5rnDQCA+qU+oC8Ekd4BamhI3BTk0BsH0Vf/d8gAR1Hmb31bFuA4DQmE9R3DivQorfcNAKBmQhxMru9CLua8c2NbGk9ZEo3J+7eP41bX+htS+XAsrl271ky97tCVxX3zBgAAm2zqAbSmxuW+hk31JxTZZtOLwfo1a6ZraRjP/JVQkgDHaSnrvU3+nu321Hs8BQDqJ8TBLJZ2YbSvxlO9GDCFQzV0b7pz7NjN2ZNO33o7pfBAXyXKoSuLL1++3Ey9zt2IAABs0nc+W2MdSu5Sb+PmAS4qDea19myQeRLgOD0XgxyZTpinxm0UAKCNEAezmToAcQxOuQGc6fQ1dM+5jZ16CGnO799XoXtqd4d0/XaksviQQ1L1Vfo5tgMAsElX+KErLHFofSFmQ8VyURrG9WxAbUqQowSMhHkAgCUR4mDRlnQHyClWcuh5ZD59Iak5egU49V44Yq7vn/W1r96AlqCv55F79+41U4fRV8GuNw4AAACoi4ARALBUQhzsXY2Nkn13fk/l6tWrzRTsrq+he46wwaEbz2tx48aNZmo6fb1wnGI3n32VKzkmHzIssakXHHckAgAAAAAAuxLi4Lk5GiaPxRQNhpYvU9t0F8GU21wappfU682cshymbKjPetILx+v6erw4dFiib73MGXbKd9bbBwAAAAAAHD8hDp5LI2IaE6dqGOtr9O3rQaBLX4P1FI1affPUd5f8EH2NtMeiq8H11IffmFtfQ3fZp3eVfVkvMq/K8pjiWLnp2HCKvXAUOeb3hSWmWgfb6FsvU+13F5X9cNffIwAADqfr/LbWczzDowIAAByOEAdfksanNBJNEYrouxt5Uw8CY01R4dE3T7s0yp1CgGOTQzW0noJNDd27NijnWHAxwNEXHDklu4YINh0bnjx50kydrjt37jRT7ab6vYq8z5j3GhKgmuLYl/fIe13cDwEAWJ6um0dy/jjVee1Uch7ad1PGlStXmikAAADmIMTBa3KhfnZ2tlUDVGlw6mqc3KUBuKuxeteG6mLKxvCu5XCsDbOXL19upl63a2M3/TY1dJdtd8w6KNvvxUq77CNTh7CWou3YlW1722XbdYyMLGeVoi8qhjcdM7ONjl0HRV6TyvL83o3tNWhIgGqXkEnZTvIefdsKAADL0XctlfPRbc5p59J3Y45gPwAAwPyEOOiUxqM0bpU7lLsqFEpD2KYGp10bgPsaq0tDdVuD2fr89dk0dEE+I8tj0+fkOW3LIRUdx9owm+/V16BZGjPbtqGybrq2L/oNaejOtph1ULbdtmW9afvN+j3l4T2ibTmPWbZ5TtuyXWc5v2qb7TulTdbDxe18bHhjXdZT33Ev8v7rvxtd20eZr/V569tOAABYpk3XzW3ni/uWc9e+c9FTDfYDAADskxAHG6URKiUVCmlculhKQ9jcDZObggL5/NJg1jZ/QwzpKWObz8l8H3tFx6YeIbJs2rah/F1j5W6GNHRH2Xbb1sOm/WTT+j0Ffct5yLLdtJ1PcZw8RmO375SL66Csh03b+VhDghyxafso8zXlvAEAUJ9N5485L+wKJc8tAZKcn/Zdtww5LwcAAGB3QhzMbsqGybkbOIc2Fo5xKg2zWXa6VT2cObbdyPZ7fn7+/P2Zbzln3zmF48S2ynIfEpjYt00V8VPJZwhTAQAs35AbINIbxr565Si9wiVA0ueYexcFAACojRAHz83V+Jv3nbphco55XTdlI+0c379m6W2kxkbWU5FtN4GLqdaBYEG7KY8R5TipS+LNstyzPc4RFst77rIOMl9Zj3Mc/9Z/S1WaAwAs35DrifSGkVBFGZZvaglupOT9S69wfXJO6poFAABgf4Q4eK40/qYiYdcGsrkbnMq8ztFYVpTP2HZZ5HVZBnN8/9qVxkwOZ9cG5bL9qqTrtusxIusmr9UwP162y7Lsd/0dyHae95piW896zPqcYr6i7Ie2EQCA45PzuyHXbGVYvjIUXwl1pJQgRp/ynJTyuvUh/fqGTinKOSkAAAD7c3ae1osW9+/fX92+fbt59MJ77723+vCHP9w84tjlIv/p06erx48fd17YlwqHa9euPf/3EI2+qYTomsfMX+bt8uXLOzWC5TNi7s85NmUbarurZ33bERaYV9lHYortN5V+bVK5t/Ttv+u7pUG9bzvddLy0vc9r0zYe69t57GNbHTpfse95o07vv//+6o033mgevXD37t3VW2+91TwCAI5Nghld54qHlPPUDP3i3PSFXPO1DTmT5TQk5JJrg7a6kU3Xmhxe1z56DHUgc9p1n+GlrrqqjmYdAKByb7755urtt99uHq1Wly5dWj179qx59JIQBwCjCHEAzEOIAwBOUxo77/3/2/t/nbmRO17cfLUncCRHExmTLXwT2tGBocCjq5jJnTgxNDBGSuZoBpDgC9h4onXo4AAyDAg/QLO6AHvTjZSOHUxiR35/+oxYR60WWWR3k91F9vMABXXr7SbZZLFYf74sPn3aTDCHwemPCeK4XoI4jiOIYz6COABgW6YGcXicCgCTpREOAADAfDIQnEHNDApngPNSsv4MChqYBgAAuCxBHADMQkcfAADA8UowRwIpMkNDAjqWDOrIOpIEbwAAALRFEAcAk71+/bp7BQAAwFLyiI0EdJSgjgRalKCLEtwxJcCjfG43YKMEbWQdSYI3AAAA2iKIA4DJ+p7hG+kMBAAAYBkJtChBFyW4owR41FL53G7AhqCNw2WfDe1fAACAuQniAGCSH374oXsFAAAAAAAALEEQBwCT1B6lcu/eve5Vv+fPn9/cuXOnmQQAAADnkllQ+mbyyP/TtqEZb8xoU2f2mvn07cckAGDbBHEAMMnQo1RC5wUAAAAAAACcThAHAKNqj1J59epV9woAAAAAAAA4hSAOAKoSwHH//v3u3cfMwgEAAAAAAADzEMQBsFLPnz+vzpAxl6dPn3avPvbs2bPuFQAAAAAAAHAqQRwAK5YZMh4+fNi9m1+W/de//rV797FHjx51r+ryudvb22YSAAAAAAAAtEgQB8DKJcjizp07swZzZIaPLLMWwPHq1avuFQAAAAAAADAHQRwAG7EbzHHsY1byvXw/M3zUJIDjs88+694BAAAAAAAAcxDEAbAxCeZIEEYJ6Hj+/PlgUEf+PymfyefzvdrsGyGAAwAAAAAAAJYhiANgwxKQ8dVXX/2foI79lP9PymemEMABAAAAAAAAyxHEAcCozz//XAAHAAAAAAAALEwQB8BKPXr06ObZs2c/B1gsKcEbL168EMABAAAAAAAACxPEAbBiCeRIgEUJ5pgroCPLS/DG7e2t4A0AAAAAAAA4E0EcABtQgjmSEniRIIypgR35e/l8CdzI8q4xeCO/vS9lfwAAAAAAAMDSBHEAbFCCDvYDO4ZS/l4+b9YNAAAAAAAAuBxBHAAAAAAAAAAADRDEAQAAAAAAAADQAEEcAAAAAAAAAAANEMQBAAAAAAAAANAAQRwAAAAAAAAAAA0QxAEAAAAAAAAA0ABBHAAAAAAAAAAADRDEAQAAAAAAAADQAEEcAAAAAAAAAAANEMQBAAAAAAAAANCAO7dvda8/8N133918/fXX3bt3/vGPf9z86le/6t4BAABz+de//nXz61//unv3zh/+8IebP/7xj907AAAAAADW6ne/+93Nn//85+7dzc3du3dvfvrpp+7de4NBHL/97W9v/va3v3XvAAAAAAAAAACYw507d27++9//du/e8zgVAAAAAAAAAIAGCOIAAAAAAAAAAGiAIA4AAAAAAAAAgAbcuX2re/2B77777ubrr7/u3r3z+9///uaXv/xl9w4AAJjLv//975s//elP3bt37t+/f/Ob3/ymewcAAAAAwFr95S9/ufn73//evbu5+cUvfnHzn//8p3v33kFBHG/evLn59NNPu3cAAMBc/vnPf9588skn3bt3njx5cvPNN9907wAAAAAAWKsvv/zy5vvvv+/e3dzcvXv35qeffurevedxKgAAAAAAAAAADRDEAQAAAAAAAADQAEEcAAAAAAAAAAANEMQBAAAAAAAAANAAQRwAAAAAAAAAAA0QxAEAAAAAAAAA0ABBHAAAAAAAAAAADRDEAQAAAAAAAADQAEEcAAAAAAAAAAANEMQBAAAAAAAAANAAQRwAAAAAAAAAAA0QxAEAAAAAAAAA0ABBHAAAAAAAAAAADRDEAQAAAAAAAADQAEEcAAAAAAAAAAANEMQBAAAAAAAAANAAQRwAAAAAAAAAAA0QxAEAAAAAAAAA0ABBHAAAAAAAAAAADRDEAQAAAAAAAADQAEEcAAAAAAAAAAANEMQBAAAAAAAAANAAQRwAAAAAAAAAAA0QxAEAAAAANO/hw4c3d+7c+Sj98MMP3SfguiTv950TSQAArJcgDgAAAAAAAACABgjiAAAAAAA40NDMIFtIZjcBAIDLEcQBAAAAAPTqG+BPgrV4/vx5bx5uKQEAwC5BHAAAAAAAAAAADRDEAQAAAAAAAADQAEEcAAAAAAAAAAANEMQBAAAAAHCgFy9e3Nze3m4yffbZZ92vhOkePnx4c+fOnY/SDz/80H2iHWvaVgDg+gjiADahr9GV9Pz58+4TAAAAAFybR48e9QaqHJJevXrVLe1Dn3/+ee/nD00AALBLEMcJ9qN1RekCMCTXiN1rRq4hnJ/jAAAAAAAAtEwQx5Ey6PPXv/61e/fO/fv33fUPwEcSOJBrxK5cQxJEwPk4DgAAwCVc4rENl1gnAAAwD0EcR0igxn4AR/HVV19pDAHwgf3AgV1mgjgfxwEAALiEBw8edK8+9Pr16+7V/Ib6Lj/77LPuFQAA0CpBHEd4+fJl96rfkg0wANZlLLBvqGONeTkOAAAAzE1bEgCAJQjiAAAAAACAAW7aAwDgnARxAAAAAAAH8ThhrkltZmbnAgAAcxPEcYSh51gWjx496l6d7vnz5z8/p19jAGCdxp43/OzZs+4VketdufbNyXEAAIDDpW4O1JmlAwCAuQniOEKCND7//PPu3YeG/v8QZfDqzp07N1999ZVnKwKs3KtXr7pXH7t371736nqVwI1c9+7fv//ztW8JjgMAAMzHwPV0Q+2N2uwOpxi6GWyOfstrVeufXaoNCwDA9RLEcaQXL158cNduGkF5n/8/hcANgO3JLBAJINjtMMs1I/83NkPE1iV4Y8nAjV2OAwAAHKYWZGDgmmsxZUaaQ2dRzufTD3xqSnsaAIDtEcRxgszIcXt7+3NK8Macj1EBYFsSJJBrRblu5JohcOD8HAcAAJhu7CajQweuYY2mzJhiZhoAAOYkiAMAAAAA+MCU2QeePn3avYJtSqDSlBmTzUwDAMCcBHEAAAAAAB+YMvtABrfNxjFuaPa/pR6nPDQrxIMHD7pXTHVIoNKUwKdrlce+9D0O5pLJ48wBgJYJ4gAAAAAA/o8MRk8d4GxhNo5DB4hhiqmzcBSZjUNQEwAAcxDEAQAAAAD8H1Nm4SjMxsFWDQUoff75592rj00NasrsLLe3tyenV69edUsEAGBLBHEAAAAAAD+rzcIxNHidmTAEcrAltfPg8ePHg8ET+Y7HqgAAcCpBHAAAAADAz4EYeSREn2fPnv08eD2khceqnNPDhw97H9UylIb0ffbUNHQM8/99nx9K1xyYM7QPE8iUWTSShoKaPFYFAIBTCeIAAAAAAKqPj3j06NHPA9cJ5uiTGQgS2ABrV8vHu4FMtaAms9N8KDOX9D0O5pKp9lgcAIBLE8QBAAAAAFcuA9e1x0cUCeYYGvy8VCDHoQPEMKR2HiSAKYFMRV4PPVYlBHIAAHAsQRyMynMck9KI6ZtaMf9fPtNiw6Rse9/2l22fY7tr60lqeR9dSvZF2W99+6zsz3ymZeV3JI39jkv8lmzfIfv6EtsYZfuGtjFpdxvPfS6V7dvfpktsy6kOyQ/Mp+z32r5PWsv+3/09a/4dAADUB67L4yN2vXjxonv1MTNysFZp49TOgwQw7as9ViUEcgAAcJTbAd9++23C0j9Ib9686f7K/r4p6dmzZ90n+uXvfd+bM7169apb22neNkB6lz8lzbUNRd86kob2d9Z/6PZnWYdu9zHrSTpmXVty7HmQfT10zPs+nzT0+TnkGPatc0rKb1naKduXVNvfc8nyjzmHdlOWccj51LeMpKHfOmX7xo5nlt33vaRjHLu82vdq6dS80LfMOdPY/i/mPg5TJG8eu99LOnX/1xyzT/KbppwX+ynfOeRcvUY//vjjR/vtyZMn3V8BAJZRqxPW6tpjbc6p9fRDDNVDL1HPPKZOvLZ0TfX3sfw8ti/G8sNS+7K23ZfQ0jk6Zk3bCgBsxxdffPFB3ePu3bvdXz5kJg4+krslcgftUOT5FIkyzzIuEWme7c/6D93+r7766qDo+GPXE2Vd13Z3crlbO7//GNnX+e6l7+hJHsnvyDE8Vn5LuVN9bnNsXyy5v7PMkheOOYd2lfNpbtmP2c5Tt68FJU/Mce5NLSOvXfZTyrzkzWP3e1H2/1JlxlTlnMhvOua8yHfy3Uv+BgAAPpQ6a62+uvsYlX1jj5JI/W/Ldb/MRnJ72/+4lq2k/RlYtiptnVq/QvL52L5IfvjcjBwAAMxEEAf/RxoSGSA6ZmBmSBoo5wpUmGv7xwaYyiDWHPupDIpuXdlnpw5kFtn3OdaXaPzmd9Qa9ocqnVpz/Za5t29uJZBnznJmCTke2Y+tb+cUc+aJ7I8s6xLn3prMFbzR51Ll35znRJaRfAkAwGWlTlars04ZuJ4SyHGp9jtMUdo6QxKYMTWYRSAHAABzEcTBz8YaLKc4R6DC3NufToa+RlVZzxyDWEWWda5Al0tYYp8V5278Jh8v8TuyzDl+y1LbN5exDsKWPH36tHu1bkvlieTXpcv1tTpXPj9n+VfK8TklX8pDAACXM9ZWePbs2eSB67FAjkh9cst9H6zTWFsnARkJzDjElEAObSEAAMYI4mDS4EwaH2nA70+rmEZ6Uv5Wk46BJRvrfQOutW0e297IPtkfIBvaT6euKwN+5xqMO6epA3/ZRyUvDe3DoQbwlOXPYayDK8rvOPQ3FKf8lrHty7qP3cenSj6Ysv8i25HUt41lO5c2dVtbV/sd2Y9D+WFqXsiydcJ+6JB8PrT/Sz6fcgz6rlNzq5Xj5XcM/YYx8hAAwPlNaZ+lLvro0aPu3TRTAjnKTT5L12FhiuTFWj9MzoNDAziKsUCOnH9mqAEAoOp2wLfffnubP++mN2/edH9lf9+U9OzZs+4Tx+lbZtLbhnD3iXlluX3rK+ltg2PyuvO5fL5vOSUd+zv6lpWU/b2/zryfKt/f/e5+2l1W32/L/x2yf/a/v5sO2e41GPu9Sdn/h+SJoePVd2xKOvWcjNrykw5ZxyF5bqra9uVvh5532cbdZR6zTbt2t6cvZfmHHqf8pv3fPdXud3ZTtmEo3w5tYz5f9ldNPtO33KRjjC1vf9+UdGheGFrObjp0mfuGfsvYPj3G3Mdh19i+yt+P2VdLH4OxfdL3/4esr7b8knjvxx9//Gj/PHnypPsrAMBpptTNTq2Hp644pQ47d/34lDox12csj556HhRLngtFvtu33KRLWNM5uqZtBQC244svvvig7nH37t3uLx8arM0J4qjb3zclpUF8ir5lJi1ReaxV8pOObbCMNVCO0becpP11HbPNY/shf+/r6FhqXVsxlg9O+a1jy95Np56TS/yOsXxwyDbXlnVMHt1V8v0pyxnbf6du4+7vn2p3/bspv3d/e/P+lLxa9JUhJR2jtry+PHHKfh7Lr6cew6Hfcupy+8x9HIr9fLOfst5T5BiMrePYfFrbJ/t/O/aYjOWhU/fPlgjiAACWMKU+mTRnHXzK+pJSFzykLju03GPrw1yXWvunpDnPg5h6LuRzx+TjWnvrEtZ0jipPAIBLmBrE4XEqV6zvESTF20bNYlMGzjl1+u70n1nnMducKT/ze4dkP2XKz11Lrev169fdq3XLMa5Nzfq2MTT52bp9xvLYXDKtZe13vC1Dj/odY9PM7ue3mlqeefz4cffqOJk+N9v54MGD7n8OMzZFb5Z9bDlTZF/mOMyVH/rKlFPy6iXsTwd76n4ey6/ZZ9f8SIwp5d2hU1HvyzEYK/dq1/Rj7ZZFx173Ittfu/YdUuYBAHCY8siIWp01Tqnv9cmyanXAInXBczwmkOtWHiM01vaY+zyIqedCztEl2nUAAKyTII4rVRt0SoPl1AGnWoNnqcGaUxpZtd/bt59OGRyvrWsLA1lpGNd+RwY05xgUz/GuDWjOofZs1Nqg9hRjg5pTB8WH9nWWPcd+zjKOKQ/GAmDmygfFHJ0su/tyiY6bS5gzH9Ty6xbKrmOcq7wranky59tSwTRznA8pR2pl9jUHAgEALCH1qzt37lTbZUXqrUu0f1IHnNJ2nrveDEUJ3rhEINOuKefCVvohAACYhyCOKzU06DRng6HWOEkjak5TItrHTOlYiDkGRWvbO/e+ObfazBBzd8ws2bitDSjO9Ttqg5ovX77sXg2r5ZV79+51ry5jbKaf1jvoTp3FpAXJW8cE4AwxCP+xWnm3VD6vXaumlBvHmOt8qM3qs9S2AwBcoykzDhRzt9P3Zdm12RNbbh+WQBhpOLUubbYpgUxz9ocOST7P+TZ0LmyhHwIAgPkI4rhCacwPmbPBUGuEz/nYkLkGKqd0Gsy1rtoA+5z75txqd6Vn3y3RMVMLiDnWOX/H0KDmlE6GVqWja2j75zqHlrRUXj23JTqAasu8tkH4WjkRS+Xz5M3k0T457+YOppmzU731cx8AYCsyGD1UZyzy92MfEXqMbNN+QPIa2oesW/LX2LmQNs/SARxFzre+c2HpYCoAANZHEMcVqg2uzt1gGBpgn3pHyBS1O3sPNdawm2tdW22Y1QJQlrqjYIkOn3P+jtr2nzIYe8lgoNpg/rk6Rk6xhm0cs9TdbFnmUDm55sCjY9TOsf0OubnV8ujcwTRzz+oj/wAAnEfqjEN1r3MOWu9KeyKBI1l/tm0LbS/aVzsX0na7RCBRzoWsO9u1VPu9NXmkTd9sLpdM2qEAQMsEcVyZ2qDwEoPstcGfuR4bMmdjayxIY851DTUg13w3ey04Z8kG6VCw0LHOPZvIlvJCzutaoFjr1rCNUyz5OJ1aOTn3LBAtu1R5Vwzl1bk7oeb+LbX8M1e9AACAd/YHr/P6UoPWu7J+ARycU9+5cM6ZaPpk3dmuS5+PAAC0SRDHlRkaFE7jZYmGS22Zc8wUsNsAW9o517VGtcG3uYMsllT7HUvNJjI0qHnKYOylAkCePn3avfrYGjrp5ppt55KWvoun1sG05iC0Q7RQ3p0jmGaJ37JkgBEAAB8r7bDU7fL6koPWcEnp00nfXgKZ1tA/AQDAdRPEcWWGBoW3MHA5h9rg0tz7aImB+0uqBeUsPWg3510Ltd/RWmdXbXuSjx4+fNi9u7y1BEG5A2aaoeO51vLrUJcs74pz5NUlfsvSwZ0AAHwsMw5o6xwu+yz77pJp6FGNaZP1ff7caU3SFhHIBADAWgjiuCKXmqZ8aLBvjju2BZ+sw5oayJeYSaA2UDp23taCIy4RyLHmQLG1BJqMOUcQwbWXvbVy4pzl3ZLX19C5CQAAAAAA5yeI44rU7nC9xB0Za7tj+1x3V6/VV1991b360JoepRJD+fJSv2PszvSxR7yUQI5zBHHVHuHg/DmfSw+8Xypg8JxaKyf2re36CgAAU2Umhb4ZIQQgc62S9/vOiaRLGDpHT0nnnpFGeQIAtEAQxxW5xAwDsCZrHHxOw3JsBokM6N6/f//nYI5aoMWS1tAANrPPdIJy2iDPAgAAAADA9gji4Gd37txZLLkjePtqwQ9bGezNTCN9+XuOlACLU+QuhymPAsm5mN+xVDCHQDGuwTWUdwAAMFXqx2lfJqWtWVJf23c/lc+W71/DrH5ch2PPi/1zwnkBAHC9BHEAbMDUQI4owRylg2BpU7cLmI+OPgAAllIGptOmzE0JaV8mpa1Z0hTls+X7WVYZzDZ4zZqUgItTz4v9c8J5AQBwvQRxAGxEAjmePXvWvZsmnQPpCEhHg44AWBczfwAAcC67A9RlYHpJu4PXBq5pVfJmOSecFwAAzEkQB8CGPHr06Ob29vbg2S/S0ZCOAMEcAAAAFLuD1EsPUA8pA9cGrWnFbkDTpTgvAAC2TRAHwAZlVo5Xr14dHcyRTgAAAACuUwaFLz1IvW930BouoQQ1XSqgqY/zAgBgmwRx8PMgb+7cv0SCtUhARF8eXjplZo1jffbZZz8Hc2Q5hwZzpBMgd5YAAABwXdIWzKDwVGlv5tGeSWk7T2k/l8+V7x3SZm21vVoG+OdMQ8chQQR9nz81MSx57pCgJucFAACnEMQBcAVKMMchnQDpFNIBQJ/Xr193r7ik2nFIEBcAABwqbcApswyUAeq0M9PezA0ISamHTqmLls+V75U2axnAHqO9yjk5LwAAODdBHExqhMCxtjLYu5XfUToB0gEwJZhjjg4AZcx1mdIxtVWCWwAAWLMpA9X7A9RzKwPYZeC6xoA159DaeTEWzOG8AADYBkEcV+TBgwfdK5jXVgZtr2nwOb91ajBHOgDyPOQxypjr8fLly+7V9bmmcgIAgOuRR4HUBqrTbswA8hID1ENS9x4btM42Z9thCWMBHJc4L0owR60vx3kBALB+gjj42ZQBWjjGOQZ7z5F/tzpoXYI5xgI5nj592r06jjJmW4Y6saZM77oFQ+fLucuJoecxX8txAABgPkN1y0j9N+3GS8mgdW1Wjmy7NidzS54aC+C45HlRbswZ4rwAAFg3QRxX5N69e92rj5kCnlONBQEsac78O/Q7ag33LRgL5Jjy+5Ux10En0LCtlxMAAGxT7Y79Sw9UF7kBoTZg3XKbM9udmRNaSoyr3czS0nlRC+LXFwMAsF6COK6IKeC5hLUNal7zI0HGAjnGpuKslTG1u7qY19JTptY6gWqBPFtSKyfONWVtLZjmWo4DAADzqM0o18JAdZE251CbVZuTuQ31Z7USwFHUHuXivAAAWC9BHFdGY5elXHJQc878Wxv8PNfg7CWdGsRSuwPEDA7nsfQjPWrn27UEC9Y6yc71SJVaMI2gTQAADjE0WN3iY/oeP37cvfqYNidzqfX/tHjzT22WGucFAMA6CeK4Mi3cPcw2XSryf+58e+2zSZx6B3/t+7WpSJnPkrPf1Dp/WuzgXdJQUGT2/9KdZFn+UHl0bccBAIDT1OquLc7wVmuze3QE51Dr/7oU5wUAwPYI4liJuSrcpthjSac8iuNYS+Tb2iCoYKe6WsfBOQa3eWepfHr//v3u1cfm7uBdMhhlDrWgyKUDlmp1ghY7FAEAWKdWZ3ir9T0AAABsgSCOK1QboH748GH3Cg5XG9RcIthiqfw6Fux0rYEIUwfpa2VMLQiA+SyRT2vLyzFvtYN3KSknarNxLBVIk+MwVJ6ahQMAAIA5pW17586di6ahvqS0vfs+f+4EALAEQRxXqDYQu/Sd8qn4X+sA+DUYuwN8zqCL5KMl79Sv3dmz5F32+V1TB39bPZ/OmQ8YNmc+TT475ywca1F7HvdSAV+142AWDgAA5tRiezNan7UPAADgVII4GjN0F+2csxjkbumxO+WXaKhn4HbO30GbankrHS1zDOCPDSjP4cWLF92rj831O/aV3/Xy5cvuf8bl83Pe8V8b+D9kpoVXr151rz621P7jQ+c6306dhaMWeDBn3l5Cfnct4Gvu62nteNbOOQAAOMZcj/adU+ttBLahdqPCEn2mp6qdF9d60wUAwNoJ4liRORsJY3frzjkwnOVkajl3SlyH5K3aoOapA8vJT/sDyks9QmBKQMoc52WWkWXVBsprEhw1x7bk+0Pn6aH7eGxwe4n9x8dOPd+yb2v5Msd4ydkfDgloupQEfI0Fcpx6PS15vHZ+nhJIAwDA9arVI1u8EafWRjAzHXOpnRfH9t0sqXZeaCsCAKyTII7G1KKj00iYY8CzGLtr99SB4RK8YfaN61N7xEAcM4BfBjH389OSg8hTAlJOGaAtvynLGBqcnapsS5Z3jL7gmF3H7OOxwe1T91++N9f+25L9gJvsm5TFh+7nsTwRY+f6VEP5JNt+bJ4+p7H9cMr1tByHoTy+ZBkIAMB1qAXtt1QfT924Vi+GOdXOi0Pb10vKOeq8AADYHkEcjRm7e70MePYNBOX/DxkkyrrGAjnSCMg6ywBglt23/Pxf/l62QfDGdTskbyW/DOXpkq+Sn4YGMWuPPZnDWCBCJK9nG8d+y+55UvtNp8jydrclqc/u9oydr6c8puGQ/Ve2t2//Rdne3TJm7v23BUPBR/v7ed8heSKSL+a6o6cWBJFjXPLzvt08cUnHlHl9vyfKb0oaOw45zkuXgQAAbF8tKLjUxy8t9eRa3XiuAHMoajfaJS8mT15a2o21fpE5zouUD7e3t1IlAQAs4m1Fo9e3336bGsgH6c2bN91f2d83JT179qz7xPFevXrVu+ypKd8/xKnrOzQdun3Rt5ykOfb3rtq+OGa7a7LtfetJ2oql89buMen7e9JceeTzzz/vXf4SKeuaopaH5kpz5ftz7L+p+r6bNHd5smvu833K8pbc53OXh3HK9s5xzsxh6TJvN039zWOW3id9+taVtOQ5uBY//vjjR/vlyZMn3V8BAJYzVpdN/XOJdsAUY22FuerGpxqqW19qv9X0bWcSH6q1l5IumffWcl4AAPChL7744oN62927d7u/fMhMHA3KHb1vGwndu+VNuYN4Lvldc925TfuWyltvG6KzzgIwxZQZJeaQdbRyB9Gc+zj775zlGsvk2SXPvS3MKJH98rZutXhZkWNgBg4AAOaUumytHltmlhuaUW4JWVdmAanNNJBtVjdmKUMzXRbJm2XGy3MpszY6LwAAtk0QR6PGGglzKwNPSw2yZrlZfm2KTrZp7kHN5KU0RJcYRB6T9WbwdIlzM8ssA7NTf9tS5UQ5X+fex9neJfZf2Xd8LPlprv19jnNvK8cx+yn7a+68nmVmH12i/AMAYPumtB92H9O4xOMkyuMFy6MFDVRzaS2cF1luAprKeVHjvAAA2AZBHA1LhfvcA1plkDUDRadKo6EMBgveoOTnsYbvkDJ4eem8lMHT/Ja5BmjL78oyjxmYzfdKANap23OO87XsvznKmfzebO+x++5alP29hnMvxzHHdI5z69Kyv7Lv5zo3yzGQ1wEAWFKpw47JQHJm5sigchm8LgPYJdWUz5TvlQHqLHNskDpSx862wjkkr01p1+2eF8nT++fFmKHzIsutBTQVzgsAgO24c5vRkh7ffffdzddff929e+fNmzc3n376afeOc0oF/vXr170N2dKIePDgweyDbGW9L1++HGws7DZisg337t0zyMSoNEaTr6IvbyVfrSU/jf2W2D1P85tiqd81dXuyLXHpfXxIOaOMeSfHeKhjc+Cy/n+s6dwr27r2MqLI74kp+z/k9evzz3/+8+aTTz7p3r3z5MmTm2+++aZ7BwBwHmmnZTC6RQkyOUeQ+aFq7bS1GGtPXjvnBQAAp/ryyy9vvv/+++7dzc3du3dvfvrpp+7de4I4AGBlTgniANoliAMAaE1LgQkJeG55lgFBHNehdqPdJbR+XgAA8KGpQRwepwIAAAAAfCR39mdgf8ojVpaSdWcbDFTTgsyWmPNijsfEHiuBG84LAIBtE8QBAAAAAAwqwRxl4DqDyEspA9RlkNojImhRCebYPS+WtB+44bwAANg2j1MBgJXxOBXYJo9TAQDWJo+WiDxeIl6+fPnzv3/9619//nfIbhDIgwcPfv733r17Pw+Mr5XHqVA4LwAAGDL1cSqCOABgZQRxwDYJ4gAAAAAA2K6pQRwepwIAAAAAAAAA0ABBHLASufP+zp07zSQAAAAAAAAA5iWIAwAAAAAAAACgAYI4AAAAAAAAAAAaIIgDAAAAAAAAAKABgjgAAAAAAAAAABogiANW4tGjRze3t7fNJAAAAAAAAADmJYgDAAAAAAAAAKABgjgAAAAAAAAAABogiAMAAAAAAAAAoAGCOAAAAAAAAAAAGiCIAwAAAAAAAACgAYI4AAAAAAAAAAAaIIgDAAAAAAAAAKABgjgAYGUePXp0c3t725sAAAAAAABYL0EcAAAAAAAAAAANEMQBAAAAAAAAANAAQRwAAAAAAAAAAA0QxAEAAAAAAAAA0ABBHAAAAAAAAAAADRDEAQAAAAAAAADQAEEcAAAAAAAAAAANEMQBAAAAAAAAANAAQRwAAAAAAAAAAA0QxAEAAAAAAAAA0IA7t291rz/w3Xff3Xz99dfdu3f+8Y9/3PzqV7/q3gEAAHP517/+dfPrX/+6e/fOH/7wh5s//vGP3TsAAAAAANbqd7/73c2f//zn7t3Nzd27d29++umn7t17g0Ecv/3tb2/+9re/de8AAAAAAAAAAJjDnTt3bv773/92797zOBUAAAAAAAAAgAYI4gAAAAAAAAAAaIAgDgAAAAAAAACABty5fat7/YHvvvvu5uuvv+7evfP73//+5pe//GX3DgAAmMu///3vmz/96U/du3fu379/85vf/KZ7BwAAAADAWv3lL3+5+fvf/969u7n5xS9+cfOf//yne/feQUEcb968ufn000+7dwAAwFz++c9/3nzyySfdu3eePHly880333TvAAAAAABYqy+//PLm+++/797d3Ny9e/fmp59+6t6953EqAAAAAAAAAAANEMQBAAAAAAAAANAAQRwAAAAAAAAAAA0QxAEAAAAAAAAA0ABBHAAAAAAAAAAADRDEAQAAAAAAAADQAEEcAAAAAAAAAAANEMQBAAAAAAAAANAAQRwAAAAAAAAAAA0QxAEAAAAAAAAA0ABBHAAAAAAAAAAADRDEAQAAAAAAAADQAEEcAAAAAAAAAAANEMQBAAAAAAAAANAAQRwAAAAAAAAAAA0QxAEAAAAAAAAA0ABBHAAAAAAAAAAADRDEAQAAAAAAAADQAEEcAAAAAAAAAAANEMQBAAAAAAAAANAAQRwAAAAAAAAAAA0QxAEAAAAAAAAA0ABBHAAAAAAAAAAADRDEAQAAAHABDx8+vLlz585H6Ycffug+AdvXdw4kOQ9Oo3xZlxyXvuOV4wjX4vnz573nQf6fOmU+wPYI4gAAAAAAAAAAaIAgDgAAAAAG7+LcQnInKgAAAGshiAMAAAC4Gn0D/EkAAGzf0OOLWkqCTwEQxAEAAAAAXK2+AbTWkgG9D7U0COvYAAAwN0EcAAAAAHBl+gajkwAAALgsQRwAAAAAAHCEzz77rHsFAADzEMQBAAAAwM2LFy9ubm9vN5kMsgJM0zdDzxrTlh9z8/Dhw97f3Ep6/vx5t6UAwLEEcQAAAAAAALB5CezsC/g8NA3p++yhSfApAII4WIX96OItR1LDoZwfAAAAcLy+AbRD06tXr7qlfejzzz/v/fyhyYDeh+YahJ2ahjx79qx7BQAA8xHEQfMyQP3Xv/61e/fO/fv3TcsGbzk/AACAcxuaxn3JgPJLrBMAAAAuQRAHTctA9P4AdfHVV1/prOGqOT8AAIBLePDgQffqQ69fv+5ezW+o7WN2AliPtQZj1bbv3r173SuAbUoZ2Fd2p0wHYDmCOGjay5cvu1f9luwggtY5PwAAAIA1GLoRJY+haT0Yq9a/ssVAsr7HybSc8siia/PixYvefXFIGtpvOSf7Pn9IevToUbc0tiDlXN8jw1KmC+QAWI4gDgAAAAAAFpG7uDNj6L4MIq8hCKJv2+PZs2fdK+Da1GboaX12oWOkrO4L/EkgxxZ/L0ALBHEAAAAAV08HNMAy7t+/3716L4OBmU2gdbVrw/6jVPoeNzA19e0joF21GXq2Ojtyyuy+QA7lF8AyBHHQtKHn7BZzTs2WRlmmdjQFGGtxzvMDAAC2IG0+gCUMDdr1PULkmgz1sz1+/Lh71banT592rz62xUepANOMPeZ6q4bKbmMqAPMTxEHTMgg99Hy+of8/RAncKBHvQ9MjQouWPj8AAOCabPWuySXs331eLDWgMXQnvHYPtC19bn1BLHkMyRoCIFL2DAXheJQKMGTLYwwpu/vKv5SVgqUB5iWIg+Zlmq7dikE6afL+1CkXU6kQuMHaLXV+AADAFtWCDLQNgVPUypBrHdjq2yfpt1jLzKG1WTiGgtmA6zA2y1LtUUxrN3Rjobo0wLwEcbAKqRjc3t7+nDI4vZbGHpyD8wMAAKa55g53YDljZcc1Tru/9seo1GbhyOClR6nA9ZoSmFcLAtsCj1UBWJ4gDgAAAGDzdLgDlzIWQLY1QwEQawp+qF0PhgYvyw02x6RXr151SwFaN2XGiZSBWw4OTlneNxvH1n83wDkJ4gAAAAA2b8qd8DqepxkahF1qoPr169fdqw89ePCge8WhavncOXC4oTy665oeqTIUALGWR7/mHBgqz8zCwVYsdc3eukPK8q0HBw+V6YKiAeYhiAMAAADYtHS4Tx2saKHj+f79+zd37tyZnIDLmnJX9pTPbMFQefvs2bPuVdsSwJEyeMhaHgcDx5oSlHbNDinLUxZeOjBy6Trl0Gwc1xS4CLAUQRwAAADApk2ZhaNoocMdlmaQbj6HDFRdw6DWUHn76NGj7lXbaoF8CUQxCwdcr1oZ3hfMELWgsC0Ymo3jkLo3AP0EcQAAAACbNXRXeNQ63AVycK0EeBzmkLuytz4bx1B5u5ZZOGrXi1hLIAqMUcc5XPbZUBmeMq42S8/Dhw+7V9tkNg6AZQjiAAAAADbplA73a3uedwYY+qbVHkpD+j57aho6hvn/vs8PJYNW77lDdh7H5KktD+ateRaO2vUiXr161b3avr7ys+VUC7zhcK4P/YbqhQlgSBmXWXqGAtaSR7dcBzEbB8AyBHEAAAAAm3Rqh/vW75yEPrWBbD40NE1+ypihmX62OpiX39Q3mD60H1qSba898iDXCY9RYUtqMy4JivlY6oND+2U3IDh1y6Eyb+uzvPX9bnkJ4DSCOAAAAIDNmaPDPd+/RCBH7vi+vb2dnOBQYwMrWx5omkttmviUMQ8ePOjefawWMLBWQ0FzQ3dot2IsgCPXhzXMJAIsYyhALVI+7Ad41WZ5u0Qgx7nqlEPXPAHRAMcTxAENSQdAUio3fdMD5v/LZ1rsUMk2DW1//q9s/6lq6ynrKvuJ8ynHpO+4lGMyR76trSepHPtLnSO7+XNoG5Pm3CdzGNvm1ra3T9n3SUO/ofyOJABgu3LNP6TDvTbIeKlADliKuvDp0vYYmrGklDG1ALHYWrnSV+bWfn8LchzHAjhaD0KBY4zNuHTodWKoH+bQ1NpMUGNlRF/5kPK/9vilSwRynMNQsNtY0CgAFbcDvv3224TdfZDevHnT/RXOZz8flvTs2bPuE8P6vjdnetuY69Z0miynb/lT0ttKYbeUeWS/9q0naUjtO30pv3fK8dt36HqSjl3XWvT95qRjf3PfspKGlpf8d2j+zbIOzbfHrCfpmHUdI+s55TxOOte27jplu/PdPvn/vs8nLSX7rW99U1J+P7Tixx9//CiPPnnypPsrAFPV6iO1a/9YnWKJesNQXezc9cI4tl64pnSJ/dqiKcd6qL6/hL71J7V8vGr7cHe7L1GuFOcsX4bK3XPmo0ONHZukc+bBoe1ZMo8M6duONaZzHr+16dtfu+nQc7dW95ojXaIsGSsjxvLXqd8/1DnL/CFrvBYAXMIXX3zxQTl59+7d7i8fMhMHXFDuukiU8SkRqYnezTIuEcGbdR4TJZ3fm+9Mvevk2PXE7rq2GOV8SdmnyX+H5t8cj0Oizo9dT5R1LXWnWbnTIOs55TyOpbd1V/Z99usp253vXqrsKUrZkP12rPz+LGNqeQQAtC11qdRThtSmuB67czL1hi3XGXI36e1t/9TaW0n7M7BcqyltgNp5dO3SDhnah5/vzfST18+ePevefSzLuWSbai4vX77sXn2o1ceQZJ+PtSNzPVBmfKivXG05OX79ppQ5Q+f0NRl6RFTsl/V98vd8bkjKoC2U/7uGynz5CeA4gjjgAlJBy6DhlI6Tqc41+FuUgfVT5PePDQLnN526nsi6tlg5voS58m+OR60TPOvJ3+c4T9IBOWeH+27wxtzm3tZ95dydq/wZO45LKb9jLtkfWaYyAgDWK9fyWv1syoBc/j4WyDHWhoGWHdJvIJ9/LPuk1g7pm1p/7LEqWd7a93Vf+7L2my9p7BjGMQEcuQbl+nBsmrN9CzWvX7/uXg2bq89ojVJG5Hwe2gcp26Y+Zimfu7ZAjj7XnJ8ATiGIA85sSmPxWEsP/ha1iuwxhiKbxzphj6FRfJq582/yUV9jpaxnznyWZc0R6JRtWyJ4Y1e2dYlzee5zt1hqe4cs+TuupQENAFszVj/InfBTB+TGAjkidYZzBtHDXA65G7Z2F/K1qrWHa+XGlgfyhsrCBw8edK/akWtF7RjGMQEcsCZT+7SusZ4z1h95SABHMaX839K+rv1WAA4jiAPOqFQEa1LRSQfj/hSAaUQm1abhjFQyl6z45Tf0VWSzXdm+/e3O/49V3rK8/QHg/IahCvMp64pzDjZvTV8nXi3P5v/H9HVWDZ0np64rDdVzdIyV7ezLp/m/pCnnxZzbOiXwYcp2D+3nLPscjc4pv6P2G/K3sX0/Vk4DAO1IfWmsfpBr/6FT+k8J5ChB9OeoX8Jc+s6VofpxPnvJ/J16ed+MBbW0ZHu/tuzsw7GB/2u7I7ulR6lMuVZEyn0BHGzZIWXMIUF/Od/3+2COSUN9TueQfVPrD0r5fWgARzFW/m+pTjkUwHeNQUEAJ3t7cez17bff3ubPu+nNmzfdX+F89vNhSW8rdd0njpPv9y33bYWq+8S83jYEe9dXUtabz0yRz+Xzfcspaeqy9g3tl6S+37DENvetJ+mQY77U/mlN329LOvb86FtWUpa3v0/zfqpavkraXVbfscv/HZLX9r+/mw7Z7j5Dy89yD93vY9uaNIe+fbqbDt32bPfQMmvrOtXY7zjkNxySJ+Fcfvzxx4/y4pMnT7q/ArBv7HqedOo1vVbv2U35TD57qKFlH7MsGDN0zuT/a39bWt96j01L1ePHyoGpprQB5zr/z1W+DK2nFVP2edKp+2UsjxyblsrTNX3bkcT6Tak77aa5y4sxl7oWTTl/59gXU/b/sb/1XGX+FH3bcYmyDKBVX3zxxQdl5N27d7u/fGiw9iWIg1bs58OSTq28DVWalqhQjDUYj13nWAXzGLXK5P76jqkE1ra57Ie+vy21rrXr+21Jx54ffctK2t+Xx+y/sfMgf+/Lf0ut61h9yz6lPFpyW6N2Tiedci6Mbft+OsV+HtxPx+ynse0/5bjCMQRxAEyTa/hY3SDplHrOvinrS0r94ZB6ydByj6nbwJih/Fb0/S1p6fzYt85j05znfTF2/h+6f/L5vuXspjl+x7nKl751LHEcjjF27JLymTn2yZR1HZMusS/7tiOJ9es7rklDfUfnzn9D27FU/0zO/Snn7pzl5pRrQNKhv3nod8xd5k8xtC0AvDM1iMPjVOAMas+RfVshW2wqtrmnKduddvJtBfCoKSZrvzXL75uedKl1Md3u/kqeOybP5hgmvw/JebL/XM6l1vX69evu1WmyfW+vpSdNE5ttTR4fcuqjPWrPOj12/xZj2z6XTCdZO2dzDI4pI8a2v7bvAIDLSHsh9aOx+vyp9Zx9WVatflmk/rC1RyKwDUOPLM25Ugzl8bnaT2s09giOY/orprSjss6+/pHWDJV1Q9Ppn0u2K4/XmXqtOKY9uS/LSdv02HSOtjXXbeh8Tdk/1K81dg6t2dQ65THlfM2Ua0CkTplyDIDrJYgDFjbUURJpLJ76jNBax+RSA5Cp3J9Sea11fu7vq+yjpdblWXzHOaUzvJbf+86Tx48fd68OV1vXHOdGGlyn7ItdY3n82EGAWqffXAMbUxufp6gFspy67my/cgIA2pdr8pQBuZiznrYr9cspdY985pQ2DCzh5cuX3asP7Q6237t3r3v1obSfrjEwaSyA45S+kSntqKw75V7L+34owGcoLy0t+6oMzI7J8VviWgGtGjovyvm6G9S3aw0BZYeYWqfM/liqTleuAUP7vKj1V7VsKJBPHxvAYQRxwMKGBovnGkCNWsN/icb+qYEn+f5YJbU4dR/VtnWoE4thczQexjqqilM6xIra9p5ybizRiFuiYTbUIJ2z/Insi6UalrUG3lzHoVYmKScA4PIyeDA1CHeJetquLDt3TA/VHeaowy6lDFpIw2mrcuz72gbJx7tt5lq9vjbD6FJyPu/PVjCW5mrnjAVw7O+7Y2R/T2kfZ+C11UHUofbSucvB3eCNsYHZyH4/9fjBmtT6wMr5OjTwPuWcWotcD6fUKUu/2ZJlWZaddQxdd+e4zlzKpQL5ALZGEAcsqNbIPmWGgX21CuXc055O6WCYYsrUmnOta6iDdUuNkHOYq/EwpQE017pqjYZjz41s/xKNuLm39VzlT7FEwzKdDLVAuDmPwzV0VgDAWqWDe6hOX+TvGcBdop7WJ9u0316Zqw4LcxuqU/fVgYfaJakXL3GTSGvyGxPQU2sH5FyfK1gkZVbKrrEyLtuT7XIX84cODd7Ifk7Zfa5rBbRiaBaO3QCC1GGGyqJWA8kOVfuNxZxl/BTZppRLu9t17m2Y21AZ60YpgMMI4oAFDTUgUxGbu8E4FLU79Y61qeba7ikRuXOta0rACOPm3I9jDaa51rWmjpnath7TyDln+VMMlUPHqgWvzB2IUhtw0VEKAJdXC+RIHeQSHd2pU2XwNetfe2c72zU08JY821cHTr4eqtcPDQJuRQICxn7jUud6rYzblT6eloJp+tqdU37HqUqwzdTgjcggafbzmvoJYA61MmP/OlC7waWlsucUtfK2lBPnlnIp61WnBGCXIA5YSG3Qb4m74GtBEXNVsuccoB1rNM+5rnPsm2tQG+Q+1FiQxpzrGmqYtRj9PVdnV638WTKoac7jFueahaNYU14BgGu03+me1+lsn7sOcqisX2c7LUp7d2iAu9YvUTuntnI39q7spzKbQ03KnCXP9f0yrs81zyKR45S2bgnemKpcKwRvcK2Gzpe+vteU/0Pl0CUeq7WUvjrlOWd0G7KlOmVfPpoadAfAO4I4YCFDg36pwCxRIawtc65HqkyZPWMu51wX44YacEs457paM1eARS3o4NKDHFPVAqyWCISL2h0nAEAbSsd2Bh7y2qAcDBsauJvSL5FB7z5buhs7EhQwZTaH7LNzDKxlHUP7fqn+pLktdeNAjtOhs81mX7pWzCcBNGtM1zy7Zu23D/UP1fpGtrQv9+uUANAaQRywkKEOgCXvgl+b2mD9nA3s2rLmCnDhMLUgnbnPkS0MzB+6rUOfP0eAzFyz6NTOTR1wAHDdcqfkWgJTW5J9ln13yVQbnO77/LnTltRmzJgyWJU691DdPoPpWwjkyG+YEhRwrgCOIvs++XG3/XbubZji3HlgqPzok7ybfajtyDWrlXG1vpvUF4b6jw4NpGpdygl1SgBaJYgDFnCpzoyhCvZcjwLQ+L1ego+2YU3H8RKPMPHoJQAAtiB3Sg8Fdh8SdF0b2Bqa5WNN0scxFhhwyeCJrLdsX2sBHJcw5XiV4A2DslB//MnYOVKbAXWLj9VifkN9kPrXAKYTxAELqN1BfomG5JpmHIihYBSuw7U8SieNlnSuJqUBnDTHHQ21qS3XtG/n6HSek1l7AIAlZGA2A477SQA9x6rdeZ229qF9ErVB8y0M5NUCA/L/lw6eyPalTFiTJdud2R99bULBG/ChXAuG+lXGgqEi59pQ/2yWu6XHqmyFOiXA9gjigAVc4g5yoD19gRrlmazleb5JaQCfI9hqLQ03UfkAAHC41KNrM2QcE5CQNsTQgF/aMFsJ5NgfrMxvNvBVd6lA9wRq5Hgl5ThlkFLwBrxXuxYk4Glq2ZZrxlAgR/qy9N0AwLIEccCZlQHcJdI5BoGBfrvBGuWcvESgxtaDyLIvd8u9OdMWpoQGAE7TF4S7W7+rpfLZ8n2DG5zTWADHlDuvh/QFORRbCeQog5VlRgcBHG3L8Upa6jjlfOq7HvSV/fupfDapfH+K/Jbdu+dLOib46lR92zFHGipHSjDOUunagnxq14JD90XtsSpZj7rOsL4yJKmv3NhP+2WI/QxwnQRxAMAJ0phKA2s3WKNFQ50lAADXrnSup07XF4Q7tX5XPlu+n2WVzngd8Czt6dOn3auPpS1w6mB37Y7s5PucQ2uX32hGh+tVBlzLtaDvejBF+WxS+X65FpRBWVhKrSw+Jpgv147aY21r155rpE4JwJwEcQDAEUqjLI0pAADWZbeTvXSuL2m3A17nO3NKXkpeHsrDCbyY607+2h3ZWX9t8BBatB+4sXT7vgzKZn05X7JumEvtWnDIY1T2lUcY9VH2q1MCsBxBHABwgLFO0inS+E1KIzqpTB1au7sBAIDTlcG6c3SyDymd7zreOVXyT/JSLS/P+SiGDADW7uQug3nyNa1LHj1X4MaQnC9ZdxmIhVPU+qnS/3TqLEPXMBvTodQpAViaIA4AmGhKJ+muvkCNpDR+y1S9SadObQwAQF0ZsLvUYF2f3Y53OFRpm9QcM3X+mCmBHNkug0m0KoPNY+fOueV6IACKY9UCOGKuYL6xQI7Us64hD6tTAnAugjjgjFLRLYO4507A6cY6ekrQRjnvBGrMbzcY5pzp1LtWAIDLOXTAbj8Qd0r9o3yufG9okKNPGbxrTbnDdM40dBzK4M/caatybMbydPLjUm2QsUCO2PJgUl9eS7q2Afh79+51r9ahDLxOvSkjyvWglPFJfdeA3ZTP7F4Lpl4PSgBUi9cD2jUWwDFWVh+q9litSB7eclmoTgnAOQniAIAJxhpBaViVoA0AANowNrhRlE72dJ7vB+JOGQgvnyvfyzJKR3yWOybbqNOdKZJPxu7+TX6ekm9PkeWPDSyVwaRrC264dq9fv+5etSN5cOrAa8rsMtBargeljJ9yXuUzu9eCcj2YOhjresBUY3Wc5OMpefYQWV6WW7PVYKSx/V2oUwIwF0EccEZTKnpAm8YaxmlYtWwr5U+LHYIAQJumdLbvd7LPrXTCl873Gp3u1GQQekqezuBR8vM5ZD1jg9LZ3qdPn3bv4PymBHAkH6eMTlmdMnvKQOuhdgdjp5w3rgfUjF0Pkp+XyMeR5U6t02wliG/K9Ved8kMvX77sXn1oqXwJsEWCOGABDx486F4BW1Br+KSRpgEyL/sTADhVHuNQ62zPAFoZrDuX1HGyztpdlNlmzzOnTwIhxgaQzhnAUWR9tcGkS2wT57GWdttYAEfyb/LoOX9POW9qwRyuB/RJUMTYY4GSr5bOz1n+lECCQx490ip1SgAuRRAHnNlWIpDhmgw11tJQO2cjbYpaENk5yp+hSPu5LL18AGAbao+buPSgcuqPtYGPbLt2I/uSZ2sDvpfM10ODeZc+17iMltpstQHM5M/k23MGb+zKesfO67FHJ3Fdkp+nzCpzrnK3lP21PDwW6LEG6pTHqQW+ADCNIA5YwL1797pXH/MoANiOuWfd2UKAwlyNtKFOAI1AAGDM2KBdC4PKQ4PeRcvtxmx37v5sKV2LoQHfFvL1fp5u5Vy7Ztn/fefL0kELrbTZMnBZG3x9/Pjx4vtiiqHzunAnPUWtvzkuUe7mHBrKw7kmtHCOnUKdcl61sg6AjwnigAWsvYIKvLe2uyC3EkTmsVQAwLFqgbEtdLYXaTcOdWa7+5oh+4NlGbhpJV+XgaRsXwbI2b6WB+Rq7d/WBpdr57DZKClqg/V5rMYlrwV916Yt9I+rUx5nqC9VXx/AYQRxwEJaqjgBx6t1/IzdBXGoOe5YqjWSly5/Hj582L06XW3fuhMJAKgZqlPVnht+KbWBbo9UYUgZLGtxkCzbk+3bwuAd44YG5Foov2qDry3mz6FrlNko2ZW8W4Llirxv4VG/LV+bjqVOCcAlCeKAhdQiSw1AAvvmLBdqjckly585O5dqDX7BcADAkFon9dwBuHOo1XnWNIsa5ydQAurWNPgatWuUAVh2pexvNWBiS9cmdcrjDa2vxf0G0DJBHLBnrkHIWgS0AUhg35xTpNYaRUuVP3POwlFcKhgFANimVgcVhmZxBGjdUNtTEBosTzDf5ahT1g31ccqvAIcRxAELqg1ALjHgCcyvFhAxV8dUAhLONYtFzB0AkbsT5tz+YiwYzt1IAAAAlzPU9nTzUnvu3Llz8TTUb3D//v3ez58zuVEE5rNEHyHANRLEAQuqDf6mMrPkAGQaHwY4YVlzdEzlPF2ig6sWRDZ3AMTTp0+7V/Or3UWw5Hqzf3TiAMC2tNo+0tENrJnZhIBro045bGjftPooK4CWCeLgatXu8J5r4C53JNQqKIk0X6LSl1k+3PUA8xib1eKUczjfTTmwhFoZF3OVPylvlmwkZnrQIVnvErMaleMy5yNuAIDLa3F6f0GjwNo9ePCge/WhJfq7DjEUXNJqO88jaGA91CmHDe2b2s2uAPQTxAE95mzQTRlInauSleVkCkB3csG8lgjGWjKAo3j16lX3qt8pgRz5Xl8AxxKR9bVllkCOOToIy29a+rgAAMupBeC2GOhea3uOtSUBWjA0MHfpQc6h4JK0IVsLoEtbtHaNGru5BJifOuVxhvaNcgzgcII4uGpDUflz3909NpCays0pg5AleKPFCiRswVi0+KHBEDln9wMFUh7NHQCRBtLY1LbZjkM7sMr27wdwjJV1x0pjs/Y7sh3H/I5iN3hj/zcBAOtTq1PN2c47VeouQ3WPsTocQCuGBuYu3UdVG7TMth3bB7eE2qNCl7hRAphGnfIwLZWrAFsgiIOr9vjx4+7Vx1LxSWWsb1AwFZL8/9TKWhq0Y4ObZRAywRhZdtbRV/Ep6y7rF7wBy8s5PNZxsn/+7hs7Z2uPDTlFljvWYMv2jJU9Y9ufMm7JqPpDfkcpu4fK0KT8PSmfF7wBANtSG7gr7bxLS32k1o6rtVUBWjPUXu5rk51TrQ2ZduClty9yTaq1R+e6g/729laqpHPOVMB6qFMeZmgGJsFoAMcRxMFVG7tLPZWxMii4m9LQq1WO+kwJ5Ciy7KyjDAr3rTvJoCOcTxpuU6LXy/m7f+7WztmlZrAopgRARK3sqW1/lr1kAEcx9XeUsnuoDE3K35MAgG2q1a9SV0in+6UG77Lu1EeGnKtuBTCXVh+pMtaGTFmc4P5LyDUobdRa397SfQXAOHXK6Yb62cZmOAagnyAOrl4adOdySCDHqRLhquMP5jU1iOAQKRNaCoA4VLb/nOXoUr9jX9bhDlgAWK/Ur2p1hnS6n3vwLutKZ3ttwC7bfM66FcAchtq0LQTOj7Xrso3nHITNenI9qA28hn49aIM65TRDZWi2Q1kGcBxBHPDWOSPbU2nJNH1LTSOW5ZoGEJYzVxBBlpFz9ZwNmWz7XOVdtv9cASj7yu+Y4zjsK78r69DIBIB1m1Jvy+Bd7oROZ/gSA3hlsC7ryLoEcABbNdTPda7giCFp1421g8sgbAZFlxiIzT5IKnfNjwW35HqgXw/aoU45bmjmJTdIARxPEAe8VQIrxipjc0pjLI3IOYI5st2CN+B80hA6NoignK+X6qAv5d2xZc/u9l8yyCHrzjZkW+You7McwRsAsD2lvjAmneEZWEvHeOmAL53wJdWUz5TvZaAuy5kyWBepz1yqfggwh6Hp8lMOXlraeFPa8BkULQOxSSWoY/d6UFM+s3s9KNeCpNqga1HapUBb1CnrhrZNHxvA8e7cZiSnx3fffXfz9ddfd+/eefPmzc2nn37avYPtSgXp5cuXvY2rVIQePHjwc+N0zkpIKmeJWB1ab+w2NpfYBuBw5dyNvgZLOW9zzrYYZDVW9hy6/Sk/h/bD0o3IUnbHWDlaytBQjtKKf/7znzeffPJJ9+6dJ0+e3HzzzTfdOwCOlTpPCwOJfTIg0GI9cahetyYDXV40JoNTfTKY3WJdfWh712aJsmeo3GjpWGZAdEowxbmlrZo71rVPuWZDZUhLdSV1yo+t4bgBtOTLL7+8+f7777t3Nzd37969+emnn7p37wniAABmM9RwO0cQB6ydIA6A5bUUmNB6/ailfXUsQRzrIIjjMpYYXBsa3GytvMt2Pn36tJlgjlbzOpzbmoIB1CnfG7ouqocB9JsaxOFxKgDAbMpMGAAALcoAQDqUMxhwKVl3tkGAK7A1CUTIYOK+BEskcKIV2c6UwQme6Nvec8n6cz0QwAHro075zlDZfsn9ArAVgjgAgMXl8SUAAK0oHe8ZQEsn85KDeFl21lE62lu7kxRgTnkkSJ/MfNGaEsxRBmJTXi95PSjXAsEbsB3XXqccerSM+i7A6TxOBQCYzdAUimlgasBBncepAFxeuZvw9evXP/9bZhkbm3J/t8O+BK/eu3dv1QN0HqfCuXicymUs2UYbKj9aPaZ9cj3YvxbE1OvB7rUgBGzAuDU9TmXMNdQpt1DWA1zC1MepCOIAAGZR6+jXgQ7jBHEAANdobUEcjMvg5dDd2dqGwJAtBXFsnXIe4HhTgzg8TgUAmMXu3UkAAABcpwTfJAinTwZpAVi3oUdkDZX9ABxOEAdAj9wJ1ErSwcFaDE0JueTzQAEAgHXLHbt9ySwc65bj19cWzF325TEDALsy20bf9cAsHG1JGd7XB5gZU1y7AeYjiAMAOFkt2Kg8wxMAAIDr8fjx4+7Vh4bu4AagfX2PUUnQnmAbgHkJ4gAATjb0KBWNOAAAgOs09FiV3MFt1lGA9Xn48GH36kNDQXsAHE8QBwBwkjTghh6lYhYOAACA6+WxKgDbMPQYlQTreYwKwPwEcQDARg1Fx89pqAFXmIUDAADgur148aI3kKNvSn4A2pP+v6HHqAjgAFiGIA6AHre3t80kg+AcK8EVd+7cWezupqEGXPHs2bPuFQAAANcsgRx9znHzAQCnGQrgGCrbATidIA4A2Lg0tOYO5khHWy2AIw05AUgAAAAUfTeuGAAEaJ/yG+D8BHEAwJUowRzPnz/v/udw+W6WUXuEikh8AAAAAACA4wjiAIAr89VXX/0ciFECOjJDx9AsHfn/fCYzb+Tz+W6NAA4AAAAAAIDjCeIAgCuWoIzM0FFm6dhP+f98pjbzRiGAAwAAAAAA4DSCOACAkz179kwABwAAAAAAwIkEcQDARr169ern4IolZfaN29vbm0ePHnX/AwAAAAAAwLEEcQDARn322Wc/B1eUYI4EXMwhy8nyErxh9g0AAAAAAID5COIAgI0rwRwJuEjgRQnqmBLYkb+XoI3dwA0zbwAAAAAAAMxPEAcAXJkS1LEb2DGU8vcStCFwAwAAAAAAYFmCOAAAAAAAAAAAGiCIAwAAAAAAAACgAYI4AAAAAAAAAAAaIIgDAAAAAAAAAKABgjgAAAAAAAAAABogiAMAAAAAAAAAoAGCOAAAAAAAAAAAGiCIAwAAAAAAAACgAYI4AAAAAAAAAAAacOf2re71B7777rubr7/+unv3zj/+8Y+bX/3qV907AABgLv/6179ufv3rX3fv3vnDH/5w88c//rF7BwAAAADAWv3ud7+7+fOf/9y9u7m5e/fuzU8//dS9e28wiOO3v/3tzd/+9rfuHQAAAAAAAAAAc7hz587Nf//73+7dex6nAgAAAAAAAADQAEEcAAAAAAAAAAANEMQBAAAAAAAAANCAO7dvda8/8N133918/fXX3bt3fv/739/88pe/7N4BAABz+fe//33zpz/9qXv3zv37929+85vfdO8AAAAAAFirv/zlLzd///vfu3c3N7/4xS9u/vOf/3Tv3jsoiOPNmzc3n376afcOAACYyz//+c+bTz75pHv3zpMnT26++eab7h0AAAAAAGv15Zdf3nz//ffdu5ubu3fv3vz000/du/c8TgUAAAAAAAAAoAGCOAAAAAAAAAAAGiCIAwAAAAAAAACgAYI4AAAAAAAAAAAaIIgDAAAAAAAAAKABgjgAAAAAAAAAABogiAMAAAAAAAAAoAGCOAAAAAAAAAAAGiCIAwAAAAAAAACgAYI4AAAAAAAAAAAaIIgDAAAAAAAAAKABgjgAAAAAAAAAABogiAMAAAAAAAAAoAGCOAAAAAAAAAAAGiCIAwAAAAAAAACgAYI4AAAAAAAAAAAaIIgDAAAAAAAAAKABgjgAAAAAAAAAABogiAMAAAAAAAAAoAGCOAAAAAAAAAAAGiCIAwAAAAAAAACgAYI4AAAAAAAAAAAaIIgDAAAAAAAAAKABgjgAAACAoz18+PDmzp07H6Uffvih+wSH6NuXSbQl+bvvOOV8YB59+zeJ7XN+zc+1GqBNymdgiCAOAAAAAAA4wPPnz3sH3gSbAABwKkEcAAAAADNxNx2803ceJAHHWeP1pW97t5QSyHMt+n7/ltI1HUsA1kEQBwAAAADNG7rr3cALAAAAWyKIAwAAAM5o6E7acyfTvQOs31BwU0vJ9QaAuWUWor5rzqWT2feAuQjiAAAAAAAAAABogCAOAAAAuEIPHjzoXgEAAADQCkEcAAAAwGr0TVt8rpTHFkArLvkYDYApbm9vF09Dnj171vv5OdOjR4+6tW1f3++fOw3Z6rFcw+OwpiYA5ieIAwAAAAAAWJWHDx92rz721Vdf3fzwww/dO1rnWALAhwRxALNLpXo3ErdWCQcAgGvz4sWL3jsAl0i5c3HINd09CrBVKcv7yv9D0+eff94t8UOvXr3q/fwhKdc9mFv6H//617927/o9ffq0e0XLHEvm1nctOlf67LPPuq0AOI0gDmBWqXTfv3+/e/dOKuGmVQMAAACgBXM8xiCzA/Qp/WCnJDdEjZsyqJ9jYQaH9jmWAPAxQRzArPYDOHZpgAIAwHm9fPmye/WhoTuuAQBalz7GsZkbivRVXuvg/1CwUv6/FY4lAPQTxAHMZqwSPbVCDgAAzGOoDv7gwYPu1Xb0TWd8bKo9hgZal/zbl6/nTACXcsigf3Gtg/9Ds8Xcu3eve3VZ134s53oc1rlSHq8FwPkI4gAAAIANqt1lmU5jAIA1qQ36Z5ax2iDztQVyDP3W7KfPPvuse3c5YwEcjiUA104QBwAAAGzQ1EepDE21PTUdegclzG0orwOwDRmwHwvgePHixc/BCWOD/y09SmRJ+a19Hj9+3L26jLFjGTmGOZa1x/8J5ABg6wRxwJVKgyUV5jkru2NR3KYk5loscX5tRfZJ2T8AwHJyzR3qHN/io1S4DkPTwgOnG7pmvH79unu1La0/xiABCbyTPoQM2I8FcBRjgRy5lmy9z6b22y45C8fYsYwSwBE5rmOBHPqXANgqQRxwRcrAae6WS4OlVmE+Vq2R1MrzFmEJ5zi/1qoEbmTfpIGt8x0Alvf06dPu1cc8SoWtUfcG2J70JaSfpdaHsB/AUYwFcuS6kf6J9FVs0VDw1aVusJtyLGM3gKMYC+TIsUx/05aDcgC4ToI44Eqca2C5NJJ2K9dpIPRVwmErBG4MK3dZCNwAgPNJJ/ZQvaTWCQ4tGxuc2epAHJxD7fzRluMSMuA/NmPDUABHMRbIEcnfWwwAGDpvL3GD3dRjmRlohvqOc5zHAlCyjqxLMAcAWyGIA5hdKtypXJcpIHOnnwAOAAA4j9osHJd+Djoca+yRDi9fvuxeAYcaO38MinIuZRbPsZtkEpxRC+AoSiDHWBBrAgC2EswxFJSVIIhz9s9OPZZjwThF+pfHgnKyrhzLrFu5BcDaCeIAAACAjUiH9VBneTrJ+zrv0yleArCPSWMDIzCHsdkAku8N2MAyxoKorknKmQwQ547/pAxS76fyt6ShAXU+VPblWFk/NmNDn3x2ykwOUYI51nzcLj0LxyHHcmowTpFjOaXumXUL5gBg7QRxAAAAwEaYhYMtmjoAU8v/wLCxO+XHBmO3rgRuZGA6A8PZH9lnQ/ut/C0pny2BHQI6PpT9UQb8h/blrkMH/PeVmRymBJ+W47a2IIDati45C8ehxzIBNTmWx25Tvjs2K0eUYI41HksAEMQBAAAAG5DO86GO8wxYLNl5D0vKAMwUyf+XHqDJNmSwaGoyqMulTc2D15hXU57k2loCN06RsmE3MOAaZX/mt5fB/uyPqQP+h86+MSTLmBoAEPtBAEktBwIMzZozZRaSQxx7LMtMKgmoOVWOZZY19bftH8uWjyMAhCAOAAAAWLl0RNc6z0+5cxUu6dBBFrNxwGEysDnF1M9tRQZ5M+A7ZWD6UNmXGfze8iByGeTfHegvwTBT9+mcA/77Dg0AiGx7UgkEyO8qwQAlXdrQeXrKPpzrWJ46k8qQ8ljAQ4/lbkDH7nEEgFYI4gAAAICVS0f0kLnvvoRzGsrbQ9PhZ0Apg0zAuAxcHuLQz69VypChwfC5pKxK+TbHoHEZjK6lJYJR+uwP8h8y0F+U4I1zBKAeEwBQ5HeVYICSLnmODK372HrgXMeyBG8sPSPcscey/LZyDMs5c46AjrKP15Kyf9aib/vPmQDmIIgDAAAAVqw2YJ3O8yXuYIVzqOXtDAjVAjncTQvjXr582b2aJgOdWz+3Uu5MGajOQHEGp5MycLyb8n/5+1AZtSuDolvap48fP+5eHS77LPvvErOHlQCAHLspx63PpetcOT/73Lt3r3t1mLmO5dLBG/vmOpbn3m4A2CeIAwAAAFZqbLDpEgMhMIcMag7l7QzMRC1/b21gFOaWu/aHzrHanexbfmRRbZ9ECdzIAHEGijPI2zfQm//L31NG5bNjAR1rurt9TH57KaOnyH4pA/6XDIAosv05bvkNtfOgzyXrXLXrXV8eneISx3JoZopjruenHMtTAlgAYC6COAAAAGCFxgI4Dul4h5ZksGZoUHP/7thaPr9EIEe2LwNYU1MLg5Zcp6G79pOHa/ky150tPlYlZcXQPomUNdkvxwyI53sZTM6+HVKbeWhtso9qvzV/K4P92S8tloP5DdmubGMJAqj9pkODBOb2+vXr7tWHTq0L1o5l/n+tx7J2vPK3Y85zAJibII4rlsZJUhpeQ1GuSflb0hYbaJdU9vvYvs/nks7d8bRmZZ9N3b+t79vd37Pm37G0KWVa/r/sr6StmbIPknb3A+uwe1yHjm05pkn5PADblnJ/LIBDBzRrlHpM7a70/btjk89rgzFm5ICP5RoypJxjtcHfLT5WZWgQPDL4O8c1NYPcQ+VV7Zq+RvmtsT/Q3/Jg/5ASBJDt7gsEyO+75O/JuTgUgDRXvo1yHMuxzP+v9VgmtXgsAeADby9Wvb799tvb/Hk3vXnzpvsra/W2YnL7tlLy0bE9JL2tzPy8jLnUtmcpfetKmvN39cnys//61j01ZRk5jvtq+3Gu1LfefZc4nrHkvp1D3/qSss4hxx7T2jK3KMesbz9MTVPKtGOPxSHp2LyX7526faeW633LnDNl+8bU9sFS+taVdMq+3Ndyucb8fvzxx4+O4ZMnT7q/Arw3dn2Ycu2c09D2nLtuPaehusWU6/yp+6Pvu0nXou+3l1Tbh2Pnxdz5McvrW885z79T8uk59G1b0lR9303iNEN5N2k//577vCoucX71rS9pid84tF/Hzt2h703ZxlO+S9tavxYc4try6bFlAfPp2/9J58xzyme4Pl988cUH5/vdu3e7v3zITBxXIhG5ibLPHSi1qQGnSGR4lpHluZtlmuyr3CWd/XZqZH2WUbsr6dqUO9Pn3Lc5VpfM2/lNJb8cI9+79G84h/y+/M5Tz4fdMm1NlOvbVq4bc5VrjivAduQaUbs+fP755//njklYk1K/HZK8XbujOPk+nxmiTgTvPH36tHv1sf2ZbsauJ7VlrclQ2fDs2TKPVdjfz8XLly+7VzDdUJ/QvXv3ulcAwBoJ4ti40gmSzopTB4L2ZXk6QerKYPzc+573eTsNlSX2b/J2rQNxKeU3zWHL52cp166Rcn3bsu9dNwAYkjpA7RpxTABHufackly3OFXyYa1+OzVvTwnkuEQ779zSpuw7V09N6eNg3WrXkaGAhVeVx6pkWddwTs1ticAQrtNQ/81Y4CMA0D5BHBuXiPilO9QM+PVLI3auwXg+NNbBN5dzd0bUOlOOtcXzc4n9tCbK9e0qZRsA7Ms1IgOotTrAMQEc0IIpdaBD8vZYIEdp56nvcm0ShDN0Hck58+jRo+7dhzIQLJAD2vT69evu1YeGZnsBANZDEAc/R9qnMZZ0e3v7Qcr/5e9jtjJ94hzSETR1kDn7Nqlvv0/d99dm6iBnOiBK3j5l/56rM2Ioz5TfMfQbap2TxZYGhcfOreyPsm/69ln25ZR9tnYl79f2wxjl+nlNKdvKce07plOPKwDrk0G3sWtE6jcCONqX47g/s0FfuiZT8nfqOYeaEsiR9ZpZ4jL68n1fYj5pb9RuNBob8BXIAe2pnddm4QCA9RPEcaV2B4ISaZ+KXV/lLv+Xv+dzYx0gOj/eSUfQ2CBz9n/Z9313OpTjUfZ9jtXYwHP57FAaUvLBlNSXR85p6iBntjWddtknQ/l6f//WLN0Z0Xc3TI737u/YV35D/j4lf2zh/KwFcOT3Zz9kf5R9s68c83wm+zZ5ZWy/FWs4vy5Zru/+jv2U7epT8viUlGO2ZWNl2+41Y+iY7h7X5IOh/Q7AuqT+Mza7X66pW79Wsj2p/0zJ36nX9NV/psh5MVYnyvoTLKA/gy2b0t6Ycp7lM2NtyLUGcgz9/pcvX3av5pVj0ufBgwfdq/XYD76SPkxLXl+GZuHQHwAA2yCI48qksZVOkKGBoJp0gNQaa0s1bNZkrLFaOliz/w+RY5Xv5dhdq7FOh928fajs3wx81ho5S3ZG7Hdc5ncc0hFf8kft/BzrHG1djn8tgCO//9AyLXkl31t743Y37yvX16k268kx5VryQb6T79aOLwDtSt0nHf9D9Z8i9ZhD6o3Qggxojd38EKnLHFq/3VfqRGPSXkp7TzAHWzOlL+WQ9sZYGzLnda5fQ0EKLev7Xfk9S/wWM18yh6G+vnv37nWvAIA1E8RxRdJxccxA565aYy0Nm2vu8EiHT60Tquz/U+TYJdjgGgflxjodTs3bMdbBt0TjvS+A49jfMZa/1nx+Dt1dEKc+57Mc9zXe8aJc34aha0eOyynHNt/N8XUXDsC6pF1Rq/sWqQccMvA2JNeLtDFOSdfYPuFwJThpSoD5Ke2ifVlOljeWT1MnK8Eca5f6X9+5emqao8zhfKYEcIz1I/SptSGLrHdtgRxDfQJTrsmHSBt7qA3oHGOqofPr1H4EAKAdgjiuQCpvaWzPVYGrDXRe613bqTgPNcBizg6oOKaRvWa1TrRjOx2G5DjVBjznbrzvmiOfZBlDpnSWtmpo23Os5ji3sow1dZYo17ejFiQzV9mWvD1XXgFgObkmTJl9I/WAudsXsKS0l6cGJ81dzy2yvCkDz3O3L+FSxgI44pS8PuV8yvrXFBRV6xOYa3aR7I9a/wZMNTSbyyk3OiWfXzoN1YNTnvR9/pzJTU4AnJsgjo3LwNzcHRCiwj9WmwZxrkHma1bryF6igy15vNYZMUfDfV/WN0c+GVvGEtu+tNo2X+MUkcr1bRkKkhnrEAVgO0rwxpSA2zLArH2xTgm+KTMa1NKWlIHkseCkKPl7SVl+LfB96fXzTl++70scp5x3NbXzYKqcL2Ptlpz7ucatpS9i7KaeY4NS8vuzH2ploXY5UyU/DeUldUTol/OmL9Xk72mrTUm5PgyllP/5F+BQgjg2bqkGwFAjbUrHzNbkIj30u7OfNMJOU6vgLHmXQi1yfawz5Bhzdha6e2PblOsAsA1pR0wN3ojU8QwwszYZTJoyWJzPnCt/Z5sSILBf/51jUBsuLX0oUwI45hrozXk75dwpARBjA2aXlvZ2LTAl7eMyGJfr+NDvKYOD5Vp/jqCaS9kPvrpEGjpm2a99nz9nWqIPZ+iRw/oD2aqUo6emlMN9aUj5e9pqU1KuD0Mpyr8AhxDEwVFqU++33iCbW+1RAzpZTzdUwVk6QCYdGrXGz5z5vNZBcIza7BRDDb212trvuSTlels07gC2KwM/6UhMZ98UqSsuNQgA51AL5Ej+nnNA+RBl8PmS2wBzyvVlrB2xRF6vneO7sm21mWxbkbJhrJ8mvyXX8Qzw7Q8UJu0O/o1R/nCooXx1jbPVch3m7jsHWAtBHBxFpfCdDGzWggw4Te5YGFIbcJ7LuYIh5v4ttcZ/LeiI66ZcB4DlpF5bgjcOCdQz+wZb0TfIW/L3JQcvs+5LbwOcqsz2cIkAjqLvHN+XfrK1XNOyneeY1UAAB4causkm+VVe2o4E6uwGhq0lpb2zhHOMAwC0SBAHR1EpfKd2B4HO1tPVAg7OcSdiLZ9PvXNyiiV+y7UEEQlKmY9yvT1mQAHYhgyupe54SPBG6nJm32BrUt/MIFPydwYu5W84TdoLGTBrZbaHLD/XrqH+iNpja1uUMir7bYn+lZSF2Vfa4RwqM7z0mePGnORJaTiptwBwboI4mJ3HG5iFYy4tzHKy9J0XS/2WoQjlQwYPWlHr1MjvWSrKm/eU68up3U2QzhmBHADrlw7fqXW+fC4DRgLC2aqcD2a+gHnkxqIpbfxzz/aQczzr3HXubZhLtrn8njn6b9LHlGUZDOYYtf4B11W27NAgpZTXU1PK5bGUcnss9QX+7CeAQwnigBMMNZZN8XW6WsPknPu3VkmcY3BVXpkmleohAjlYs7GGqEAOgG3IAFCtPpO/pfPP4DYAU41dWyLXlktcV7LODFiVAbK1X9uy/dnf+U1lUC+/bezavjsAmO8meMN1nmMN3WCTPAZbVq4pU1PK66kp5fJYyvrHEsASBHEwKoNHSZkGePdZztcu+2LIHFPYXbvanf+pPLXA7ATnMzbtagnkMNg9jXK9HWnojXW8JpCjds0BYB3SSbgv1wDBG7BOOWeHBg7gXJLf+toT+b/kx0tfW8oA2ZaUQb38tqT9MqCk8tuTXOOZw9Cjk7Z2jgEA7wji4GdDA3pJGTxKSkXx0Gc5XyuNs+1wLNuQ4zA20J2yKWVVyi8D3sr1NZnybOgcpxy7HMscVwDWKQEbkTsmywCP+iYAp9hvT6TtnOsL2zMUNKIusX1D/QBm4Vi3WiDYbho6zqVNMUca0vfZoeTaAzAvQRxXaHdQz4De8V6+fNm9YglD+3dsIJ/tSkNgyvFP+ZVy7JqCOZTr65YOtzKoNybHMsc1x1owB8D6pMxPB+eSd0zu1gtSHyqp1BFqqXy2fH/qtcagEi1Ifu3L/315fT+Vz+7mf1iL0p5Ie7nM7gRsS/oB+pgNGtZPWwoYIojjiqQzIx0Su4N6zE+QwfUQyHN+UwM5ogRzlE7ZLVKub8chgRyRY53jnvw9dYANgO0qA9a5LuzWC1IfKmmK8tny/XKtSco6XHNoTQnaKHm/L/9PUT67m/9L3i+BHdCytCfSXjbgw5C1DxKW8r7UeUq9J2morN+tx5SyPCnLWlOdpratazzn+47l7vGspfLZtR5LADiEII4rkIpMKjmpuE7twADeE5jTlnQ8HDpdZMq+0tjbQuNOub5NJZDj0DKndEylAwOA61E6vnMNKAPWS8o6dq85Osy5lOS95MFSH07eXFLOrRLUUQaOAFhWqeeUuk4p70ud59B6TynLk7KsUqcp5XrL9ZrXr193rz50yI0gl1aO59CxnHo8y2f7jmXW0fqxBIBDCOLYuFRcUpE5RQaTMmCalMphUiK1AS4lU5CnHDp0sDsNvZSJaTiutVGnXN+2cgfdMZ0x6cAoHRcAbFfpAC8d35dQOs3XXKdifZLXkueS95IHL6EMHGU71LmAQ6UcS0r5kZSypKRc28fS7ufLMrZWFpV9Ueo5S9d1Srmea0vW22K9Zuia1/osHCWP7x7PJWUd5VhmveqoAKydII4NS2VlqJLXp29ALymDSRkwTUrlcI3TtAHbVAa7jw3mWFtnh3L9euSY5Fjl+B0qeUSHBcD2pFxPJ/jSHeCHaK1Olf0zVzqkzsXyUrdJXmsl/2c71LmAMSkfdgeyU44lpfxISllS0hS7ny/LSCrXrqwn61tjuVT20dR9sZQcn2xHK/twqI51TF/BuZRjWfL4JWS9rR1LzqfkwbUneRcQxLFRqeCNVZLKwF4Z1DOgB6xRyqsEJaQcOzSYIw3KVOzXQLl+nXL8cixzXA9ROiw0+AC2IfWVlOtTpU5UZt7aD+YcSuVz+U7SIfWqMoDkusPckqeStw4ZBCp5uOTpqfl/N+9Pzf/qXKxN2pW7A0QlraVdvAYpD8p+TvlwzoHsrCfrK4PXQwEALSn76lz7aKrsw5wXly7fczz73Lt3r3vVjmOu2edQjiUArI0gjg1KhWmoghfpjEgHRRnYA+qGGh8PHjzoXtGKEsxxyMBDjm/rjTnlOjmuuwMMUxlUAFi/1FOmdIanPpBrRK4XqROVmbemBnOWz+U7SaVedci1x3WHOSUvJU9NkTyavJo8W/JwydNT8/9u3j+0XbGVvJ/f0JcyyLqbUi4lZbAufwfenT85L1Ie1Nrv55TtyHma7WrxXM12HbKvSl2nlPml3K+l8rmk8t2pUv+6ZPleW++Ua9s5lbw/1SWOpWsWAGsjiGODXr9+3b36WCpI6YxoraK3JVM6WDme/csUpfM1Dbspna7JV2lwtkq5TlEGGNKBMbXDYiuDCgDXKPWTsfpvrge5LqQ+kGvE3HavPalbjXHdYQ7JQ2ODQakHJ08mbyaPLlEfLu2KrGOsXdFS3i8Dt4em/Ia+lOXtppRLpWyqtVXgWpQB7Fb7rLJd2b6W+j2m1HFS7pZ6zm5dp5T5U8r98rmk8t2yvBIMMCb77hLl+1D5OqU+dk6OJQAsQxDHxqQSkgb1kFSQmIdZGJZl/zKHNOxS7qUxN9bpmgZniw055TpDSofFlI6Kp0+fdq8AWIvc7V7rEE/dJteBXA/OJXWrKdeedJDDKcbyUOr3qQcnT57LlHaFvA/XJe31BECNDWDvKoPZSSlTSiqD0bW0+/myjLG+jl3Zzgy4X7rvY0odJ78t5e6S9ZwSDFD2Z825B/9rfUHnvPaNcSwBYDmCODamdgdEKjGch4rg6WrPdjzn/k1jZMg5O8w5TRpzaTCOdW60ONCtXGdM6aioSaeKaxPAutSCOEtn+KVMufbU6tGn6hvYOlfSBljeWN5J3rvUANaUdkVLd7oDy0n7amrgVq7bKbtyHSmD2UkpU0qaYvfzZRlZXrlGZT1j/R5pG15yEDvrrdVxsv1lH51L2Z9jdZtz9hkN9QWNBSick2PJ2uT8KeVlS2ms3AaulyCOK5JKzFzmrOjXBuuXMNe217bbdKLLsn851liHa+3ugRa1Wq5fwlqvJXNJXhjrpFB2AqxHbRA4dZlzdoYPGbv21Dr1oaaWd5Ln5qwDH6vWrlhbm+JUL1++7F7BfHKe9w105dxrxVgAx27gRq7b5yi7sp7so6xzbFDwUoPYtfVmmy95jEu+q5Xv5+oLGLoWnrvvo8axBIBlCeLYmK01nluuTNUaXzosT9fK/h06p8Yaw7Sr1uEaS941egydoqe7loZ5yk2DaQDbMDQIfOkO8X259tTuCNU5zqFqeSZ5rdZOPLfHjx93rz7WWptiX8qSsZT93ZdS3yyptUF1OJcpMwadK3BjSM7NWvswdY1LlFVrqOPUyvdz3BwxdC3MPmrpOuhYAsCyBHFsTK3yNKc5Kzm1yucSlak5l5kOjCE6LE/Xwv4dOqcePHjQvWKN1nT81liuX8KaryVzaqlDB4Dj1Oq5LdZharOCrL1+wfnV8kwLM9DsSr1rqE5+rkDs7JMEUhyaMrg2lrLsvpTfXRJco1yn1zBjUGQ7aoEc5w70rwWNpNxpRfbbUJ/kOfbZ0LWwFpBwbo4lACxPEAdHOVclZ4mOjzm3vTaFnWfrne7S+7c2jXU6r1ivlqafbMWWG6+tX0vmNneADwDntaZB7OLSA9lsx1CeabV+MxRYNRSIDaxf7TrdUgBHURvEjnPOxrGmMr7Wb7TkjWW1IKGW8pZjCQDLE8TBwZao3AxV8Obu+Ji7YVKrPGfb11ARbPnuuEvv36H8V2v8wq6Wz69dlyirlujYXuu1BACAulZn0hMcDuxqLYCjqAWBCrjsd6ljOdSPpC/yeK2elwAwRhDHxpxjAOv+/fvdq/nUOmTmHCxb4s7pWiV6iX11bWrTPi65f83Ccb1a64hda7l+CWu+lpxDi3fEAAAArMnaZgwqWt6+VgP1LmGov2EtQYOO5bv+pzt37syahvJF/r/v88ekIX2fPTUBMI0gjisyxwBWbWD7FOeICL/EtsdS670WiZauNTSX2L85V8zC0Y4cD9Mb9mu5XL+ENV5LXCMAAMa1eqf4Wmbe42N9g0pJ2p7ApQyVP+mLNJsEAFwfQRwbU4t2PbXTIwNNS0x/X9TuNj91kKs2KD+H2mwRc2z/HIaCD9ZwR/njx4+7Vx+be/+mwTS0T5JHzcJxGZkpYo6AheLp06fdq48d0zBe8vxac7ketXNmzmNarO1aUrZrrs7iLGdoG90RA7AOa3xu99L1CWg1j62hPc3HamWpgVJYzlCbtMWytNZfsVQ5MdRX1eIsHI4lACxPEMfG1AbLykDRMc4x0FcbXMq6j+2wTEVttwK5xPSBqfDVllv2/RydrlnGqQOR+1rtDC6yf6cEypz6O5JXao+VePHiRfeKS8h5PMdxzveHyrMlZlo5dXvXXK6PWeKOyjVeS7JdcwUq1QKUBKEBrEOtM7nFR6DV6iICCDlULc/MUVeaU61eaQbHtg3NoOK4cYpLt6/HDG3fOa/VawpUPfcMULW+qhYDDRxLAFieII4NmhJMMFUqXX0DfbUB9WNlcKm27emwPGbb9yOAa7M6nCID/GP7/pRBunwvvyfLGKrU19Qq11lmaxXsfVMCZY7dv0N5ZdcSeZ7DleN8SFmwK/kj3x9y7CD30ufXWsv1Ymj7D932KdZ8Lck6jp3Ceei4FjqkAdalVm7Pfe08Ra4/Q9eeEEDIoWp5JnWlY+pJS6m1K1q8a5r3htr+jhtTrCnYrKiVnefM97VghNoNCedWq9/U+htOsaXgsms/lgAwm9sB33777W3+vJvevHnT/ZXW7R+7vvS2onL7tiLYfeO9V69e/fz/fd9JKt/p+1tS3zKnyrr7lrmfatuelL/3fW/JbS+G1r2fsq6kbG+fchyGlneMsW0b2p6yHUPbuiuf7Vt20hzm2r/l71OWN+V3j+lbblK2YQlZbt/6ktam9lty/Mqx7JNjl1RbRkmnHuelz6++Ze6nsj/2je2D8p2+vyX1LfMQWX/fcksa2+78/RBj6yuptt6k/L3ve3Pur77vl5TlJGVb+uzun77vl3To/uNyfvzxx4+O35MnT7q/Atdk7FrWQtk+to2HXA+3ZujaPHRN39f33aRrkbzT9/tLmrofl1Srf6l7vde3f5Km6vtu0qn6lpl0DYbOL/n2MH37sKQWyqhdY9frc6uV8Wuo3yx1fPvWldQyx5JWDdXTWm2fDG2vPArb9cUXX3xwvt+9e7f7y4cGawKCONZtrJJybNqtgPX9PenUi+HQRevUdI5tL5b6DbvpGKfmiykVh1oFfi7n2L8lzVVZ6lt20lKVx3Mch3Op/Za50hzHeenz69TlD6VzlY2nnLe72zjVUuXE3Pur7/tzpmP2HZcjiAPYNXbtTxk/Rx3mGGPX2Wu//gztn6nHq++7SddkLI8t1Y4aM6VOfqnzskV9+ydpqr7vJp1i6BheKk+d21D7+trL7UONlVGtlANjZdYl8v3YNl0yL15q29ZaLjmWtGqojG71nBra3uRjYJumBnF4nMpGZXq6t4V8924eby8mPz8yZGljjyU5xrm2vci63lYKunftSL5ocbsOlf07d/7elzzztoxs8rmTzCt5aY7jvPT5teZyPc5ZBkfWt/ZryanWtr0AfCjX/tq1LFND53EO55y6vTzisfYIlXD94VRjj67L4zCSF8/1eJWsZ+zRjDFX24LlDD2ywKNUOMRYe/PQx3jObUqZle2/xGPPxvo2UsfIY0bPWb/J/srxGivjl6rfDK239XLJsQSAZQni2LA5B/yynHNWbrKuuQZDz73tRRpCWXetUXeMLO+U45rtmnubLqHk77kHzbNvskyV+XYslWdznOcO1Fn6/FpzuR5zbftUa7iWLLFPynVCOQawfinLx+oWGcwuHeRLDGiXgaCsI+saC+A49/WebZpS7y2BTBmsWWKAKHl/dzAo+b8m2ztn24JlDB1Hx45DjQWblQHspcqofbvX6yll1tj2Lynn26XrN5FllzL+UvWb2m9bQ7nkWALAcgRxbFwqUhmkPHYQK9+7VEdEBkOz7ccOiF5y24usOx2v2Y5TBxKzH7I/srxTf1PZprXLfijBMnPs3ywj+ybLpC05LqUsO7ZMKLKMLGup47z0+ZV8v9ZyvWz7qcfwEK1fS8o+mascy3LmuE4A0I6U61OuEekgT8d1OslLR3npLC+ppnymfC8d4VMHgiLXoVzTXIOYS/JS6jZj9bgM1pQBoqQyYLqb/2vKZ3bzf8n7UwaD4lL1a+Zxaj2c6zRnGZU0xe7nyzKOuV63UGYdU785Zt/17a+yz7LsS5fxQ7MDZZ1r4VgCwDLu3KaXpcd333138/XXX3fv3nnz5s3Np59+2r1jjVLBiZcvX/ZWbFKRf/Dgwc/TtbVWodnd9tjf/pa3fVcqm6mgDx2DKA3Ac/yesj19Db3d7VhLYEP5PVHL55HfFYI21illwlB5UJRyIS5RNpzj/Fp7uX7u7V7DteTQ60Qox7bhn//8580nn3zSvXvnyZMnN9988033DrhmuT6k47tF6bh3LXovAwp91/CpAwcZjOgz0H1zFYb26aWlTpa72VurZ7fi1Lw897kwVI5e06Be2kN97dM1aqlMbLWM2tfi9brl+k3K+AQoLGlL1/xrP5a0Yy1l8hhBR7BdX3755c3333/fvbu5uXv37s1PP/3UvXtPEAcAADRAEAcwRUsDcDrE+wniWEYGh54+fdpMp7yO9XGtBXEMlZ/XdG4J4lhOa2XUrjUEnLVWvznH/hoKelh7cOw1HkvaIogDaN3UIA6PUwEAAICVSKd+Bq6mTFu9lHSIZxsEcHBO6cROnkuHdvLgJWS9WX/yv0719Smz8e26ZFnKtpQyKuXDpcqofcnfKbOyXa2XWanfZFsvXb/J+s+1v4ZmrcjMoGt2jccSAJYgiAMAAABWpgRzlE7yJQeMSkd4kuANLm13oLTk/SXzf8n7axkIZVjfXblrHyylTaWMOsc1ele5Xme9WX/qCmsqs7Kt+/WbpZV9Vuo3Wf85ZBaOIVu4zlzTsQSApXicCgAANMDjVIA5lEGB169f//xvufN8bErh3QGmBw8e/PxvBjcNWB/O41QuJ/l/P+/H1Py/m/dD/j9NS49TGXpswbWdVx6ncnk5BsUh5VQMXatj6+XV1uo3Q+fi1LrCmqmrsjSPUwFaN/VxKoI4AACgAYI4AAhBHPDOnOdC34Bp7th2pzZwCa71AHC9pgZxeJwKAAAAALBZuzMeFGUGA4Bz2p2NZdc5HjkCAKyHIA4Afm5A5i6AVhIAAFyr3IXbl+Da9J0HScfom1bdFOXAJQw90khgGQCwSxAHAAAAALBJP/zwQ/fqvTxnHuDc+sqj+PzzzwWWAQAfEMQBAAAAAGzS69evu1fvGSwFLqGvPIrHjx93rwAA3hHEAQAAAABs0suXL7tX7zx79qx7BXBejx496n1MlMAyAGCfIA4AAAAAYJNevHjxwWBpBlEBAABaJogDgME7AS6VAAAAAAAA4BoJ4gAAAAAAAAAAaIAgDgAAAAAAAACABgjiAAAAAAAAAABogCAOAAAAAAAAAIAGCOIAAAAAAAAAAGiAIA4AAAAAAAAAgAYI4gAAAAAAAAAAaIAgDgAAAAAAAACABgjiAAAAAAAAAABogCAOAAAAAAAAAIAGCOIAAAAAAAAAAGiAIA4AAAAAAAAAgAYI4gAAAAAAAAAAaIAgDgAAAAAAAACABgjiAAAAAAAAAABogCAOAAAAAAAAAIAGCOIAAAAAAAAAAGiAIA4AAAAAAAAAgAbcuX2re/2B77777ubrr7/u3r3zj3/84+ZXv/pV9w4AAJjLv/71r5tf//rX3bt3/vCHP9z88Y9/7N4BAAAAALBWv/vd727+/Oc/d+9ubu7evXvz008/de/eGwzi+O1vf3vzt7/9rXsHAAAAAAAAAMAc7ty5c/Pf//63e/eex6kAAAAAAAAAADRAEAcAAAAAAAAAQAMEcQAAAAAAAAAANODO7Vvd6w989913N19//XX37p3f//73N7/85S+7dwAAwFz+/e9/3/zpT3/q3r1z//79m9/85jfdOwAAAAAA1uovf/nLzd///vfu3c3NL37xi5v//Oc/3bv3DgriePPmzc2nn37avQMAAObyz3/+8+aTTz7p3r3z5MmTm2+++aZ7BwAAAADAWn355Zc333//fffu5ubu3bs3P/30U/fuPY9TAQAAAAAAAABogCAOAAAAAAAAAIAGCOIAAAAAAAAAAGiAIA4AAAAAAAAAgAYI4gAAAAAAAAAAaIAgDgAAAAAAAACABgjiAAAAAAAAAABogCAOAAAAAAAAAIAGCOIAAAAAAAAAAGiAIA4AAAAAAAAAgAYI4gAAAAAAAAAAaIAgDgAAAAAAAACABgjiAAAAAAAAAABogCAOAAAAAAAAAIAGCOIAAAAAAAAAAGiAIA4AAAAAAAAAgAYI4gAAAAAAAAAAaIAgDgAAAAAAAACABgjiAAAAAAAAAABogCAOAAAAAAAAAIAGCOIAAAAAAAAAAGiAIA4AAAAAAAAAgAYI4gAAAAAAAAAAaIAgDgAAAAA4wA8//HBz586dj9LDhw+7T3CI58+f9+7P/D9A61L295VhuVZQ17ffkgDg2gniAAAAAAAAAABogCAOAAAAAOBoZiY5TN++2lIygwoAAJxGEAcAAAAAAAAAQAMEcQAAAACwqKGZGi6Rsi0AsGaZ6ajvGneJBADMTxAHAAAAAADQtKHABcF5AMDWCOIAAAAA4Gp89tln3SsA4BSff/559woAmJMgDgAAAABo2PPnz3vvPj9XYl63t7eLpyHPnj3r/fyc6dGjR93azufS58icCdbkwYMH3SsAYE6COAAO1NfATkqHAQAAAMAl5ZETQ7766iuPngAAgMYJ4gDg4vafaapDCQAAtiWPMOm7Y3+pNCSzEMCWpT3917/+tXvX7+nTp90rYK1evHjRe/1bIr169apb68fu3bvXvQIA5iSIA4CLSgDHfgfT/fv3zWwCAAAAB5oSoJE2uJsngDkkSBMAmJ8gDgAuJoEaQ3cImeIVAAA4Rq0d4Y5htqzvJokhuXlCmxuY4vXr190rAOBcBHEAcDEvX77sXvXTSAQAAA5Va0ds7Y7hPB6mb+r7YxPrdUgAR7GlQI5Hjx715ulWU+3xFNCa3GjVxyPKAGA5gjgAAAAA2AyDTVybsQCOWsCAGTmAGrNbAcBlCOIAAAAAYBMOGWy6c+fO0SkD33Bpye9TAjgyA83nn3/e/c/HBHIAQ65pdisAaIkgDgBGpTPn+fPnP3cOzenBgwfdq36ZDhUAAGCqp0+fdq8+ZrCJLUkbPcEXUwI44sWLF6OBHHO3+YH1M7sVAFyGIA4AepXAjXKX2VCj7RQJ0hjqRKp1LgEAAOxLG2ZoQNtgE1tRZt8Ya6PvBnAUY4EcOX/SB2BWDiDSLzjEo1QAYFmCOAD4SLmjZ4nAjX3pRNrtUE2HUt7n/wEAAKaqzcJhsIktSPDG2OwbaVPf3t4Ozjyz3wbvU2blEMwB122oXzDljNmtAGBZgjgAuLjMyJFOpqR0KHmMCgAAcIjaLBwGm1i7MktmLXgjkten3BCRNndm6qjJuhLMkXUL5oDrU5uF4/Hjx90rAGApgjgAAAAAWLXaLBxDg00lkPyYNDYADnPIbBgJ3hibJTPBG8mTh8xomcCm5OV8tybrFswB1yXnulk4AOCyBHEAAAAAsFpm4WBLEixRgjfGZt6I8jjSY/N5vjslKKkEc2S7BHTQmtevX3evmEPO9SFm4QCA8xDEAQAAAMAqZSDZYBNrljy8G7iRYIkpwW+U3hYAABXdSURBVBsJUMpMGnM8jrTMypGAkCkEdHApU84NTpNzesg5AyNTvkxNKT8BYGsEcQAAAACwSrXHqGRA2iwctKQEbOwGbSQYYmrgRmQQ9dBHp0yVgJBDgjliP6CjBHUI7ID1yXmbc3qIwEgAOB9BHAAAAACsTgaLawPfc8xQAHPYD9g4JGij2A3eWDo46Zhgjii/Lb+zBHYknSOgo+zjtaTsH+bz8uXL7hXHynlay5cpfwRGAsD5COIAAAAAYFXG7hbOYBO04pS71xNIkYCKcwRv7CvBHDmfEkRyjHM+foFtS+DeEI9ZOc1YAIfzGADOTxAHAAAAAKsxNtjkMSq0JvnxkMCiDJiW4I1jZ5QZmpnimFkxsv0JIslvOHR2Do9f4FyOydu8U3s0WTiPAeD8BHEAAAAAsApT7hb2GBValECIodks8v+7gRsJmGgxH+c37M7Oke2tBXXkbwKqmMvYI1Nev37dveIQCfiqzWSSc/0S53HKmakpZSYAbI0gDrigTAOYNHR3RP6/fKbFaPKp29/Ctmcbxra1bC/Xq+SRvnxS8scc+bm2nqT8fa51napsy9C2lv3SyvYCALBdqW+OBXAYyKFlJX+WgI3doI1WAzeGlICOoaCO/MY1/R7a55Ep80ufTosBHADAW28r2b2+/fbb2/x5N71586b7K3CKtw3Zj86vqelt5blbyjz61pH0ttHdfeJj+Vvfd8ZSbZlLOXZbc4yGtrfv80mX+H2n6PsNc6bswyn6vpt07P7sW1bS0PJyTh16TmZZh56Lx6wn6Zh1zaGlcgquxY8//vjR+fTkyZPurwBw3VLH3L9O7qdz1kOHtmdqO+hQaRf0re/YdtOQvnUkjTl1f5zr912ToTbdVttrQ79XHtqGoTJiP13K2s63bNfQNpc0tfw+Vd+6kwBgq7744osPrnl3797t/vIhM3HAGZU72U+JHM9dR1nGJe54z532WfdXX33V/c9h8r1zbfup25pjlO/mmLFdOb45pw49J5M38r2pefnY9URZV/L0Oay9nAIAYHvGZuCIV+4WBrh6+iHGlWtqrd/nczNbAcDFCeKAM0jl+NRB0X3nHNSNDOweGxCxL9u+VKMqy51zW3PMDEZvz1znZPJy8tuQkh/nOPeXDiqaa5/sOnc5BQDA9qSemnplzTEBHKlbp/57bBrbJgDm8/Lly+5V3evXr7tX9JlyTRXAAQBtEMQBC5tSOT7W0oO6xVyD0LuyT7Jv5lT29dzbGktsL5cx9zmZ/NaXN5bIj1nWEkERc++TXecqpwAA2J7UI8fqqWbgANi29FlM7VuZ66auLZpyTRXAAQDtEMQBC5oyMJrK8bNnz/Kgvw9SOqKS8reapQZ1i6EAjrHtzt/HzDloPHUQOttctrFv2/P3oW2fc3u5nKdPn3av3qvl57FzMJI3kgd3DeWXU9eVDon9dZ1iC+UUAADbkjrqlJsJUhcVwNG2HMO+mUz2k4FXYEhfP06N/ocP5Zqacnbsmpq+HQEcANAOQRywkLGB0QyKpsMpleNHjx51//teOqKS8rd8biiwIOYe1C3S6Nmv4Gc7Mng7tt35+9h2xxwNqymD0GmIZHuyzWUb95X9nW0fGpTe0owC+wPyu2no95fjPyW12PDb7wiekp/z//nMWKDCbqdCXz7JusbO+bKufK7m0A6MIVsopwAA2JZSRxXAAUAMXQ+G+k4Ehb2XftexPtPIvuzr9wEALkcQByxgysBoBkWndjjlc/l8bYB0SoX8UPuNnjKYO9WU7Z6jYTU2oF0aIod08JXB9P1tH+tIpF15fup+AMch+bkEKgzJsnPuDwU/HXrOT1nXKbZSTgEAsB0Jhh6rM6a+mbryIe07ANZp6OavXAtq14FT+0zWLr9/6ixHrqkA0CZBHLCAWlDBKVPTjQ2QzjGrRdEXwHFshX7s956y3X0D5rtObYiM7XPW45QAjiJ5qTYjR879/XNnqXW9fv26e3WcLZRTAABsQxlsqrXtotSt5xhsynISuH9sqgVdAzCPoSCE0mcx1G9yrTeRlOvplN+fa2quZ3NcUwGA+QnigJnVggpSOT51arrawOocs1r0mSMiu9bBdex2p2FS++4c2x1jg9KsT+08GlM7h/vO/cePH3evDldb1ynn+xbLKQAA1idtuimzb8QpgcZwbhlEvXQaavPlfOv7/DmT4H6mGMonu3109+7d61597Jry2SHBG+GaCgDtE8QBMxsaoEwDY67KcS0gIpX2OWW75wiEGFvGMdtdm4lgrgCOQsNmO2qzW0xVOwd3ZV2n5sPa9h57vm+tnAIAYF1SHyzBG2Ozb0TqlqcGGnMZaWPsz2LSl+ZopwHbMtR38eDBg+5VfRbTa7iJJIEqhwRvpEx2TQWAdRDEATNKJ9SQU+7G31cbFD71EQv75gxemLNTJp1+tYHoOQM4Cp1K65e8MUdDdUr+mmtdtbtKjjnft1hOAQCwDocGb5TBpiXadwC0qzYLx35fS63vZYuzceRaWoI3DglUSb9m+nldUwFgHQRxwIxqjyeYu4J8jijzbPec5hyMrn1+zoHoXaLU12/3bo1TjZ0fc61r7rJja+UUAADty4BTuVN4SvBGJHjDYBPAdRrqNxjq86v1P+QatHa7gRu5lh7Sr5L+HrNvAMD6COKAmdQiu5cIKqgFRMzVOJlzwDtqnW8vX77sXk1Ta6ws2clnNo51m7PBOnZ+zLmuoYCRQ8+bLZZTAAC0aX/Aaaoy2CR4A5hD+o9SDq0t1WbR3Lqh3167+SR9MEN9J4dcg1qV331oH1C5ngqIBIB1EsQBMxmqSNcaGKeoLXOuRxUsEaE91KA6RG3wV5AFQ+bIe1Odc12H2GI5BQBAmw69UzgMNrEVt7e3UiWZEYAhCf4bmrFp7JHPtZtTthAUc8jNN66nALB+gjhgJkMNjLlnsziXpQahh/bH1Cl1ozb4W7vzfw46GihqeW3u836O8ya2Vk4BANCuDCBNlWD8DOwabAK4bkPBf1Nu2so1ZOhz6Q9Z+4yg+X1j19b83fUUALZBEAfM4FKNgKFAi0On1+uz1kFdjRSGXHugwhbLKQAA2jVlsKkEbwiWB6D2GJWp14l8bqgfIjNEbSGQYz9QJb9X8AYAbI8gDphBbWaIS3RGHXp3/tqcEpUP57D0jDDHUE4BAHBufYNNIXgDgF0J4BjqJzjkMSJR+/wWAjlKoEqupQneWPtjU1If6EsAcO0EccAM3FEOtE45BQDAJZTBpt07hQVvAHPLQPb+IHBfGroBqASXzZGG9H12KOX3XIsEVQwFcOS4HBqgkM/XZoJ6+vRp92q9kj9yLTXzBgBslyAOWNidO3cWS9d4J3stWr7F2Q9gDfrKl7mSGTcAAMhg05J3CqedmPT8+fOfU+7oTuqrn+6n8tmk8v0p8luufeAV4FQpuzM7Rp8E/x0b9JcyOt/vk36KlPkAAC0TxAEAAADAqpSgjQRiZAAwKY/eTMoA3dRg4vLZpPL93QCPqUEdcAl9wUtJJQ/XUvls+X4JhoJzqQVwxKlBcfm+QA4AYK0EcQAAAADQvP3AjQRcLKkEdpQB76wbLq0EbOyeB0m7AUlTlM+W75dgqCx3N7ADljAWwFF7HMohaoEgyf85l7aUz/Nbcg5vIQHAtRPEAQAAAECzyqDUOQI3hpTB7myHYA7ObTdwowRsLGk3sGNrg9xc3lgAx7Nnz2Z9/FYtICTnUrZFHgcAWiOIAwAAAIAmZQC5Nth3CRncbmVguwSWzJVoyzkDN4aUQe5sh4FuTjUWwJHHnzx69Kh7N48EhIzN7CGQAwBojSAOWFAaHre3txdJAFMopwAAaFEG0zJofMjAdeq2uYM7g3Ul9dVDd1M+k+8k5ftJU5SB7Qyyw9yOyf/nIM9ziikBHLXHn5xiaiCH/A0AtEIQBwAAAADNGBvo21WCNhKQkcG/3MGdwbqSxuQz+U5Svp+UZZWgjjEZZDfox5ySn6bm/yjBS+VcmBq8VFL57lTJ82bl4FBj+XrJAI5iSiCH/A0AtEIQByyotTsmtu7169fdK2Aq5RQAAC2ZEsCRwb4yUF2CNuZWgjqyjrFgDoEczCX5aKyNVoI2SkBGCV4q58LU4KWSynfL8kpgx5icpwa6mWIsX58jgKNInh8L5IinT592r9Ylv6+cy2tJAEA/QRwwgwcPHnSvWFoaI8DhlFMAAKzBWABHBt8y2HfOtmHWl/XWgjkyQPn8+fPuHRwu+WdsoDvBFSVoYyklsGNKMIdADmqSN8YeC3TOAI5iSiDH48ePu1cAAJchiAMWpjF7Pi9fvuxeLcfxZIvkawAAWlALgshAXwbdLhXYn/VmoLEWyPHVV191r+a3O1PCJRLLSpusln/KQPeSwRv7doM5atY6YwGXd4kAjqIWyHHJaw0AQCGIA2Zw79697tXHPOJjfrVOs6U5nqyVcgoAgJaNDWLnrugWBtXGAjnMxsExaoEQlxzojpx3CeQZyveZZcGNAfSpBUpcOl9H2b7dvC2AAwBohSAOmIHKfRtq0zPCtVNOAQDQslpgcWuDarWBx3PMEMn2DPVntDDQXdQeL+HGAIak7N4PAmopX2f7si3ZJgEcAEBLBHHATHYbI7uWnE71Wj148KB79bGl73pyPFkz5RQAAK2qBT+0OKj27Nmz7tWH3FzAoWr9GK0MdEfOw6F8r03JmBIokTzUUr4usk0COACAlgjigJlcMrDg2tSeAbtkx4HjyNoppwAAaNVQ8MPQoPGl1R5X6NESHGIogGkoCP+S5HtOkUCJWp8eAADvCeKAmVwqsOBa1TozlhqMdhzdVbZ2yikAAACOZaYCAAA4D0EcMKPaHUIPHz7sXjGH2owCSwxGO35shXIKAACgfbV+j2uRm3Tu3LkzaxrqM8r/933+mDSk77OnJgAAtkkQB8yoNq1kZjBYcmrJNGyvaerKsekX5xyMzn41AwVboZwCAAAAAABolyAOmFGmlazd5X7//v1FBjATsHCNj0Ko7esMRs8RyJHjleN2bWpBMks9robzUE4BANCioUdmvnz5snvVltevX3ev4DRDM2602H6q9Qd41AoAAMxHEAfMbGyGiAyQzjUInuVk6sRrnSUi+3qooy9ODeTI/t0P4KgNfl+LVjtRmU45BQBAa4YGslOPnKtuOpcEPdcG2A1mc4jabImtzWSoPwAAAM5DEAcs4NWrV92rfunsSXDBsY3xMijqrvabm8ePH3ev+pVAjkP2dT7bN2tAAkbGBr+3ZChA5tTgGNqgnAIAoCW1tlbqlC0NZj99+rR79TGB/8ypltfOLefgUHB+7QYbAADgcII4YAG562ZsgDQN39ztnkHODHamMdzXKZX/y9+TMqBqUPRDh+zr7L+yr/eV/Zz9m8/2dUy8ePGie3UdagEyJZAj+2xf2ZcCPdqmnAIAoDW1geDUS/vqoueW+m5fe7G4psB/5pG22VDwT2l7X1rOvZyDQ8ZusDlWzqfb21upkgAA2CZBHLCQKQOkRQY70xgug6W7Kf+XvyfVOoqu2dR9nf1X9vXQfh4y9VhuSfbr2ONqss8O3Ze0QzkFAEBLEjg/FsjRF0h+DhnETt23Vt+9xnYj86g9UiV57pKBHGMBHDln07YEAADmI4gDFnTIAOmpctfGNTeal9rX6YzIcq91317b7CPXSDkFAEBLxu7oT+BwBrTPNStH1pPAkdogdqjrcoqxdlkCORJEdM4gpuT9nGtjeV+/AQAAzE8QBywsDfFMb7jUc3Gz3CzflK3v93Xtzq1DZN+mM+LaO+LONcDP5SinAABoxdhgdmRAOwPLGWBeYlA7g9e7A9hjMw2mDaquy6mS98f6M5IXSzDHUoFMWXbJ+2MzLeovAACAZQjigDNJh04at3MMkqZRb1B0WAIvsq+PDebIvs337dt35g6OoV3KKQAAWlACOcbaIBlgLoPaSSWoowxwjw1yl88kle9lORm8njKAHdlOMxEwl+SlKe2x5Pvk0aF8n1Szn++zjKQsL8uemvdzrgIAAPO7c5vRlR7ffffdzddff929e+fNmzc3n376afcOOEUay69fv755+fLlYON4t8PqwYMHPz8jVQP5cOmQyH6Ovn2d/Wz/Tlf2p325fcopOK9//vOfN5988kn37p0nT57cfPPNN907ALg+GVieMqB8bqkH59Ev6r7vpO2QoIJ92U9TglzSzuyb8SQBDdcYFD60P1sw9ZjCNRm6Vgl2GpfgsT4Dw1YAsHpffvnlzffff9+9u7m5e/fuzU8//dS9e08QBwAANEAQBwD0y4D206dPmwnmMCj3MUEcyxjaL5cgcAmGCeI4niAOAK7N1CAOj1MBAAAAoFkZAEsgQAbDMpB8KVl/BpUMyHEucz7y8lg557L+nIPyPgAAnIcgDgAAAACaV4I5EkiRQeUMLi8Z1JF1JAne4JKS7xLMkTx4roCOEriRdeacu+bZUAAA4BI8TgUAABrgcSoAcLw8zuP169c/v3758uXP/8bYI1hKEMiDBw9+/vfevXs//ytg4zAep3IZ2e+xn/en5vvYzfvyPRzH41SO53EqAFybqY9TEcQBAAANEMQBAFwrQRzAmgniOJ4gDgCuzdQgDo9TAQAAAAAAAABogCAOgDPIXUWJLG8lAQAAQCsy20buut5PZuEA1iCPjeorw8zCMa5vvyUBwLUTxAEAAAAAAAAA0ABBHAAAAAAAAAAADRDEAQAAAAAAAADQAEEcAAAAAAAAAAANEMQBcAaPHj26ub29bSYBAAAAAAAA7RHEAQAAAAAAAADQAEEcAAAAAAAAAAANEMQBAAAAAAAAANAAQRwAAAAAAAAAAA0QxAEAAAAAAAAA0ABBHAAAAAAAAAAADRDEAQAAAAAAAADQAEEcAAAAAAAAAAANEMQBAAAAAAAAANAAQRwAAAAAAAAAAA0QxAEAAAAAAAAA0ABBHAAAAAAAAAAADRDEAQAAAAAAAADQAEEcAAAAAAAAAAANEMQBAAAAAAAAANAAQRwAAAAAAAAAAA0QxAEAAAAAAAAA0ABBHAAAAAAAAAAADbhz+1b3+gPffffdzddff929e+cf//jHza9+9avuHQAAMJd//etfN7/+9a+7d+/84Q9/uPnjH//YvQMAAAAAYK1+97vf3fz5z3/u3t3c3L179+ann37q3r03GMTx29/+9uZvf/tb9w4AAAAAAAAAgDncuXPn5r///W/37j2PUwEAAAAAAAAAaICZOAAAAIDV+n89+X92rz72//1f///uFQAAAEBbhmbiEMQBAAAAAAAAAHBGBwdxxP/8n/+ze/XOb37zm+4VAAAwt//r//q/ulfv3L9//+Z//I//0b0DoM//+l//q3v1sSdPnnSvAAAAAC7rX//6183f//737t3Nzd27d2/+9//+392796pBHAAAAAAAAAAAnMf/o/v3I/+f/9//u3sFAAAAAAAAAMDSzMQBAAAAAAAAANCAwZk4AAAAAAAAAAA4l5ub/xtLY66sZf0ovwAAAABJRU5ErkJggg==;" vertex="1" parent="1">
          <mxGeometry x="-610" y="-500" width="214.85" height="120" as="geometry" />
        </mxCell>
        <mxCell id="A81RwFwUyYRlChPBO0ci-155" value="" style="shape=image;verticalLabelPosition=bottom;labelBackgroundColor=default;verticalAlign=top;aspect=fixed;imageAspect=0;image=data:image/png,iVBORw0KGgoAAAANSUhEUgAACGoAAAOxCAYAAACn89OjAAAAAXNSR0IArs4c6QAAAARnQU1BAACxjwv8YQUAAAAJcEhZcwAAFiUAABYlAUlSJPAAAMYKSURBVHhe7P1RrBx7fh/49ZkRjTX04Id9FBAkWNwHZxUBUbQrmHMJC8xalzEg3CgPdlYWBEUPhK3MhXYpmYSxBOxYtAEyoIWB7m504cQCFAfrAMHsGFgoZHZBjEEOsTK0WgSRAwdzlchYyc6D9SJIiQ3O8Ox8eeo/t2+fquqq7qrqqurPB/iD3Tx9qquruuv0v37f+v8vLr9jAwAAAAAAAADA6L5Q/QsAAAAAAAAAwMgENQAAAAAAAAAAJiKoAQAAAAAAAAAwEUENAAAAAAAAAICJCGoAAAAAAAAAAExEUAMAAAAAAAAAYCIXX/jCFy6/o7q72fyJP/EnNn/yT/7J6h4AADCkf/Wv/tXmX//rf13du/Kn/tSfqm4BAAAAALBUyV784R/+YXXvyk//9E9v/t7f+3vVvSsX32mfpTQAAAAAAAAAABjEhx9+uPna175W3bti6hMAAAAAAAAAgIkIagAAAAAAAAAATOTiC1/4wuXbt2+ru5vN9/33/63Nn/4f/0+qewAAwJD+X//3/2bz3/6/v1ndu/Lv/c//wtWkhAAAAAAALNb//4//aPON/9uvV/eu/I2/8Tc2f/2v//Xq3pWLGzduXL5586a6u9n82E/+zOYXHv9ydQ8AABjSVx7+/Oarv/or1b0rX/+9P9pcXEhqAAAAAAAs2e//7u9sfuJLP1Ddu/L06dPNvXv3qntXTH0CAAAAAAAAADARQQ0AAAAAAAAAgIkIagAAAAAAAAAATERQAwAAAAAAAABgIoIaAAAAAAAAAAATEdQAAAAAAAAAAJiIoAYAAAAAAAAAwEQENQAAAAAAAAAAJiKoAQAAAAAAAAAwEUENAAAAAAAAAICJCGoAAAAAAAAAAExEUAMAAAAAAAAAYCKCGgAAAAAAAAAAExHUAAAAAAAAAACYiKAGAAAAAAAAAMBEBDUAAAAAAAAAACYiqAEAAAAAAAAAMBFBDQAAAAAAAACAiQhqAAAAAAAAAABMRFADAAAAAAAAAGAighoAAAAAAAAAABMR1AAAAAAAAAAAmIigBgAAAAAAAADARAQ1AAAAgNH82e/73k7t//GPX1e/AQAAALBughoAAADA2firf+nD2qDIbvtP/5Nfqn4DgDXKcb7u+L/b/D1g7XwWjpOwcd32qmsAsE1QAwAAAIDOhF2Wr25/1TWAOnXHi7pmtCw4na4BnHyvO5W69alrAGslqAEAAAAwUyly5UR72r6ARH6eVh4PAJyHuu8FdQ0AmA9BDQAAAIAZKeGMFFS+/ON/bvMrf+vhu/aPv/5fVo+ol5+nlcfn90twAwAAAJgPQQ0AAACAGdgNZwyhBDdKaMMw9N3tG8FkLs0+hWVwTAEAYJugBgAAAMAJpSiW4thQ4YwmCW0kBJJiIQDA0iTUmu8xTcGn/H8ekyZ0BMDcCWoAAAAAnEgKCQlPTCmBjRQzFDCYizKazL52qpBRCVN1aQAMq4QzcoxNqLVM9VanjCSWlu9X+R3fdwCYK0ENAAAAgBNI0WHsUTTapICheAE06RNQmUNLMRfGVPe+m6KdqxyDynelpmBGFwIb7UqA9xQN4NwJagAAAADfNXRhrqtyEn2ItoRiXQoPxxQdhiKsAQDMTb4n5TvKkN+VsjyBLgDmRFADAAAAYEIpEswhpFH82lceV7cAAE5rzDBrRufI8gFgDgQ1AAAAACaS0SsOne7kL/9HjzYf/2f/xbv2j37/j6+1/Dzt3/2Rf6/6jW5SDHGFKQBwalOMOJblC2sAMAeCGkAvOXlXN7RwUxtb32GZDekLAACc0m//5m9Ut7pJ6KIEM/79n/0PN/+jf/fmu1YnP0/73/6f/uG7wEYfh4ZHAACGMEVIoxDWAGAOBDUAAAAAJtInEJGwRUIXTcGMNglsJNzRZ3QNo2oAAKcwZUijyPP57gPAKQlqAAAAAEygzwh/CVgkbHGsBD04TLbd9tQyfVvXUU3yuLrf79oOCfIA03NMgXr5fjR1SKNIgNYIzACciqAGAAAAwAT6THsyZMCia3Hvt77x9eoWAMA0fu0rj6tb3SXQuhtKylRxXb/zbPvyj/+56hYATEtQAwAAAGBGDikytPn+H/rh6hYAwHxk6pE+o2kkoJFARgKtuyOPZTSY/F9+3mfqtzjnUTWyrbYDL1M2gHMnqAEAAADAyYYdB+YpRc+6wlqfloJpF0MUCoeYLgqGUPf+PKatWaYe6SrHiQQ09k3Pk5/ncX3CGkbVAOAUBDUAAACA7xqiMHfqtvRinSlI1qHrfrS/gS4cU1ibjKbRVQlp9NE3rHHOo2oAcBqCGgAAAAAzMvTIFr/9m79R3WrXp5jBcA7d33/1L324+bPf970HtaXKtqp7PWM3V1qzJEZHYin6hIp+6uceVLf66fN7jvUATE1QAwAAABhcrpJMSzF5X0E5Py+PX/PVjN//Qz9c3dov22QI2Z5dhxX/wS/9SHULAI6Xwnfd3/2mxnnpGipKkHTfdCdN8nt/+T96VN3bz6gaAExJUAMAAAAYRAlmpNiScEBaTsLvOxGfn5fHl6LOGkMbfYoM2SbZBsfI9utzdWifIAn7dS1AhcIQsI9jCmvS5ztO3ylPdvWZEq/rKGRrkmPLdmBqygZw7gQ1AAAAgKNshzP6FJLabIc21lRw6jO9SLbBoSNrpADSdwjvQ69W5bq+IZtzLAwB3TmmsDZdpz0Zalq2rqNq9JmOBQCOJagBAAAAHCSFowQphgpnNEngIIGFNQQ2+l4VWq5yzOvP9m7aBvn/tLJPEvLo4+P/7L+objGEvoWevvsLOC+OKaxN1++OQ03L1nXUsLG/0wLANkENAAAAoLcEB6YsBOXEeQIbawhr9Jkrvcjrz/Yuo4zstvx/2iH75Ji536l3SKGn7xXzwPlwTOFc9Zm2pE2f7zlr+K4JwDIIagAAAAC9JKRxqisO1xDWSNFhqKG8h/BTP/egusUQDp2uJiEbxSFgl2MKa9M1RDT0d6WuQVlTBwEwFUENAAAAoLNThjSKNYQ1MgXKHMIamfLEaBrDOubz8WtfeVzdgvNy6r8rc+aYwrkaatoTAJgrQQ0AAACgkzmENIqENZbulGGNPK+QxvAOvfK9yOer65XGef/8o9//44MasAxTHlMYTt0UZfvasft6SX7rG1+vbk3r+3/oh6tb7U61fgCcH0ENgAGk05uWTlVaXYcrLT/L43L135RXAOa5ttexad2212/O9r2OIWxvr6bnStveZnPfbgAAx8h3nUNCGgkEZKjphAJ2i8X5v7SuQ1HvyvewpUuxPdtgysBGtneeV0hjWId+RnaZrqBZPie7x5EpWj6jHGbMKQTa+updWj5rc+aYwrnrGqzoyvceAObm4saNG5dv3ryp7m42P/aTP7P5hce/XN0D+LycCO3Tkc0JjTGlo9nnSrqcXBnqS3m2RRLWx3aac5I0HY+hOwvZNjkhcsyJh5wEywncIfR57zQ9b5dlHLPOc9+nwDp85eHPb776q79S3bvy9d/7o83FxUV1D2CeUhDr8z3pkO9lfb/fR9/v+F1fR77T/fs/+x9W96bRt7/V11DfU+e8DU8phd8hDdl/3dV1Xcfu0xdd3/tD9lH76HNsmmqbLUWf49pYx/NjnepYNudjStd1G/M4dgpD75Ntxx7fjjmud/2cDvVZ6PrZHeN4OsbfP38jANj1+7/7O5uf+NIPVPeuPH36dHPv3r3q3hUjagD0lM5EvtSnAzPECYEsJ1/m0ykaSpaVZXY9GdIkry+vNa/51LIOx76eJkvYpwAAp5TvNX2+J6Uwc0ixIcWc/G4fY16tPbUUP3ICP4WQFGyGkuVlu2b5ayqYzckYfab0KVL8gSXr049f0/H8WI4prNkQ594AYA0ENQA6ysnpFPPn3JlIh7sEDoZUAhun6tDnBMUY230J+xQAYA76zNWdUMAxYYC+YY2xwrynlEBFgi4JbWRblOBGaU3yszy2BDPy+2kCGuPq018p+7KrFFbHKNjCHPX5W7NmjikU5bxVl0Y3fT4vADA2QQ2ADtKJnfsJ4HTe0uEe0ymuvuhzgqKPJexTAIClycnvIYbETqggxSeutkUJbpRWAhi7LT/LYwUzptOnv1I+H9lPfWT5eR5XwrM0fd+zY/T9l8YxBQDgfAhqAOzRp5N8KlnHqUIHU4Y18jxjbPsl7FMAgDnp+t3pB7/0I9Wt433/D/1wdWs/xaZ+sr22W0Lf2y3fl9NyhW7+pV7ffsVP/dyD6tbV9EB95HnSF8v+gaU4ZCqTc36PO6YAAJwXQQ2AFumw9ukkn0LfjvwQpgpr5HmGtoR9CgAwJ32+9+XK3qGc64gQ2wGKtpbvtXUt/YPdtjs8er5nb7eEvrdbvi/7ztwu27XPNsqV79vv6dzuW1iN7J/sw7wHYO7yfu3rXKc/cUwBush3ve3vdNr1BrAkghoALQ45qTCldKRPdQJ1jBDFtnQ8xjD3fQoAwGdSiFqquhPHXdpuiKKp5XttXSshi+3GsA4pqNZNTXBoYTXyHsj7RXGVuTq0T5/P1ljnA+bKMWV96qYn29f6TmEDACyfoAZAg0NODKSznLm06zpc6SynDTXXdjrP6Uj3lefPeuyuW/6/74nwnEwYS04yD23u+xQAgPXo+92a+UsfrG9BNbanJ9h1TGE1SnE1fR0FVubkmD79uYyq4ZgC0+v7eQOAMQlqADToe2IgHeGk35uGe05nOS0/L0X+Ywr8fUMaOVGc583zZz22lfXK+vc5oTxW52as5c59nwIALN3QRZ2u3wt3v98yHAWNKylapg/Wd3ukj7Dv/Zmf53HHSFE863dIOH1Jsv1TRJ669e1/n7tj/xZkP3d5L6e/Xi6kOKSdsv/umALzJWwLwFQENQAa9Oksd+ko78rjU+DP7/Y9OdC3o5zn6DqEYh7XZ33GHFWjTl5LWt0Jln0dqTnvUwCAuerznei3f/M3qlvHW3px6Ae/9CPVLZasXPF+yOgAffoUeVwef4z0h5pC5jClIYItY4yyOQeOKdA9CGFUFwDWTlADoEafjkA6F31OXu/K76bj26fz26dDn8BA3/XLunTtNPW9+uNQOcGQQEZeS93ryTonZNIUSJn7PgUAmLOu3w3zPXWIk+pZRtfvvF3XDfrIezDF1EOueI8+BdUij0+f55D3dH6nazgfxjRkyG7qC0PG5JgCnzlVmHWI76gAMCRBDYAaQ14JOLQ+Jz3SsT40LNCn0zT21Y6HnJDYNed9CgAwd32+G6YIdcyJ8Pzur33lcXVvv7mOXLGm0O45FTbStzmmmBrH9l9SHM0y+lBQZQ5yrBhyJIx8Bpd+/HFM4Rj5LlFGkt3X1mjoc3ldl2dUNACmIqgBcKRDO9qH6nPS46d+7kF1q7+5nFgeIqTR19T7FABg7vp+N0xB6pAwb36nbzFrTYEITu/7f+iHj+oPDNV/yTKyrC5XwvctwMJY+oTsusrfhCVzTIHr8rno4re+8fXq1jCGXh4AHEtQA2AAU13h0fd5ju3Mdx0ec6yOTp5/iBMShzinqwYBALrIlHp9JGD8Z7/ve9+FL/Ldqun7VX6elsf2vRK77zpNrev36alkfbZbtt92S3Fut+Uq3VN9Jz+FUsw8RH5vyG2VZe27En7o54RD5TjeNZCQ402f4+OSp0BxTIHDDX0hVdfldQ2SnEKfUVbOtQEsiaAGQI2+X8hzhccUhf0+Q/7lxMexug71N3THqThmRJBdc92nAABLcejIFQlf5LtVWsIYuy0/7xvQiBT5lj6axnZoorTt4ERaimbbLSegu37Xz+O2T1ynQLfdsv22W4pzu+0c5XVnW3eV/ZbtO9b2ynLr9nvun+s+Yl7Sd+5zHM/xJsegrnLO4ZzCGo4prF2f99kpzs35HAAwFUENgIHkxHO5WnAsfUaumHP6u6tTd4ym2KcAAEvSp9A0tiFDvWNJITLFsKa2HZoobV94gmlkW3d5v6egmv02hbwfsk4ppuZ5cx/mIH3nrrY/V7tBgTbnEtZwTOFcdP38DzWlUtfjRz4LADAVQQ2AGoeeAC1XC45V3O8zcsXUJ3GHfr19Tth0Mdd9CgCwJF0LTWPLOkz9fZfzs+/9np9NVVAtsk4ppk79vNCkT3gi/fztY3fey32KomsPazimcE66XmCWz/0Q5+O6nlPtOrowAAxBUAOgwTFBgVLcz1DOQxX4+y5jd0jpQ9ohQ1APZYwRQea2TwEAlmhfoWlsee7tQh+Mqe79nsJyRkRZ8vtwd3SXpjaVFIrrnv/Q1rXvV/blkO2cJDTR54KSuhEbEhA497DGGo4pMKZjR9Xoc8yoO04tVc5f7p7rXWJb8jEfYB9BDYAGQ30xLwX+fKlU3O9ujBMU9ikAwDBKoalPce1YClnDqjsR3rX1Kcyuwfb7Pf9OceV5+hkpsKSl31Fa3f7YbuVx5Xf1VxhL3md9jgW74YRtfaeyWktYY8pjytC2w0ltzd9smuS90TVUl8/8oX/P8ntdj1VTfq8FgBDUAGjRdiKhr3QKtkdk4DTsUwCAYeQEe4pLx4xa1kVOmuc5DMvOKZX3+1hFxxKsKGGM9DMSEE9Lv6O0fcrjyu+W/krpswhuMIRDQhptn538rG9fPc+/9LDGVMeU0sqxoK2Vx5bfzzHDcYOx9BlNN3/PDnkv9hmNw7QnAExNUAOgxSEnC7rICbN0gPt0MH77N3+jusUx5rRPAQDWoExZMHRgYzugsaZhqGFbCqHpR5RgRZ/id1/bwY1SgIW+UsTv8z7NsbxLGCGP6ft3JOuhH36lhDKyPXaPKaV1UR5bfj/HjO3jhmPH8LI9t1vZzmWfbu/X3F6TvkGlvlOg9D1e+b4JwNQENYBRjd15myK8MFZhP9LZXVsnawhjDzVonwIADK8ENvI9K8W2vgW3fAcs4YwsR0CDNSuFtxRCT6EUYBVd6aNv0TPH9D6jIeWYf8j5gHPth5dCfjmW9Nk3h9gOb+R5HTualWBFl5btud3Kdi77dHu/jr2PT6HP+bm8/myzLu+9vservt9bAWAIghpAL32GpJujvkntIr83xlWCkU7DOZ5QODX7FABgHPmelWJbCW509VM/90A4g9VLYTVFprkU20rRVcGVNnl/HPK+zXG9r/wdOCSskXXLOuYztnblOFIK+aeQ582xo2vRHJrke2Pfz3zee3VBw9wv4aU+n408v++fAJyCoAYwqrVN15Ev7eUKwSGl86Cwfxr2KQAAMIX0D1JYnaMUvfRfqJNiaN4ffaWffejFMoeGNSKfsRRp16gUoed2HBHY4FiHhLpK0DDvvdJy/5Dw0iHPDwBDENQAFu23vvH16tZ+h3byd5UrBIcu7qcjMWSnNlcvTtkOPQEzB0vZpwAArFO5OnpfU0hfplJcPaR4NKUSNteHIfI+yHHnkFDAMSGN4piwRp5/bfLZPLQIPZWs3zmMaMLwcrw41ec2x5kln9MEYNkENYBe+n5xHTvlf8oOainuJ6QwVIE/ndomS592Zgmm3qcAAMD6/dpXHs8+pFFkPfVhKKGAQwwR0igS1ujbLx/y+ediCUGvIucBs76MZ61hunxuh7rIrqs8X44za1XOcc61DXmxHMBSCWoAoxurA9E3pf+DX/qR6tbwdgv8x3QsmrZX3xMNroI6zhT7FAAATmX7RHnfNnUhZcmOKbBmO6eIkZY+SVrd/iitPKb8zjEUWs/boaNZ5P03dEgi/fIst4sxnv/UlhTSKLK+jiEc4piRdPrK86w5pAHAMghqAL31PeHz27/5G9WtYfWZ9iSmGpEiJwXyRT8nCA7pXAy1vcba7udoLvsUAABYjlxc0LfAmv5G+twJXqQPkiJ1Wvok+wrQ5THld0p445DQRtbbFAbnrW/BdMyQRJab5bfJ+3ys5z+VQ44hc5H1dtHKONZ+jqnvsecQWX6eBwBOTVAD6K1v4CHDHg7dOcvy+nZWp+6w5/kO6Vy0BVD6LKtvkIX9xtinAADAOvWdCjSF5vQ3ErIYSvowJbTRN7Ax9lSmzF/X/u+YIY0iy8/7uG598n9Dfm7m4pjPYLZJPvNp2T9p2X5trTwurfzuMUyjdF32S1sr2327be+X7Kc1vtd35diT1z6GbOcsHwDmQFADmETm5B1S3+XlS/ipHFLYb9Jn+hZXL4xnyH0KAACsT9/RKFKAG7v4luXnefowqgZt/d/8fwrHY4c0tu2uT26vseh6yNQh2RYpbmefZJvkM5+W/dNlH5XHpZXf3Q5xNL0P2qztGFK2x6Et+6Wtle2+3bb3yznJaz/0fVcny8nysp3PRT5/f/b7vne2TSAUQFADOMAhHYMhQwOHzM/ZJ+Awhp/6uQfVrWkNHZDhM6fapwAA5yR9iKaWk8+7LX2F3ZYTwWuT4kVdAWi35XGcRp9R9VI4mqoAl+fpE9ZQRCFS2Nx93yQQcKqCZ1mftYY0os95r+0C9FjH/Rw76t4H+ziGcIzt992hI2zk81GOV1P9rQWAri5u3Lhx+ebNm+ruZvNjP/kzm194/MvVPYB6OTF6yBCG+WJ8TKcxJ1r7hjTm0nHveoJ43/r2PdE8xuvP/k8IpM9yc+K8awd9Lvtsn6H2KXBevvLw5zdf/dVfqe5d+frv/dHm4uKiugcwrUO/2y9JQgtF1z7FsX2XPrp+V/a9cjnm3lfo0z/b/vz00ec5ztWh2/ZUyt+LFE3XUPDs+h6d8u9BzP38Sd/vDWt5v8xd1787dceduX4WduW9F7/9m7/xLhBZ930un4nIRXtTrWufz8SUx/21/B32/RdYot//3d/Z/MSXfqC6d+Xp06ebe/fuVfeuGFEDOMihHax8OcyJ0fLFuqs8/pCQRhwymka+yKbNUelwdJVtlm03hLIflngif877FAAAOE+nGqnv+3/oh6tb+/Xtv7NeOReUIqOi+3ycYgTZ7P++I2vAEPLeS0sAI4X7HI92W/4/7ZSBEgDoSlADOFhS1IdIcCCF/iS9UzhvOumT/8/PSzDgkJBGHPrFPKGSso7H6hOU2NfJPiRBXMIah76Wsi+O2Q9zMNd9CgAArEefYMOpCt4K7TBffaZOOlUxus8xJKMfAABwnaAGcLAhOoMpnJfQxm7L/+fnxwQDDg2TbNsu7h9yJVF+r89r6LJd+46qEVmHvJYS2GgKK+Q1lmBG2va+WIs57lMAgFM5h4LtId/5AAAAAMYiqAEcZc5DHSbMMGSBPMX9EiopBf6mE74l6JBQRJ+AQ9cAxjHz8pXARgkr7La8xhLM6LPuS5TXN5d9CgAAnJ+m/gdwvozKCQBwHgQ1gKPk6rshRq0YWorjx4QZ9ikF/lLk320l6NB3NJA+nXHzgQ5rDvsUAOBUhEthOEuYEiAh9K5MkwLzdaqwV59jyPf/0A9Xt4A5Sj/gH/3+H8+2jXmOH+DUBDWAo2XUirmd2P2pn3tQ3VqObMM+I4DkZJkT6vPWd58CADAO8+MzVwmDT11ozfPlebvQ54Tp9Qk25KKSOR9DQtgLAKCeoAYwiCRb53ICJyNNLK0TmG13SDp4Ttudzzt0nwIAnIJRwGBYfUaenLLQmufJ83Xl2ADT63tOa8pjSEbS6HMMcc4KAKCZoAYwmBSlTzkNSjp/GQ7tXEIaxam3O9cJaQAAfCbfjQ5t+Z67ryWoXde2h0xeyyhnmYavbpq+ubepr/aeg77vuRQ++0wlcIi+BdYwQiCcRv6+9ZHP9l/9Sx+OdrzN8SPL7zOSRgh7AQA0u7hx48blmzdvqrubzY/95M9sfuHxL1f3APrre4XOENKBHfIEUjqgfTufh8jJ56EK+lNu90O2d59tOuR2KZa4T4F1+srDn9989Vd/pbp35eu/90ebi4uL6h4AY0qhKYGHfYbuY7SZ6rvqqSQ4c45D3x+6X/Pey9QHQ22zrMdvfePrnd7326b8DMApdP2MnuKzMMQ5nqx3bE+lsu+4UoIemTIsx43oe+wonB+ZVoKRXSTAumvOn4Ul6PN5rdv+Y+m6X31WAYb3+7/7O5uf+NIPVPeuPH36dHPv3r3q3hUjagCDS6cvXzpLh3BMeY4lXiGXL8A5WTnkl+AptnuWnfXWKbtujH0KAAAsV/pN6Sf0laJKCj4puqXIkpYiUCmgNimPyeMTSErLMrK8voXWrLd+H5xOzvEce34nn/1yPCmtjHTU1MrjynHj0JBG/NTPPahuAXOWz3nd8WBuLd9rANZGUAMYTU7qJDiQ4vWQ4YGcMBo7oJHljrneKeYPdXXUrrLd81yHnBSsk2WVgMZY6z22Je9TAABgmY4tVO4WWusKF6UpsMK65DzGUOd1ppb1do4EAKCdqU+ASeXqngyfGPuGXi2d0TKf5ZBDvx7imHVP5/qUckVV7Bu2Mus9l+09hSXvU2C5TH0CcFqmPpleAtPnXLBLvyMBiqU49/3F+eh67J3y70Gdrn+35iLnT4w2Or0E9rrIxUa7lvJZmKs+f+frtv9Y1vb90rEFWJKuU58IagAAwIQENQBOS1Bjegr/V+ZebFUA4dwsqTi9lL8TCvmnI6hxOoIa0/A9BViSrkENU58AAAAAwMhSXEiRa46yXoofMF8pjif0NlcpoGb9FPEBALoT1AAAAACACZRi61wCGymu5upexVWYv4xMlM/rnAJfOYaUoJeRkwAA+hHUAAAAAICJpJh56sBGCWgYRQOWJ8ePUwc2tgMagl4AAIe5uHHjxuWbN2+qu5vNj/3kz2x+4fEvV/cAAIAhfeXhz2+++qu/Ut278vXf+6PNxcVFdQ+AMf3Vv/Th5h9//b+s7jVLAUrxialkfvvf/s3fGG0u+RRVf/BLP/Lutvc1XPlP/5Nf6vSZm/vfg3L8+K1vfL3T37dDleOIY8j6rOWzcCr5DH75x/9cda9dQlZT6bpflyLHIAFTYCl+/3d/Z/MTX/qB6t6Vp0+fbu7du1fduyKoAQAAExLUADgtQQ2WoBReI8XX2Pe+TQGjKKGM7/+hHzYdATRYa3E6x49wDKErQY3jzDWoAcDpCGoAAMAMCWoAnJagBgAAQxHUAGCXoAYAAMyQoAYAAAAAwDp1DWp8ofoXAAAAAAAAAICRCWoAAAAAAAAAAExEUAMAAAAAAAAAYCKCGgAAAAAAAAAAExHUAAAAAAAAAACYiKAGAAAAAAAAAMBEBDUAAAAAAAAAACYiqAEAAAAAAAAAMBFBDQAAAAAAAACAiQhqAAAAAAAAAABMRFADAAAAAAAAAGAighoAAAAAAAAAABMR1AAAAAAAAAAAmIigBgAAAAAAAADARAQ1AAAAAAAAAAAmIqgBAAAAAAAAADARQQ0AAAAAAAAAgIkIagAAAAAAAAAATERQAwAAAAAAAABgIoIaAAAAAAAAAAATEdQAAAAAAAAAAJiIoAYAAAAAAAAAwEQENQAAAAAAAAAAJnJx48aNyzdv3lR3N5s/97/4X27+8sNH1T0AAGBI/4fH/5vNr/+f/4/VvSv/l//6m5uLi4vqHgAAAAAAS/T//W//2eZ//eH/tLp35enTp5t79+5V967kbPDl1U0AAAAAAAAAAIby4Ycfbr72ta9V966Y+gQAAAAAAAAAYCKCGgAAAAAAAAAAExHUAAAAAAAAAACYyMUXv/jFy29/+9vV3c3m3/l3MkdKdQcAABjUf/6fbzb/1X9V3an84i/+4ubi4qK6BwAAAADAEv3BH/zB5pd+6Zeqe1eePn26uXfvXnXvysWNGzcu37x5U93dbO7e3Ww++aS6AwAADOqjjzabjz+u7lTevn0rqAEAAAAAsHCffvrp5r333qvuXakLapj6BAAAAAAAAABgIoIaAAAAAAAAAAATEdQAAAAAAAAAAJiIoAYAAAAAAAAAwEQENQAAAAAAAAAAJiKoAQAAAAAAAAAwEUENAAAAAAAAAICJCGoAAAAAAAAAAExEUAMAAAAAAAAAYCKCGgAAAAAAAAAAExHUAAAAAAAAAACYiKAGAAAAAAAAAMBEBDUAAAAAAAAAACYiqAEAAAAAAAAAMBFBDQAAAAAAAACAiQhqAAAAAAAAAABMRFADAAAAAAAAAGAighoAAAAAAAAAABMR1AAAAAAAAAAAmIigBgAAAAAAAADARAQ1AAAAAAAAAAAmIqgBAAAAAAAAADARQQ0AAAAAAAAAgIkIagAAAAAAAAAATERQAwAAAIDZuLi4qG2n8OrVq9p1SaOfum2Ylm0MMHdNfw/u3LlTPQIAoB9BDQAAAABYiRQT0548efKugFhXWEzLz0rLYwEAAJiOoAYAAAAALFgJZiSAcevWrXftwYMHm+fPn1ePuC4/Ky2PLeENoQ2A89QU7jPyEQCMQ1ADAAAAABYqwYoSzDjWbmgD1qaEmtLKiDJNxenSymPK75VRawAA4BiCGgAAAACwMCkUp4g8RECjTkIbWX4K07BkJZSR93MJNaVtjyrTpjym/F4ZtaZ8Pkp4g3rZTrst+2Nsdc+bBgAwF4IaAAAAALAgKXKmUDyFFKanKKrCkLbDGSWUMYbt8EaeT2ADAICuBDUAAAAAYCFSDO5SdH78+PHm5cuX79rl5eW1lv/PYz744IPqN5rl+YQ1WIIENMYOZzTJ85WRNgQ2AADYR1ADAAAAABagS0ijBDPu37+/ef/999+1Ovn/PObZs2fvHr8vtCGscbgy5cLS25zDB1m3vD8T0JgDI2wAALCPoAYAtS4u6tsT0xMDAABMLiMFtIU0ErRI4KIpmLFPCW1kOU2ENZijfDYSjNgXYioSSMr7PK1pxJntVkamKb/TVdYn6yWsAQBAHUENgBGkD74dbnAeCwAAgEOl0Ns2UkCKyAlaDCHLyfKapPis8MxcdB1Fo4QzErxIICnv87QuwaYyMk35nRLe6BraENYAAKCOoAbAwNL3/k4f/HNyUUcCGwAAAGuS4mPdFAnHtCZ1jz2m5Sr8pXj9+nV167oUjA8dRaNJltcW1nj06FF1C04nIY19o2jshjOGUoIbJbTRNm1QCGsAALBLUANgYLshjW1G1gAAAKCvphEDUoQeOqRRZLlNIwZ0nWICxpLQQ9v7MMGJhCiGDGc0yWclQZC2cFMIa3CIhArrwoZjtKbPVN67dY8fo/mMAHBOBDUABrSvL+FcFgAAAH20Fa3GLkJn+U0jBSxpRJJTS2BgSW0JUjhukvdsghNT2zcSTRiNBgCAQlADAAAAAGaqadqTptEuhnb79u3q1ue9ePGiugXTypQnTU4V0ij2hTUyYoERAwAACEENAAAAAJippkDEzZs3q1vjmup5oKum6RlOHdIo9oU1msJXAACcF0ENgAF9py/eaqILngAAACaRgmTd1AlLaGNPG7J2TcVyGFPblDsPHz6sbp1ejo1N0wY9ePCgugUAwDkT1AAYWNt0pC5EAgAAABhWQhEJR8xJW3DE9Cd0lVBhXdhwrW1un2MAGJOgBsDA0p9IWGP7womMpJH/09cAAABgCKZP4Bw1TQW0ND6/AAAIagCMIIGMTIt6eXnVMqKukAYAAAB93b59u7r1eVMVrJsKyk3TOsApNH1OTsnIAAAAtBHUAAAAAICFef78eXVrXA8ePKhufd4cC+PAMuT4dXFxMWoDAJg7QQ0AAAAATubJkyfv2p07d961uoJbafl5efyrV6+qJazb/QzR2CDbY0zZzk1u3rxZ3QIAAKAvQQ0AAAAAJlWCGQlfZMSGtFxhvW+UiPy8PP7WrVvvfv8cQhtN04xke4z12rPcptE0sj6mdQBYphJ4LAHJ8vd4XyuPLb9/LoFJABiLoAYAAAAAo0tBpxSDSjBjCNuhjbUWjZ49e1bdui6vfejXneVluU0ePnxY3YJpNU250xQqOqUUspsYkeZ0toMHfVrbMXHuSiijvJZ8Xsrf4dK6KI8tv1/+9qYJbgBAf4IaAAAAAIwqBaIUdLoWgw6V58hzrbFY9Pjx4+rWdeV1DyHFtraCZNbDaBqcSlvAYW6f+xcvXlS3rvMZYmzb4YwSyhjTdnBDaAMAuhHUAAAAAGAUKdSkUDR2gWhbnivForUVie7fv984BUrkdWdbp0B2iGyvUtBrkufPesCptAUcHj16VN06vXyemo57bZ/jc5FtcHl5OWo7V/kbMFU4o0kJbaw1OAkAQxHUAAAAAGBwKc6kUNOlUJSiXUZqePnyZW3BLS0/S2sbWWLbGsMamQJlX1gjBbIU6Upoo2kb5P/TSlEv26tNnrdtChaYStMxoISVTq0c+5o0Td8Cx8j7Lu//trDd1PKZLIENAOA6QQ0AAAAABtel8J+Ca0IYCQBkpIa2q+Xzs7Q8rgQ39oU2zjGsUZTQRrZBghi7Lf+f1qWoJ6TBnLRNf3LqsMa+kEY+S0alYWgJ3OV9l/d/F+Xvb1oJQW4HI+taeVz527vv7++2rFf+7qzt7zEAHEtQA2BF0t/JKLc5J/Gd/s+1lv9Py2MAAADGsq9QmgJPCWccqoQ2UjRqCy60FU2XKtsur3sKZV/BXOSz31YkPlVYY19IIx4+fFjd4lTqQghd2lTH3L66jqJRwhl5LeXvb1oJQe5THpdWfrdsl31/h4t8PoQ1AOAzghoAA0sIoi4kkTaW8pw5H5C+WVOAPv+flsfk8UIbAADA0FKEabuqNwWdFHiGkqJRik5tRaJcbbw2ed0pknUpjh0iBb2h9xUMJe/Ltvd+uYJ/is9+jnkplu8LaeTzlM8tDCXvu32jaOyGM4ZWwhslQLjvb5KwBgB8RlADYMFKQKNDcL5WCW2c4EITAABgpR49elTdum7MQmVbWGNOc/YPLa87RbgU44YIbWwHNBSVmbN9Aa3IZ78ENoYuDmeZJaCxr1gupMHQ9oUi89nI34Ypw3bbgY02bd8TAOCcCGoALFDOLSRcMdS5xvTrEvgQaAcAAI7VVDhKAGDsQmXbtAJrv4I3xbjt0EYJbrQVsvOz8tgU1kpRT0GZOnN8X3QJa0QCGwlUJLSRcEUJbpTWpjymBDPSspwsc19AI4Q0GENb2CHH9Hw2TiXv9/w9afps5nOz73MHAOdAUANgYdKPyWiaHc4F9Jbl6icBAACHaptmYIqrelMcSoGqzuvXr6tb65dtXYIbJbxR1/Kz8liFZJYq7+N9V/BvS5G4BDdKS/CiqZXHlGBGl3BGpEgtpMEY8re26X2Y990Uf2+7aAtP5jMFAOdOUANgQUpIY5+cl8w5irTLy8+3/F9+3nTBiX4SAAAwtC5XvI/txYsX1S1gbRKGSCiiKag1tTKigZAGY2j7e5b33Vy0hSfDqBoAnDtBDYCF6BLSKAGNBOdzLqDufED+Lz9Pv62pr5RpVQAAAIZy+/bt6tb4bt68Wd2CdSlTbuy2tpFszkmKwhlJ4FSBjQTS8rwZrWYuIxqwTm2jacxN29/kcxrpCgDqCGoALETL1JPvbAc0usrjM8rGbj+u4yieAAAAwIqs4Qr3EthIYGLs0MZ2OKNMJQSnMmUosiujygBAM0ENgAXIxTFt4YmENI7p92R0jRmG7gEAAHpzhS5QbIc2toMbaQlZdBmBoDyuhDLSshzhDOZmriNKdfmcAcA5EtQAmLlczPLgQXWnxrEhjUJYAwAAOFZTkehBW6dmYE1z98/xSuOlyCgL2y1TbZSW6Ti2p+RYw4gMXLeWQmsJbqQlZJFWQhxNrTyuhDLSjBIAAMCxBDUAZq7tYrChQhrFs2fVDQAAgIFNVcBvmrt/jbbDE21tO1ix20rQYjdwsd1u3br1uZbgTWnZ3ue0zQHmaq4jSvkbAQD1BDUAZuxVy2gauZhljAs4Ho83dSsAALBybVeZp8A/tgQN6mQ0gDlPT1AXjujSdgMUTW07WLHbStBiqMCFqWeWzf5jCjnW1B3Thmxrlul36uSYPjcJBDaZ899lAJiCoAbAjLWdH3n4sLoxMH0kAADgGC8z9F+DpiDFELLspqDB3Kc9MX8/c2fqIJiPpmnGYsy/s31lRKem8Ii/ewAgqAEwa21B+DGnQzWqBgAAcKiMqtFUgEmQIkWkFG+G1BbSmPtoGgDQR9voVflb2DaKxZQePXpU3bpO+AsABDUAZqvtvKUgBQAAMGcPW4YATBEp03GkkHRsYCPLyBD3TSGNaFuXuZhbwSrhlt2WofZ3W0ZP2W6Xl5dCMQATaBu9KqNYnHJkjfxtb/vbnL8p/lYAwGZzcePGjcs3b95Udzebu3c3m08+qe4A0FtC600jYVxeVjc6aFtO+mJjjqgRTdN5Pn5sehSAY3z00Wbz8cfVncrbt29XP48yAOcnhZoEMrpI0X97KPe6q4WzvNfV/JAvXrxoDWcUKWS1XXm8T9trSChhKF23VYpbbeoCH23basjXsE/Td51j99E5aRo5Jp+foYqeTc9hP3GoufVzDj3uNR2nc1x+9uxZdW9abaNJFVN/due4TgAwtU8//XTz3nvvVfeuPH36dHPv3r3q3hUjagAskL4MAAAwdynCpBjTRa7+TQGstBT2dlv+P49L21cEiiUVgrKeKR7uaykGtrUU63fbEkYUAdar7lh2yrYmOe7vC/CVv6lDjGLVJMtOQCPPI6QBAN0JagDMVNNoGhnRAgAAYAlKWGNfIWlIeS6FIDhMlxAUMB9dwhpRApEJUyRUkXBFCW+Utk8eU34vyyjhjDUGKAFgCoIaAAAAAIwmRZkUklKgGVMKVZkCIs+lEATDGvMzlUKv1txSFIc2ff/GJlRRRqgqI1mVEEdby2PK72UZXYNd+fuc0Uz8bQaAzxPUAJihthD71rTNAAAAi5ECTQo1KSYlUDGU7YBGpvoAgHNT/sYO+ff1WGWEq/x9BgCuE9QAAAAAYDIpJiVQsR3aSOsydHseU4IZ+d0sQ0ADhtE09UGXzyYwD/l7OHQgsq/yd9oIVwDQTlADAAAAgJMooY20FHQSvGhSQhklmKH4M526IfD7NuYvn6kSmiotbt++/e5fYBnqApFjK+EMAUoA6E5QAwAAAACA74amSkvRVcEVlms7tLEd3NgOZXVVHl9CGSWYIZwBAIcR1AAAAAAA4CRKoXeIlsJxnRSW6x5/TEvBu0nd4w9tit8MaXckqxLISmsKbWxPNVZaWQYAcDhBDQAAAAAAAACAiQhqAAAAAAAAJ3Hnzp3NxcXFtfbkyZPqEQAA6yOoAbAwr19XNwAAADhLdQXNtFevXlWPGFYZFv+YBgAAwGcENQBm6P33qxsAAAAAAADAqghqACzMixfVjRGNdBEWAAAAAAAAnD1BDYCZ+uCD6sYJmF4FAAAAAAAAxiGoAbAwz59XNwAAAAAAAIDFEdQAmKnbt6sbNZ48qW6M5MGD6gYAAAAAnLn3339/c3l5ea09e/asegQAQD+CGgAzdf9+daPGmEGKsUMgAAAA8erVq9rWpPz8yXc6LV3bnTt39raLi4t3/65VU3ExjcPl/ZX3zpTtecMQmw8ePKh9/KkbAADQTFADYMY++KC6UePJSIEKo2kAAAD71BVl+7Zbt27Vtibl5ylKd20pbO9rUf4FAACAKQhqAMxY2/QnD0YIVKz4IjIAAGBAH7SlygGAXuoCjVO3ptBiQpJ1j5+yZRQjAFgbQQ2AGWub/iSGDFZkhGEXkQEAAF3cbkuVQ426qVfSMjULAADAuRHUAJi5x4+rGzUSrBgirJGQRssIwwAAAAAAAMBALm7cuHH55s2b6u5mc/fuZvPJJ9UdAHrLSHxN05JcXlY3ekoYo220i4w6/OxZdaenuvVNOKTpNeRn+0b6AKDZRx9tNh9/XN2pvH379t1wrgCwFBmC/MGR8zEeO31Kn1E9bt68Wd36vH2jObx69erdkO91MhrEqTR9b3j58qURKjhrTcemHG+eHXripMFcjw9LdOfOndppNx4/fry5fyYnofQH253TewGA5fv000837733XnXvytOnTzf37t2r7l0R1AAY2BhBjS4jXuQc58OHOdFY/cceWeajR9cDICX00dQ/FNQAOI6gBgAsh6AGLIugxjIJaghq7COoAcCSdA1qmPoEYAFynu3ly+pOg/Rnc34go28kLJIgxq78X36Wvl8eWzdKx8DnLQAAAACAFgn3aM1NSAOANRLUAFiILmGNSPgiF48kiJFAxnbL/7WNTtxl+QAAAAAAAMDhBDUAFqRrWKOvTHeS5RohFwAAAAAAAMYlqAGwMAlTXF5ehSuG8Pjx1XQnQhoAAAAAAAAwPkENgIVKuCKjYBwa2EhAI79vikcAAAAAAACYjqAGwMASfMiIF3VtaBkFI4GNLDvBi4Q2moIb+f8Szsjjs55to2hsr/d2E+wAAACYp1u3bm0uLi4W2QB2PXjwoPZ4Mdd2586das0BAPYT1ABYiQQoEtoowY3dlv/fF84AAAAAAAAAxiWoAQAAAAAAAAAwEUENAAAAAAAAAICJCGoAAAAAAAAAAExEUAMAAAAAFuTy8nJ1DThfz549qz0uLK3ldQAAdCWoAQAAAAAAAAAwEUENAAAAAKjx/vvv1141nQbMz/3792s/r2OMdOD4AADAMQQ1AAAAAAAAAAAmIqgBAAAAAAAAADARQQ0AAAAAAAAAgIkIagAAAAAAAAAATERQAwAAAAAAAABgIoIaAAAAAAAAAAATEdQAAAAAAAAAAJiIoAYAAAAAAAAAwEQENQAAAAAAAAAAJiKoAQAAAAAAAAAwEUENAAAAAAAAAICJCGoAAAAAAAAAAExEUAMAAAAAAAAAYCKCGgAAAAAAAAAAExHUAAAAAAAAAACYiKAGAAAAAAAAAMBEBDUAAAAAAAAAACYiqAEAAAAAAAAAMBFBDQAAAAAAAACAiQhqAAAAAAAAAABMRFADAAAAAAAAAGAighoAAAAAAAAAABMR1AAAAAAAAAAAmIigBgAAAAAAAADARC6+53u+5/Jb3/pWdXez+fN/frP5D/6D6g4AADCo//g/3mz+4T+s7lSeP3++ubi4qO4BAAAAALBE//yf//PNT//0T1f3rjx9+nRz79696t6VnA2+vLoJAAAAAAAAAMBQPvzww83Xvva16t4VU58AAAAAAAAAAExEUAMAAAAAAAAAYCKCGgAAAAAAAAAAE7n4nu/5nstvfetb1d3N5kd/9Ec3f+Wv/JXqHgAAMKS/+3f/7ubXf/3Xq3tXvvrVr24uLi6qewAAAAAALNG/+Bf/YvOzP/uz1b0rT58+3dy7d6+6d+Xixo0bl2/evKnubjZ3797dfPLJJ9U9AABgSB999NHm448/ru5defv2raAGAAAAAMDCffrpp5v33nuvunelLqhh6hMAAAAAAAAAgIkIagAAAAAAAAAATERQAwAAAAAAAABgIoIaAAAAAAAAAAATEdQAAAAAAAAAAJiIoAYAAAAAAAAAwEQENQAAAAAAAAAAJiKoAQAAAAAAAAAwEUENAAAAAAAAAICJCGoAAAAAAAAAAExEUAMAAAAAAAAAYCKCGgAAAAAAAAAAExHUAAAAAAAAAACYiKAGAAAAAAAAAMBEBDUAAAAAAAAAACYiqAEAAAAAAAAAMBFBDQAAAAAAAACAiQhqAAAAAAAAAABMRFADAAAAAAAAAGAighoAAAAAAAAAABMR1AAAAAAAAAAAmIigBgAAAAAAAADARAQ1AAAAAAAAAAAmIqgBAAAAABO5uLiobafw6tWr2nVJo5+6bZiWbcy8PXnypHbf5f/pr+m4cufOneoR7OPYDADnQVADAAAAAFiEFDDTUkRP4beukJmWn5Wm4A7sKseRtmOJ4wgAMCZBDQAAAABgtkpBNYXTW7duvWsPHjzYPH/+vHrEdflZaXlsKboqtkI3TaM65HO0VLvHkhwb2o4ljiMAwJgENQAAAACAWUpBtBRUj7VbbAXOQwIa+cwPcSxxHAEAhiKoAQAAAADMSrmaf4iARp0UW7N8V8bDupWwVz7zQyvHkRyvAAD6EtQAAAAAAGajXPk+hQRBXBU/rjLdRLZzitq7Lf+fJjTD0PK+GivstS3HK8cRAKAvQQ0AAAAAYBZS7Oxy5fvjx483L1++fNcuLy+vtfx/HvPBBx9Uv9Esz6fIOqwSzkgQo0w30bRf8/9p29NJCG1wrKGOJfl5l2OJ4wgA0JegBgAAAABwcl0Kq6WYev/+/c3777//rtXJ/+cxz549+26xta3Qqsg6nDLVxKEjGWyHNtYa2CijiZyinYN9x5ISzuhyLMnPy7Ekv+M4AgAMRVADAJiluhNKaa6sAgCA9cn3/H2F1RRVm4qp+5RCa5bTRJH1OBlFI9tvyKkmsiz7hD72hTQStijhjL7yOyWw0STP7bwFANCFoAYAMJicENkOVeREHQAAQJv0G9qK+6WwOoQsZ1+RVT+mv2yzjKLRViA/VJapf0kXeY80vQczEsYxYa9tWUbbcWTIsBIAsF6CGgDAIOquWsmJOleSAACwVCn6bQeRh2hN6h57TFvS9/DXr19Xt65LMXSIwuq2fUXWR48eVbfoooQ09tmebmK75f/2TU0TeQ5hDdq0vQ8zEsaQ9h1HjAQDAOwjqAEAHK1tmOJcSeJkGgAA0KTp6vMU74cOaRRZbtM0KGOMCrFWXUIaJZzRNN1E/q/L1DTRJRDCeWoLp7UFKo7RFtbIccS5EACgjaAGAHC0Fy9eVLfqtV0hBwAAnK+2QuZQ0500yfKbRnEwMmA3baOPHDLVRPZJfqdtdI01j1RQRhkZop2bUwS+Istuer8anQcAaCOoAQAAAACcRFOoe9/ICkO5fft2devz9oXRaR9ZMYXrY6aayO82Fb/znII0bGsLfN28ebO6NZ6m44jReQCANoIaAAAAAMBJNAUipiiuxlTPszYpjDeNYHBsSKNoC2s0PTfnqSnwlffPmKNpFG2j/5j+BABoIqgBAByt6eqRYuwhiwEAYAwp8NVNKbCE5jv4cVwJ365tSochQhrFw4cPq1vXrXkKFIax71zFkJpCRaaCBQCaCGoAAEdrm9u56f8BAABYnowQ0BRkefnyZXVrGAlLNU2DI0xDceqReWLKUAgAsA6CGgDAIHLV1PYJtAQ0cn/Iq6kAAIDz4Cr0+Zp6mom20WGMqkHMObTTFCIBABDUAAAGkxNoZajlBDQMtwwAALRpugp9quJmW+iAeg8ePKhufV7bNCXHMqoGczfl6B0AwDoIagAAAAAAszJVAb4pdGAag3qZ9qTJGKNpFG0XATx58qS6BQAAyyGoAQAAAAAjSRE5LVM0pF1cXDS2/Lw8vq0gviannNaircDv6vh6TSOQNI14MaSmUU5MLYERcACAJRLUAAAAAIABlWBGwhcZsSEtI0TsGyUiPy+Pv3Xr1rvfP4fQRlORNdtjrNee5TaNppH1GXN0iCVr2mZTBFuMckJfTcGiMTQ9l/ctANBEUAMAAAAAjpTC/3Y4Y6ipO7ZDG2sNbDx79qy6dV1e+9CvO8vLcps8fPiwusW2tv0wRbClafSVoT5rcAwjuwAAfQlqAAAAAMAREtBI4X/sgnGeI8+1xsBG29QZ5XUPISOUtIU0sh5G0+hnimlPiqbRV9qmsWH9mkatmDI80XT8N40SANBEUAMAAAAADpDARAIEU17Rn+dK0GBtYY2MltBUhI+87mzrQwvy2V5ltJMmef6mURuYdhoJ6OPUo62cerQZAGCZBDUAAAAAoKcU5rqOopEAQEYdePny5eby8rK25WdpXUcnWGNYI1Og7AtrJGiRwEUJbTRtg/x/Wh6Tx7eNohF53rYpWGg25YgBcxg5gXlqOnYMNRpPm6bjy5SjzQAAyyOoAQAAAAA9dSn8p0iXEEYCALniu+3K6vwsLY8rwY19Rb5zDGsUJbSRbZAgxm7L/6e1jaBRCGl0IwzBnDWFeHKsGPM42bZs054AAG0ENWBBtq8GSRq87kRE/r9cVXLocKCHKs/Ztm7lMXM7kdS03nNc16GUfbHE/RVtn4X8X1n/Y3X5zJXtdArb69e0jmllPdf6fgYAgCnl+3WbBCxKOONQJbSRwEZbcGFfYGSJsu3yuqdQ9hX7NY0eM+XUDgrfNMnxsulYOdZxMudYmpadY8uUnw0AYIFu3Lhx+Z1/vtvu3r17CUu2/X7ebt/5clw9YlhZbt3zpQ3l5cuXtcvv2r7TSRnt9UeWX/e8XVpe25DqniOt6fV3Wfc8Zk3mtL8O+fy0/U5dO/T93/d50g59rr7yHMfsx7Qs49Sfv33qlpU2xTaGMX35y1++9r5++/Zt9VMAYO729dGH/p5dtPUBDv2O3PZa5uLYvk9TG7pPVPccaWO9H06h7vWlTWmM92zeC3XLG7PvWfd8aUOqW35aV03bOp/JNof+3hDa3h9DP3/bc6Xl54dqWzYAMH/f/OY3r/0Nf/r0afXTzxhRA2YsqexcCX9s6rsMB7rvip++ytX7TVdUdJHXlmVMfZV/ni/rf8y6L82S91eUz0OXYWu39X3/H/o8sf1cY2yjjIhR1u3Y926Wkf15qpFAAABgqR49elTduu7ly5ejXUHdNiXIIf2Xpcjrvry8fHd1etPr7yPLyX7aNxUN82SfHS/nFbq0Y89HnkLeH03HiZxHyesa4nxNltG2fcb8WwAArIegBsxUCr1z7RCVQvaxheJtUxaMS2dqyPWfs6Xvrxji89ClQ57XNMTnLs+V5bQ9Vx/bAY2hlWAJAADQTVPfKgGAsQtzDx8+rG5dN1T/Y64SrNgObZTgRlt4Iz8rj03hNL8roAHr1hZqi5yvOfQ8SI6z+85RTfG3AABYB0ENmKF84Z9riCAdkiEK2XWmKhi3Xf20NmvYX0N/Hpr2f55n6CDEENs++3CMgMa2bN8p9iUAACxdW2A9AYCxpfiXImCd169fV7fWL9u6BDdKeKOu5WflsQqncD72hTVyHiQXxORcSI7rTUG3/H9auYAm53nazlHlOaf4WwAArIOgBszMvqJ0vvDnKpByJch2y/+VK0rG0KXon+fOOtStW1m/NnntbSe+jjV00X/O1rC/8hrq9lfWK+u3u975/33v/yxvN5SQ19D0vjjmuWKKAETZj3XrWfZll+2S7Q0AAPTXpW8wthcvXlS3ANgX1oicC8nFMTl/liDGbsv/p3W5gCbnZfKcAABdCWrAjLSFCNKxSLE1X/hzFUjdlSD5v3JFSZ9Cchf7iv7b61eXHC/rnJ/tKxqn8zNGwbip6J91ybaqK3Dn/5doLftr9zVkXbJvsl5Zv135/7ymfeu8HUrIv3Ud7vKe2PdceUzX5xrS9vu27Me69Sz7smyXNm3vGQAAoNnt27erW+O7efNmdQuANjkXMsW5vZxvyXkZAIA+BDVgJlLIbQtppGNRV4RtUwrJx3ZI6grm2/quXykatxW3xygY7055kedPRyrrUteZynqWbbgka91f2VdDrnNZft269+1gd32uoeQznefsexIg22VfWGOMUAkAAAAMQZ/1eLngo0vbd/5gKXLuJK+n7bzNocoFNF3PVwEAbBPUgJlom0v24cOH1a3DpEOSztWhV/i0FZlLwfgQ+4rbQ0+psR2EyfPm+dfYkVrj/uoT0tjW9lqz/LppScZ6riFk++cEQN+AxrZ9YY0xQjcAAMBw2s4fwJjGKHQPZc7rxjzkvM1QgY0S0Djm/AwAgKAGzETTXIf54j9EmCDLOKTzkOJ720gfx3ZI2orbXeZ/7Gp7WVnvtuddsrXsr23Hfgby+012t1W20VjPdWyQJeGKod63+16jK5QAAKBe07QjY/WH6rx48aK69XlTTr+yNukDbbf030pLwD/t4uLiXdNfus42YUlKYCMt53FyLiitSX6Wx+W8TJqABgAwFEENmIG2Du2p555tOtmUTspQReO2q/vH6OwfO0LJnK1xfx3b+c3vt3W4tx27jdrWtelkahfZ5kMEtra1hUoAAID+pipWDzVi3xJkm3Zp28GK3VaCFruBi+2WkQW3W/rWpWV7n9M2n7umEWUElThEzuPkXNB2eGO35Wd5XM7LDH1uBgA4b4IaQKOcwGgyZNihrZMz9JCuKdivtVO1xv3VFgrpo8sJm6GeqykUcuiJvbFOBLSFwAylDAAA9dq+m08xjWBTvy/9kGND7mOqC0d0absBiqa2HazYbSVoMVTg4pz7S019a31IAADoT1ADZu6Und2mExhjhB2aru7PSZUhDTWqxBytcX8Ntd5dRqYZ6rmWchVP2+s9ZvQPAABYu7aQd1uA/lhZdlO/b+79kKZAO+swZR+y6bzDqUekBQCAvgQ1gFoZHrTJGFOHtHWoM4zpENZ8YmiN+2vIqTn2hTCGfK4pts1QnCwFAID+0r9o+i6dIEUCFUN/928LaWRd5jyaBuvR9D5rem8ObW59ahhL/s7UTcOSBgCsh6AGzNyprmxvet6cABpq5IFtbcscalSRNc9Xusb9NeXVMOd65c2aPxMAADCmtkB8itaZjiOB+mMLy1lGpgBpK4SPEc4f2tz6Hukr77YE+HdbRk/ZbimSnnsoJtvqVNrON4xx7gMAAMYkqAEz0NaZLFfjTK3pJNCSC7trPpmyxv01tLaTSUOe0JkixDK2tpPAAADA1ff+tilQIlM0JLCRoEUJbZRWJ/+fx6XlPEB+b9/0klmHJRSou4bjt4MTda0uTJH/b7J7JXppmRZ1t+WcwW7Ltt1uNMv7dmxNF6nkfQAAAEsjqAEz0XZiYeqwxrFX/ByqaRsMMapI2/ZdujXur3ASDAAAmLP0WfaFNYoS2igtIYzdlv/P49K6hKeXEtKIrGddYGK31QUotltdmGIJI4qsSdMFIftCRcfKuY+mz8W5jpIJAMCyCWrATOw7sVDCGlMU5duu+s9JkKm5ur+d/XWcNYd4tu1enZc29ok0AABYuxLWmLJfkedaUkiDdWk7zzDmqBqmPWEIeY/WBeWW1ACA9RDUgJlIp3LfiZ0UwHOFTQqsY3Z+hxoRYU7WPAXIGvcXh6kLY5SO/O7VeQJQAAAwjPTnM9pD19E1DpVzBpniIc+lMM0pNU01Mtb5ifR1my40MO0JAABLJagBM5KTLV2uwkmBNR3UsQMbdbYT3EM3hePh1W3noZr9dVrbgYyyT4QxAADgdBKeyPQdCWwMWTzeDmicYtRE2NX0PkwfdIzzVI8ePapuXWfaEwAAlkpQA2ama1gj0gFOQTYF2hRrgfXLSa985rcDGQAAwHwksJFC9nZoI61LXz+PKcGM/G6WIaDBHDW9n9NPHVJG02jq9+ZzYnQZAACWSlADZignYdLZ7COd1hLYSCcWWJcycsbQJ70AAIDxlNBGWvr6CV40KaGMEsxQgJ5O+lrHtnOT92mToS4myvmtjBzZxGgaAAAsmaAGzFS5+qbr6BpFAhvpxApswDrkc5zP8zEjZ2xflbd9ZV7fQBgAAAAUTX3K9F+HCGu0TXmSfq0wE32V861zb3l/AwDrJ6gBM5crFPLl/NDAxhhzgwLTKFcPdQ1p1IUx0ravynNlHgAAAENI/7LpfNUxYY30hTNKSVNfOM+51n7t7kgtxzQAAOZNUAMWIJ3PFFlTcO0b2Mg0CUMNOZnnLoXfqRv92V/L1zbEa2QfJ5RRtrswBgAAAFNKP7TpXFWCFgkM9LmIKI/d1xfOcwIAwNIJasDClMBGirNdQxvHXMUAnMa+z2yOASWYAQAAAKfy8OHD6la9chFRQhh10/Tm//KzhDry2DamhAAAYC0ENWChUpxNkbbrtChDhDWahpxknuyvZWvbf/ncC2gAAABrtT19w3arK/IPoYxSeEw7ZxnRcV+AIn3chDAyWsbufs3/7QtoRJ7D6JEAAKyFoAYsXJkWpUtgI53iLic1bt++Xd1iCeyv9WkLVWUkDSemAAAAmJP0UxNY6Tr6ax9ZZpatLwwAwJoIasBKlMDGvg7xo0ePqluHGevqFcZhfy1T02ga+XwbSQMAAIC5yrmpXGAwlFyYlGWuzfZoLFM3AADmQVCD1Rkjud/mxYsX1a152BfW6DIdxs2bN6tb171+/bq6xVzYX+dj6NFT5nb8AgAAYPlygUECAQlsHHqeLr+bZRhFAwCAtRLU4GycU0FyX1jjyZMn1a16OsHLYn+ti1FQAAAAWIMENnKOKqNilNBG0/mq/Dwtj01Aw2iSjCHnRC8uLmbfbt26Va0xALBmghqsTtMV511GkjjEWMs91rFX3jd1nB88eFDdYk7sr/VoGwWlbfSUQ8z1+AUAAMB65AKTEtpIK1NwbLf8PM3FKAAAnAtBDc7K0Feq7xuZ4pSOLei2BT3m/LrPlf1FX94XAAAwrpyDqGtNys/zXb1ru3Pnzt6Wq7Pz71qlsF9X+E8DAACYK0ENVqctoNB2pfoh1jxaQdsQk0ZpmB/7i77OaTooAADoa3cY+kNahq6va03Kz9OH69oySt6+FuVfAAAA5kFQg9VpGyIxJzGGkitXlqrraBuZG7TJmq/GWSr7ax2mCJvl+OVELQAANGuaXhIAAACGIKjBKrUVrNuGGe0qyxg69DHEeg2trWCcIu+Y6zzXbTJn9tf6DXHcyX4a8vgFAABr1Da9JNSpm3olre2CImAeci657vM7xwYArIegBqvUVrDOMKLHFpTbhio9VJY55Cgdjx49qm5d1/UkQR7XFnoZYlvWyegPCsn92V/rsO/zecw+zO+OcfwCAAAAAACgO0ENVmlfobMtxNAmRc7dKSSGHA41xe4s/9hien6/aVqDtkJ+nfv371e36g0ZMMlyMo+vKRkOZ3+twxiBGyENAACYVs4XHNPSL+jaXr58WdtchQ0AADBPghqsVk5INElhOQXmPsXOFKVT5NwuSufEydDDoWb5eZ7dQEhXZT2b7Cvk12nblnFswKQU/I3KMAz7a/naRgWKvmGNuuNCOfELAABcl77zdsjhkPbs2bOjWtaha8sFK3UNAACAeRLUYLVyQiKFyDYpXKbgnCJmXdEz/9dWlM6Jk7GUMEkK6lmHtDpZx33rWewr4DfJttz3uyVgsr0927ZpWl7bvnWmP/tr+bIP94Uo9h2/9u2zMY9fAAAAAAAANBPUYNUePnxY3WqXImYpem63/F9TUfrQ0ENfKahnHdJ216+sY9t6FlnfY66m6VL8L8r2bNumaXltjMP+Wr5cFbcvbBZl/+3uu7Z9NtXxCwAAAAAAgOsENVi1PsXqPo4NPUxtqPUda3vWyWgCS9rGc2R/LV9GvegS1uhjaccvAAAAAACAtRHUYPVKsXqIYmeWkXlmhy5ydr1yvq8Uz4de3ywry9w3LcOhyjpnm3A8+2v5hgprjHX8AgAAAAAAoB9BDc5CCpMpdh46ukAKnClIZxljybJLQf3YouwUxfMsO9tziABA2b4K/uOxv5atHL8OOTZMcfwCAAAAAACgu4sbN25cvnnzprq72dy9e3fzySefVPdgnV69erV5/fr1u9svXrzYPH/+/N3tohRDb9++fdJC9JMnT96tX+yuY5F1zXrGzZs3T3a1fNmmdduz2C4yZ51Pub7nzv5aru3j14MHD979u20uxy+g2UcffbT5+OOPq3tX3r59u7m4uKjuAQBMI/2LW7duVfc+L+H8U1nj96JTbk/a5fxbXf86Fz2cc7+66fiQ8w5tF4Mc+ntTaNrXS+SYAgDz9emnn27ee++96t6Vp0+fbu7du1fduyKoAQAAExLUAADmQlBjOoqq8yWoUU9QY94cUwBgvroGNUx9AgAAAAAAAAAwEUENAAAAAAAAAICJCGoAAAAAAADf9f7777+bXmO3nXr6EgCAtRDUAAAAAABmo644vPQGnN79+/drP59LbADA8glqAAAAAAAAAABMRFADoIMnT55sLi4uZtMAAADgWE1TG6TBuWgaZSH/T3+mTAEA6EZQAwAAAAAAAABgIoIaAAAAAAAAAAATEdQAAAAAAAAAAJiIoAYAAAAAAAAAwEQENQA6uH///uby8nI2DQAAAAAAAFgmQQ0AAAAAAAAAgIkIagAAAAAAAAAATERQAwAAAAAAAABgIoIaAAAAAAAAAAATEdQAAAAAAAAAAJiIoAYAAAAAAAAAwEQENQAAAAAAAAAAJiKoAQAAAAAAAAAwEUENAAAAAAAAAICJCGoAAAAAAAAAAExEUAMAAAAAAAAAYCKCGgAAAAAAAAAAExHUAAAAAAAAAACYiKAGAAAAAAAAAMBEBDUAAAAAAAAAACYiqAEAAAAAAAAAMBFBDQAAAAAAAACAiQhqAAAAAAAAAABMRFADAAAAAAAAAGAighoAAAAAAAAAABO5+OIXv3j57W9/u7q72fyZP/NnNn/hL/yF6h4AADCkr371q5uXL19W9678nb/zdzYXFxfVPQAAAAAAluhf/st/uflbf+tvVfeuPH36dHPv3r3q3pWcDb68ugkAAAAAAAAAwFA+/PDDzde+9rXq3hVTnwAAAAAAAAAATERQAwAAAAAAAABgIoIaAAAAAAAAAAATufie7/mey29961vV3c3mL/7Fv7j5m3/zb1b3AACAIf3iL/7i5u///b9f3bvyT//pP91cXFxU9wAAAAAAWKJ/9s/+2eZHf/RHq3tXnj59url3715178rFjRs3Lt+8eVPd3Wzu3r27+eSTT6p7AADAkD766KPNxx9/XN278vbtW0ENAAAAAICF+/TTTzfvvfdede9KXVDD1CcAAAAAAAAAABMR1AAAAAAAAAAAmIigBgAAAAAAAADARAQ1AAAAAAAAAAAmIqgBAAAAAAAAADARQQ0AAAAAAAAAgIkIagAAAAAAAAAATERQAwAAAAAAAABgIoIaAAAAAAAAAAATEdQAAAAAAAAAAJiIoAYAAAAAAAAAwEQENQAAAAAAAAAAJiKoAQAAAAAAAAAwEUENAAAAAAAAAICJCGoAAAAAAAAAAExEUAMAAAAAAAAAYCKCGgAAAAAAAAAAExHUAAAAAAAAAACYiKAGAAAAAAAAAMBEBDUAAAAAAAAAACYiqAEAAAAAAAAAMBFBDQAAAAAAAACAiQhqAAAAAAAAAABMRFADAAAAgFW4uLiobafw6tWr2nVJo5+6bZiWbcx81e2zNPutv6bjyZ07d6pH0FW2Wd229L4EAKYmqAEAAAAAvCtUpj158qSxmJmWn5WWxwIAANCPoAYAAAAAnKkSzEgA49atW+/agwcPNs+fP68ecV1+VloeW8IbQhsAp2X0FQBYDkENAAAAADhDCVaUYMaxdkMbMAe7xepTN9NrAABQCGoAAAAAwBkpV1wPEdCok9BGlm+EDViHMurObhs7eNL0vI4tAMAaCGoAAAAAwJnIaBcZRWMKCYIYXQMAAOA6QQ0AAAAAOAMJTWS0i30eP368efny5bt2eXl5reX/85gPPvig+o1meT5hjf1OOXJAGWGlrgEAAOMQ1AAAAACAlesS0ijBjPv372/ef//9d61O/j+Pefbs2bvH7wttCGsAAAB8nqAGAAAAAKxYRmVoC2kkaJHARVMwY58S2shymghrMBcJFZXRYcZqXUabAQDgvAlqAAAAAMBKZVqLBw8eVPeuyygaCVoMIcvJ8pokrJH1AQAAOHeCGgAAAABMLgX7i4uLQVuTusce0zJCxVK8fv26unVdQhWHjqLRJMtrC2s8evSougUAAHC+BDUAAAAAYKWaRtPINCVDhzSKLLdpGpS2KVgA1qou9DdGu3XrVvWMn5djb93jx2imuQKAbgQ1AAAAAGCF2qYZGWq6kyZZ/gcffFDd+7wljUgCAAAwBkENAAAAAFihpmlPmka7GNrt27erW5/34sWL6hYAAMB5EtQAAAAAgBVqCkTcvHmzujWuqZ4HAABgaQQ1AAAAAJjc+++/v7m8vFxkG3vakLV7/vx5dQsAAOA8CWoAAAAAAACMpC70t9b27Nmz6lUDAG0ENQAAAADgjLx+/bq6BQAAwCkIagAAAADACt2+fbu69XkvXryobo2rKRDywQcfVLcAAADOk6AGAAAAAJyR58+fV7fG9eDBg+rW5zUFSIBluXXr1ubi4mK01nQMAQBYA0ENAAAAABbpyZMn79qdO3fetbpCX2n5eXn8q1evqiWs2/3796tb12V7jCnbucnNmzerWwAAAOdJUAMAAACAxSjBjIQvcrV1WkaI2DdKRH5eHl+uAj+H0EbTNCPZHmO99iy36Ur4rM/7779f3QPgEDnOlvBhl7BiaeWxaeX3AYDTENQAAAAAYNZSkCpFqBLMGMJ2aGOtgY1nz55Vt67Lax/6dWd5WW6Thw8fVrcADpNj93b4oE8b6u/H1Eowo7yOHGezHcrfxK6vqzw2rfx+WWYJbwAA0xDUAAAAAGC2UjhKQaprEepQeY481xoDG48fP65uXVde9xBS4GsLaWQ9jKYB0M12OKMEM8ZUwhtCGwAwDUENAAAAAGYnBaoUisYOaGzLc6UYtrawxv379xunQIm87mOKctleKey1FRHz/FkPYD1evny5uby8HK21hczWrPz9myKc0WQ7tCGwAQDjENQAAAAAYFZSpEqBqktIIwGAFPPaCob5WVrXot8awxqZAmVfWGP3SuqmbZD/T9u+0rtNnrdtChYAruS42vXv31TK34a1/V0EgFMT1AAAAABgVroU/hO6SAgjAYCM1NA2pUZ+lpbHleDGvtDGOYY1ihLayDZIcW635f/TulzpLaRxnFIgHbPt+7wB48vfm4TkuhxXi/wdK0HF0rZDinWtPK78bpe/CUWOFVlHAGAYghrAqLavsskX+boTAvn/crVO2pTKc7atW3nM3E7QNa33HNd1TGU77NuH57RNAABgyfIdvk0KSyWccagS2kixqq1ItcYCdrZdXvcUyr4CGFKOLXUhhC6tTzBhKjlnlb83XUbRyGsvgYz8HStBxdL2KY8rv5tjdJZVwhv7ZB33/Z0GALoR1IAZqCsup6W4PIYst+750oaSDkaWl05GWtLgTZ2N/H+5WqdcKVKK62MpRf3ynG3rVh6T15HfGbrgn2XWtabXv73udeud/3/06FF1b/52X3dpbfs/+2B3O+zbh2X/ZbmH7sO2z87Q79fyGaprQ6pbftrQrwcAALrI9+Cm7/aRQlIKS0NJsSpFqrbC3Rq/G+d1j1mwLIXEIfcVwBrl717OWbXJsXo7nNElkNFXCW/kOfYFNvJ3WlgDAI4nqAEMqhSX93Uw9inF9aG/9JfiftuJv33GCmzsk+fL+h+z7muQbZB9cOh2KKGNQ062tp1kfPHiRXVrGK9fv65ujaftPXzz5s3qFgAATKctdJ4i1RjFqWgLa6QPsVblSuoU5YYIbWwHNMbaVwBrsu9iqxxTc6ye8phaAhttfxdyXm7qc6MAsDaCGsBgSgF9jkqAZMiQw6HF/kNk/Y8JJ6zB0Pvw0CBQUyd16H3TdjJ4qPddWxjESVUAAE6h6Xt1AgBjf0d9+PBhdeu6tRejUpTbDm2U4EZbkS4/K48d+0pvGFKOMzm/MGY75/M3dJe/LU3vlRxjxwwodpG/C1mHJksa0RcA5khQAxjEnEd6KCGHMYwx6kedc+/4jLUPy8mZPiddb9++Xd26bqgAxb71GXr0jl050QoAAFNr+z7dNrrdUFIMa/ouPMWId3ORbV2CGyW8Udfys/JY4Yzx5D1Zt/2HbG2FWGA8bee6Eh6cw7E169B20dJUF7EBwBoJagBH2xfSKAnwcoXN7smAnHRou0rnGF0K/OUqoLp1K+vXZuxOyZxDMFNo24dl37W9t7roEwKZ4gTxvpPAQ70fmkbtMO0JAABzMlZ/sY+xw9IAnJe2i3RyPmtOAbgE85r4+wgAhxPUAI7SFiIoAY18mU/noq6Dkf8rV+qkuJ6OyFAn4faFNLbXr674XtY5P8vj2tYrBe99oyAcIsus275Zl2yrY8IJS9C0D/P683rLvmt7b5Xtsk+fkVGa3gtDdU7bpj0pjg0Htb1f67YnAACcStuodkMTWgZgCm0X6czxb1HTubBzvrgMAI4lqAEcrClEEPnyXgIafZTQxrFhg6YCf9F3/fK4PL6pUxJ9RmXoanfKkzz/vnBJ2YZrUDflS3n9fWS7JLDRtv/yXm4LL2xrOlG8pM5p0wmBNQV9AAAAAJam7/nUKUwZmgSAcyGoARysLfmdeRSPkbBBCvKHdgLqCvxFCtGHBhn2hTWGngJlu/DfN1yydBlVYvf1J2xxzOvft/+6hm3qQjLFmCNdbDt29I6m33cFIQAA52zfNITAsuQ8wpzauZzT4XBt561OyfkiADjMn//ff/+7f3/+53/+3b/bBDWAgzVNz5AgxBAdzyyjrSDeJIXytpE+DlnmtraQR5cpK7raXlYJaZyzoV7/vuV0DVo0dZyPDVDUnRiue65jR+9Y0ugfAACch6Yi0JD9rH2avs+7kvhwCaNvt/S5SssUlGkXFxfvWtfgOgAAwNIJagAHaTt5cuqEddNJvCHDDhnto8kYJ5aOHaFk6dq29yHaltf1JPBY05/UPX/Tc3UNlexqe4+6ugcAgDmaqoB/ToHmbNMubTtYsdtK0GI3cLHdMnLhdkufp7RsbyFygM/M9ZhoxCkAOMy337ytbl0nqAGsSk4MNRky7NBWzB6645KAyTkXz8d4/Vle04gYkZORxzj095t+r2kUmENH72h6j2Y0HAAAOJW27/1dpyk8RlN/Mn2HY0dmHFNdOKJL2w1QNLXtYMVuK0GLoQIXCoGwLDlG1B1fhmo5zqzVmNPqjqFpXziXBADtvvhvNMcxBDWAwZ3yxErTiaExiv1NHZGhO5GmPBnn9bcFd7q8h9s61Id+Bup+r7zP6oIlh54IbXqPmm8UAIBTaxv9ri2Yf6wsu+n79dynPWkLoQMwX03H75y3OfYioiG1/f11LgkA2v36/+q3q1vXCWoAq9GWNh9j6pC2jshQnalzP+E25utvC+50Dds0rd+hI13UPW95n01xcnjoMBMAAPTVNvpdghQpFg1dvGoLaWRd5jyaBnAecmy8vLy81s794p6lazvX8+jRo1mENbIObRcKOZcEAIcT1AAGd2iR+lhNz5sTa2N0GtqWOdSoInO/cmtsY59waBuesUtnuGn/HDLSRdPz7Xvv9h0Os+l5DFUJAMBctAXt8107Q+3ne/CxBawsI0Prt31/HyP0P7S59RvTB99t6W/stoyest1SdBaKAc5Jjnk5RtYpf++O/Vt3jAQZsw5N2kbBAgA2m3/zf/i91a16ghrAQdqKx+lItA2JN5amk2tLDjs4STWutlFRjp3+pG+Aom3ak2h6rr7BqKbXZahKAADmIv3NfcWfjEaX4lGCFiW0UVqd/H8el5b+an5v30h6WYcxQv9D6/pdfjc8sdt2gxRp+f8mu1f2l5bA/W5Lf2a3ZdtuN4BztC8QmL91U59nzd/MfUHG/H1w7AaAdn/w//zjd//+D/5n/+bm5/53P/Pu9jZBDeBgbSdspg5rNJ2MG1vTNhhiVJG27XsOpnj9Q3Qoh3oPtE17UtQ9V1unuU7TyWidawAA5iTfT7teqVtCG6WluLTb8v95XFqX79BLCWlE1rMuMLHb6gIU260uTLGEEUWA8eV4UHdcOVXL+qxFl793+buVv2U519r3wqCuSqCx/M1sk/NT+bsBAHTz//m//sHmv/f/+7ere58R1AAOtu+ETQlrTBGiaBv94BSdt77Fc6479UgoXYMWQ0x/0vUz0vRcXTvpTc+TK+UAAGBuSvFqyhB7nmtJIQ3gOKUwvdQ29UgLjKNLWCNyrimBw7LvS3AjLed8upxfKo8rv5dlZHkl0LiPkAYADEdQAzhYOhH7TpilA5Ev+qXjMJYhRrCYmyVP2bIkx570HSII1BQ02j05vKYrRgAAoIt8J05BqEsB6xjpFyTAnOcS0gBgavnbk9FCup6nyjnXEtxIy/nXtO0gT10rjyu/1+dCo/wtFtIAgOEIagBHyZfzLh2I0nEYO7BRp65TMlTr05lhvZo+A13f6/ls7Goa5aLuuboGlZoCIV3ntAYAgFMpBawUiYYcEW47oCEYDcCplXBi18DGFPJ3Mn+DBRkBYFiCGsDRuoY1ogQ2EnJIaAPWoGn0ky4BiqZhKZvCE3XP1TUwVBcICR1tAACWIt9dE6jYDm2kdemT5jElmJHfzTIENACYm/yty9+nrn/fxlL+Xvo7CQDjENQABlE6D32kuFwCG13mUISl6RKg6DrtyT77Ru9o+oz1/dwCAMBclNBGWvqkCV40KaGMEswQVp7O9qiUhzaAc7T9922q0EYJZ+Q5/b0EgHEJagCDyZf3fInv22lIMTtzIwpssFR57zc5ZKqftvBE03PtG73DtCcAAADweeVc1txbCuect7xXS2gjLeeOSnijtK7K48sySjAjLc8jnAEA0xDUAAaXTkO+4PfpIEQJbBxS2IZTa3q/7wtQ1E1Hsi880fezFU3rofMNAAAAsCwJVJTwRmltoZ6cSyphjPL4sgznhgDgNAQ1gFHkC37pIPQtKqdwndE1hrDdCZm6cV5u375d3equaQSZfR3kuufaN81K3c/bRu4AAADg9HKOpG46mCFbLpoBAACmJagBjK4ENspwfF2kqDxUWAPa7As4dJUrEOq0Lb9uOpIu4Ymm52oajaYpEGLaEwAAAGAIOfdQFwRKAwDgOkENYDJlOL6u06IMEdYYqgjP+TlkhIym93VTgOKQaU+Kuudqmt6kLhAShrYEAIDzU1dETWsKeB9rd/TJQxoAAMDaCGoAkyvTonQJbCRo0eVk0SFFdRj6RGTT+7AuQNH03F3DE32mP6kLhAAAAAAAAHAaghrAyZTAxr6wxqNHj6pbhxnrqiCWr2mkiWiaXqRNn+lPDp32pGgaeaPr+73PcwEAAAAAADAcQQ2YgS7TgAypaXqEU9kX1ugyfUnbdBFtxXjO2xifhab38m6A4phpT6Jp5I3d93tTcKPPcwEAADCuBP/rpn05dQMAAMYhqAEzNrdAxZj2hTWePHlS3arXdboIlmOK6TqaQkDHhKeapj/ZDlAcO+1JUbeeu8eNpqCSzwwAAADnLuebLi4uZt9u3bpVrTEAAGshqAEz0FTY7TKSxCHGWu6xmrZDV03F9SkK/oxjzGlr2sI/x7wXm0aq2A5Q1IUnDgmH1K3n7ue77v1v2hMAAADgHOVisbrRY1zQAgBMTVADZm7oQvW+kSlO6dipGNqK63N+3TQbc9qathFrMuTsoZo69tsBirrwxCHhkKb1LO93054AALBW+a5b15qUn+e7ctd2586dvS1XuufftUr/pq6gmQYAAMDhBDVgBtqKpkMXqtc8ukRbcd2oGss01n7LSdcxpj0pmpaR5206eXxoeKLL9Ce7XCUCAMAp7Q7pf0jLNAB1rUn5efoYXVv6DPtalH8BAACgK0ENmIG2omlODg0lReKl6lrEbpvSYc1XOa3ZGPutLciQITCPdcjoGIeGJ9qeqy7oZdoTAABObYhwNADMTc691oULp2xNocWECuseP3UDAD4jqAEz0VY8bRu+tassY+jQxxDrNbS2QEc6JGOu81y3ydINvd8S/Gi64m2oE8ZNo7skIDJ0eKLuPV9eX91n/tCROwAAYCiHBJs5b3VTr6QZLZCxpJ9e956bWxviYhMAAE5DUANmoq14miT0sYXqtiFgD5VlDjlKx6NHj6pb13U9+ZLHtRW9h9iWdVL8HzIIw+cNtd/aQhox5AmOptBH3Wgex4Qnmj4bQkMAAAAAAADzJKgBM7EviNAWYmiTYu3u1BFDDjObcEKWf2xROL/fVEDvO9pA02gGxZABkzKkYVvxn2EcG9bYF9J4+fJldWsYdVcJ5vnr1uHYq8DqPtNNx4xjnwsAAOYg34GPaelndm3pK9S17avaAQAAoJcbN26kN/nddvfu3e/0L4FTePny5ec+j3Utj+nq8ePH137/gw8+qP3/0rpqWvYh2tYn7RBdtmXWt8/23Na0zocsr245aXmOc1D32tOatnHf/ZbH5nfqllXaoe/dfeqea7cNsZ/3fYZKO5f3FMzdl7/85Wufz7dv31Y/BQDWoq1fekp165N2aP8YmtS9z9Lm9F5r6k/rP/c312PelLqenznnBgDn4Jvf/Oa1v4FPnz6tfvoZI2rAjORK9w8+aB/tIqMKZASHjORQN7pA/q+M8lA3FceYc1dmpIA8b0YuyDo0jVqRddy3nsV3OnnVrX6yLff9btZ3d3u2bdO0vLZ968xw6vZh2W/lfda2z/KYPLZuFIsin7mxPhf7Ps9xzLQnxb5RZIohngsAAACA63J+5vLys9GWtOsNAPiMoAbMzMOHD6tb7RIUKCGD7Zb/awoRHBp66CtF8axD2u76lXVsW88i63vMNA1dwhpF2Z5t2zStreDP8Nr2YXmfte2zfftrzJBG1E1/suuY9/i2LqGQoZ4LAAAAAACAwwlqwMz0CRf0cWzoYWpDre9Y27PO48ePFcJHMNY+zP4aM6QR+0awyDoMZV8oZMjnAgAAAAAA4HCCGjBDpTDd5Qr5fbKMDCs3dIAgQ/kNsX67Ukween2zrCxzrEJ1Weeu00/Q35Bhjbxvs6wp9te+9/GQU5HsW5ZpTwAAAAAAAOZBUANmKgXeXO1/aHE6xegECMYcMSDLLgGIY0MbU4QdsuxszyECG2X7CmhM59jAzfZnYl+AYkhtn40h12PfsqZ8zQAAAAAAADS7uHHjxuWbN2+qu5vN3bt3N5988kl1D5iLV69ebV6/fv3u9osXLzbPnz9/d7soxeBMf3DK4MCTJ0/erV/srmORdS3TNOQq/1MVkMs2rduexXaRPet8yvVdq4uLi+rW5yVU0fZe3rf/5vKZANj10UcfbT7++OPq3pW3b982Hg8BgGVKn+XWrVvVvc9LCP1U1vid45Tbk2ZN77VcRDOXcys5j/XgwYPq3rKd+nPQdsxbmjm9RwGA5fn000837733XnXvytOnTzf37t2r7l0R1ADgpA4NagAslaAGAJwHQY3pCGrMk6DGtAQ1hiOoAQAco2tQw9QnAAAAAAAAAAATEdQAAAAAAAAAAJiIoAYAAAAAAAAAwEQENQAAAADgTFxeXq6uwaHu379f+55aYju1999/v3a9ltjyWgAAxiaoAQAAAAAAAAAwEUENgJW6uLiYTXvy5Em1VgAAAOeh7epyOAd17/00oxUAAICgBgAAAAAAAADAZAQ1AAAAAAAAAAAmIqgBAAAAAAAAADARQQ0AAAAAAAAAgIkIagCs1OXl5Wza/fv3q7UCAAAAAACA8yaoAQAAAAAAAAAwEUENAAAAAAAAAICJCGoAAAAAAAAAAExEUAMAAAAAAAAAYCKCGgAAAAAAAAAAExHUAAAAAAAAAACYiKAGAAAAAAAAAMBEBDUAOKnLy8vadv/+/eoRAAAAAAAAsB6CGgAAAAAAAAAAExHUAAAAAAAAAACYiKAGAAAAAAAAAMBEBDUAAAAAAAAAACYiqAEAAAAAAAAAMBFBDQAAAAAAAACAiQhqAAAAAAAAAABMRFADAAAAAAAAAGAighoAAAAAAAAAABMR1AAAAAAAAAAAmIigBgAAAAAAAADARAQ1AAAAAAAAAAAmcvGFL3zh8u3bt9XdzeZP/+k/vbl161Z1DwAAGNI3vvGNzT/5J/+kunfl7t271S0AAAAAAJbqD//wDzf/4B/8g+relb/9t//25q/9tb9W3bty8Z12eXUTAAAAAAAAAIChfPjhh5uvfe1r1b0rpj4BAAAAAAAAAJiIoAYAAAAAAAAAwESuTX3yhS98YfPFL36xugcAAAzp29/+9ubt27fVvSs3btyobgEAAAAAsFSXl5ebb33rW9W9Kz/+4z+++epXv1rdu3Jx48aNyzdv3lR3N5u7d+9uPvnkk+oeAAAwpI8++mjz8ccfV/euJLhxcZEMNQAAAAAAS/Xpp59u3nvvvereladPn27u3btX3bti6hMAAAAAAAAAgIkIagAAAAAAAAAATERQAwAAAAAAAABgIoIaAAAAAAAAAAATEdQAAAAAAAAAAJiIoAYAAAAAAAAAwEQENQAAAAAAAAAAJiKoAQAAAAAAAAAwEUENAAAAAAAAAICJCGoAAAAAAAAAAExEUAMAAAAAAAAAYCKCGgAAAAAAAAAAExHUAAAAAAAAAACYiKAGAAAAAAAAAMBEBDUAAAAAAAAAACYiqAEAAAAAAAAAMBFBDQAAAAAAAACAiQhqAAAAAAAAAABMRFADAAAAAAAAAGAighoAAAAAAAAAABMR1AAAAAAAAAAAmIigBgAAAAAAAADARAQ1AAAAAAAAAAAmIqgBAAAAAAAAADARQQ0AAAAA4LuePHmyubi4uNby/6dw586dWa3PUjXt12xf5m1un0kAAI4nqAEAAAAAMKBXr169K6InBNEUNEkrP89j8zsAAMB5ENQAAAAAADhSCWYkgHHr1q3NgwcPNs+fP3/XmpSf57H5nfyu0AZz1xY+WkLz+QIA5kBQAwAAAADgQCn6pnBdghnH2g5tKCgDAMA6CWoAAAAAABwgAY2EKoYIaNTJsvMcAhsAALAughoAAAAAAD0kOJERL8YKaGzLcySwIawxnmzb7alrdlv+Py2PAQCAIQhqAAAAAAB0lKJ+ghP7fPDBB5vHjx9vXr58ubm8vLzW8v9peUwXwhrDKuGMBDGybdumrsn/p+UxJbghtAEAwDEENQAAAAAAOugS0khAI0GMZ8+ebe7fv795//33q598Xv4/LY8pwY19oQ1hjWEkZFHCGYfYDm2cY2Aj7+3t0NFcWz6LAABzJagBAAAAANBBW0gjReGELVLEPkQJbWQZbQVmYY3DZbtlNIxDAxp1sqwsEwAA+hDUAAAAAADYo60Yn2BFAhpNo2f0kWVkWW1hjUePHlW36KqMhtI0vckxssyMriFAAwBAV4IaAAAAALBgCRCkSDxUaxptoEz1MGRbkqYCfwlpDK0trJF1EQroroQ09snUMxnRZHcKjTItTVt4Jox2AgBAV4IaAAAAAAAtnjx5Ut26boyQRtG27NevX1e3aNMlpFHCGZl6pm5UlDItTfZHAhttugRCAABAUAMAAAAAoMWLFy+qW5+3r2g/hIQI6jSNfMLntU0TkxEyEtDoM2VNAhv5nbbRNdqmyQEAgBDUAAAAAABo0TTtSYr2Y2sLEZhmo11GQhlrypp9U9O0jcICAACCGgAAAAAADZrCEG0jKgxtyudai+y3plFHjg1pFG1hDSOeAADQRlADAAAAABYsxeJMxbDExnFev35d3WJX25QnQ4Q0iocPH1a3rlvrFCh5XRcXF7NvTaOpAADMgaAGAAAAAACrkdE0mor0L1++rG4NI1PTPH78uLr3eYICAAA0EdQAAAAAAOhJEX6+mkYayTQlCVYM7f79+9Wt69Y6qgYAAMcR1AAAAAAAaNBW2M/IDVNoCoXcvHmzusW2Bw8eVLc+r22akmMZVQMAgD4ENQAAAAAADtA0csOQnjx5Ut26bozRIZauLTwz5vZqG1WjbR8CAHCeBDUAAAAA4IylsJ1Cclqmabi4uGhs+Xlaefy5aBotISM3jD2qRtPoEJnGg+uawjNN+3BITfvkxYsX1a11u7y8XEQTcAIA5kBQAwAAAADOTAlnJHxx69atd2GAtH3TNOTnaeXxJbyx9tBG2xQjjx49qm4NL9u2yZjTeCxZU7Blimlibt++Xd0CAIB2ghoAAAAAcCZ2wxlDKMGNEtpYo1yB3zQiQ17/GK87y2wKzmTkBqMCXHeqaU+KpulPmvYjAADnS1ADAAAAAFYuBewEKYYKZzRJQTrPs8YRNpqK8FFe9xDToGQZbSGNePbsWXWLLqaY9qRomv7knKYKAgBgP0ENAAAAAFixFIgzgsaUEghZ4+gaL1++rG7Vy3bO9j40sJFtlmW0hTT2rcM5e/36dXULAADmTVADAAAAAFYqhf+uo2hk1IGEANIuLy9rW36WxzWNGrAtYYO1hTUyfca+oES2d8IWZWSRhDaaghv5/zwm2ymPbwtoRJ7blCf93bx5s7o1vtu3b1e3Pu/FixfVLQAAENQAAAAAgFVKAGBf4b+EMxLCyNQeCQG0BQHyszwuU2/kd/aFNs41rFGU0EYJbuy2/H8es28/hZDGfsIQAAAshaAGzFi54mL7yordlv9Py2PSplSes23dymOarhw5lbJdm9b5HJRtULcdyrY49fbYfv+n1a1nWlnPub3PirbXMOS679tW+flctlNZl6Z1LdtlLusLAABLk+/RbSNpJFyRwn8JZxyqhDYS2GiSEEK+269JtlmCKl1GFjlW2VdCGvs1BV6m3HZTjt4BAMCC3bhx4/I7/3y33b179zt9DFiO7ffvdnv8+HH1iGFluXXPlzaU73S+a5fftX2nAz/a648sv+55u7S8tiH13R9dt+3Q6zmWQ96PeW2H7MP8zhTbJa/pmPdYWpYx9LrWPU9a02ftkO18yHofuj/H2EZdHLNvT7G+MIYvf/nL197fb9++rX4KADCMtu/e+dkY8p297vlKO1TTa2nqj01t3+s+tOV1D/kas6ym51mLuteXNqW298OhmvbdqT4DbceXJTUAgDF885vfvPa94+nTp9VPP2NEDZiRXO2SK8kz7OUxcvVArprJFelDKle+dxmOs0kZ6vMUV8jn6p1jt+2SZZtnH2YbHLIP8zv53aHfV0X2T94bXYd8bVOGlj3VFVuHbuey3l0/H8fsz6m30dKPHwAAsCT5ztz03fuDDz54NwLGGDJqwcuWKUHWNqpGUUbXyGt/3DKySFfZR1lO9lNGLGFZjHwCAEAXghowE6XgOkc5wXNsgXXXlAXiyPZNYfpcZR8eWtDflWVkew5lO6AxtCxzyHXdZ6jPSvZV23rnefLzIfbn2NtoDccPAABYmtevX1e3rhsrpFGkSJ2gQZ0XL15Ut9Yprz3Biu3QRlrT9oj8rAQz0vK7AhoAALB+ghowA0MVXMdQCvxjmKqIntcw1+07hTH2YbbnEPsu6zZ2gGaodd1n6O2c9c4yd5XnGfI9nWWNEXwY471XTB3CAQCAJWnqZyUIMIWmMMiQ/Zi5K6GNtGyPBDDqWn5WghnCGQAAcD4ENeDE9oU0clVFrsJI2+3Ml6sz2q7MOEaXImu56qNu3cr6tRmrQFyMWShegrbXn33T9r7aZ+x9V5T3WNO6pu37DGRdsy3G9OjRo+rWZ9o+H122cfbd7no37c9jnysncofcRl0+e3M/fgAAwNrcvHmzunU6Y/fNAAAAlkBQA06oLaSRAmYKlbmqIldh1M1vWa7OKFdmpKi5r2Dd1b4i6/b61V3xUdY5P8vj2tZr6ALxtrrieWRbZb12C8RDbsM5qNuH5XVn37S9r8r2aDPWaBjZB3nurEN5jzWta1oek9fVZl9o4Bi7n+Ws//a67+qzjbffw3UjSHT5LJbn2reNmj4vfa3l+AEAAGuT79lTafseDyxb+vM5z7D0BgBwSoIacCIpLLaFNNLh6XsCJUXN/N6+wu8+XYqsfdYvj8vj207SjFFEr9vGpfifbVW3/mUbTnnyaiy7Iw1k++e193ltpVDeZugRDbKPsg/y3H3kde1b1zEK+pljeTekkfXvat82zrKz3tnOu+/nQz6LXZ7rGGs5fgAAAMAhxjj3AADA+ghqwIm8fv26unXdw4cPq1uHKYXf27dvV//TT9tV9aWIfoh9xdahC/672zjbpG/xf8m2R7voGx7YlkJ5W/hnqFE1so4lRHOofUGEMQr6x4Q0in3bOJ/J3e081nO1HZu6WMvxAwAAOM5u0Bym0NZvPLU5rxsAANMT1IATaSpup5CZQuqxsoxDCt51V+0X6VAeG3RoK9IOVfAvtpeX4v0Q23WJDi3ob8t+H7NInv1z7DoW+/bzmFe2HPMa2j5bdZ/JYwJdbc91zOdwTccPAABYsqb+21QB57Z+17n2zYeQ7Vpa9mVpmSaztIuLi9ppM8/dmOcCAADgEIIacAJtncObN29Wt06jqdg5RLG/aBvxYIyOc9b9nE8EHTtCS9E2Qkum/zjUGCGathEjxjLEc7Z9NrYNEehqW99DP4drPH4AAMCaHNN36+PYkfqWJn2RfW07WLHbtoMWpSVwsdsySmRp6X+VlsB8aZxe0/v/0JFvAQBYJ0EN4LtyIqDJUMX+aCswj3EyZ8h1X5qhRmiJY0dDqJN1GzqkEW2BpzHeY0OMFhFdtsVQzzX0Nlrr8QMAAJaoqSCcQn6CAWNKKKEpxN01nH4K2S514YgubTtA0dS2gxW7bTtoUdoxjv39JWt67+svAgAwN4IaMDOn7Dg2deTHGJGi6Wr+nKAY0pBBhSUaeoSWvBfqzO0kUNs+H+MKsiGvimnaxsVQzzX052KNxw8AAFiqhLub+hb53pwwxRiy3IQSmsy5f37qEU4Z11SjyURT39R7DACAbYIawDttV9SMMSJFW+d0yBNG594JHvokWFtIYKwTfYfaF3gY0pCjjewLYgz5XE3bqO8JrLUePwAAYMnavosnTDH0yBr7QhpzHk2D9WjqM091gclS+6R1I8Von7WxRyICAM6ToAbMzJQJ/21NzzvG1fDRtswhRxWZ89U6Y2sadeAYSwq+DDnKRZspAyFTPlcfaz1+AADAkuV7c1sfIlf9ZwrDYwuQKUxnOW0hjbH6BkOa2/plm9W19PV3W0IwpV1eXr5r5yzb6VTa+qRz/wwAADAtQQ04gbaOWRL+OcExtaYrC6Yqdo8hJyvO2Rihirb37lIK5HObpmVX234b+vPYtLy+22iNxw8AAFiDZ8+etRat810+gY1cMV5CGwleNI0KUH6Wx6Xl9xLQaOtD5PmzHkvQpcCfx+xru0GKtvMT+VkJV2y3bLO6lhEjdlv66qXRbIpREZouZGh7DwAAcJ4ENeBE0nFvkhMcU4Y1mk7AjK1pGww1qohpT5ygmcK5hxHWevwAAIC1SHG/7RxEUUIbCV6kbQ/7X1r5WR6Xtk+eN8+/FFnXutDEdiuBibZWF6bosg8YRlM/vct79hjpHzeFls79HBUAANcJasCJtM0VGyWsMUURtG0khJxMmFrblThQZ/uKrnxu0sY+AXMKczyx4/gBAADzl/DA1Ff05/nyvDC1tr7omKNqmPYEAIA+BDXgRNJB23c1RQqOuVKlDD86lrVega4TvC51YYztq7rKFV353CjWT8cIFgAAsAwpXmdEiLFHdkhA4+XLlycJbkPRFEwaqw+bcxZNF4wsYdqT3ZFjtM83xzMAYAyCGnBCubKkz/CjYwc26mwPcTp0U0ynyXYgo7xfhDGWZ/vzPnSz/wEA4DA5F5HCY4rHQ4Y2tgMaLpzg1JoK6+lLjnFu7dGjR9Wt60x7AgBAHUENOLGuYY1IZzJF6hQpU8CGtcnJkry/twMZAAAADC+F7O3QRgludDlHkceUYEZaueJcQIM5aXov53zDkDKaRtP5i3xOfC4AAKgjqAEzkBMj6bj1kQ5gCWykQwhLVkbOGPpkCQAAAPslZFGCG23nKPL/CWXkMSWYoQg9jXJhwzHt3PrceZ82GeoCqJyTywigTYymAQBAE0ENmImc4MjJjq6jaxQJbKRDKLDBEuU9m/fuMSNnlCu+csIwrVzN1Tf8BAAAAKxL07mBnIcYIqzRNuVJzk8IMgEA0ERQA2Ymaf905A4NbIwxzyaMoVx10jWkURfGKFdylau5yhVdAAAAADlP0HSO7ZiwRs5pZJSSpnMaeU7nJwAAaCOoATOUjlwKz4eMsJFhLIcavjHPXYrhUzfWr21o0CjBjPKeEMZYFscPAAAA5iDnE5rOryVokcBFnwuf8th95zTynAAA0EZQA2auBDZSsO4a2jjmigCYwr73Z97vJZgBAAAAcIyHDx9Wt+qVC58SwqibWjj/l58l1JHHtskooGuX7bDkZkRiAGAOBDVgIVKwTuG667QoQ4Q1moZvhGO1vbfyHhfQWD7HDwAAYM1K0X63jXXhTPrJu6MJ9m25KOJcZWTOfQGK9GMTwshoGbv7Nf+3L6AReQ6jgAIA0IWgBixMmRalS2AjHcy6qwB23b59u7oF42s7aZWTRk5oLIvjBwAAAEuQ8w0JrHQdsbaPLDPLdk4DAICuBDVgoUpgY1/n8tGjR9Wtw3QJekAfTSMt5L1sJI11cfwAAABgbnI+bcjRRXIxVZYJAAB9CGqweGOk4Nu8ePGiujUP+8IaXaYfuHnzZnXrutevX1e3YFxDj8wwt8/qWjl+AAAAsDRlKpkENg49t5jfNYoGAACHEtRgtc6pSLsvrJF5U9voUDIVIyysj+MHAAAAS5XARs6rZVSMEtpoOseWn6flsQloGBX087Ldsl3m1LK/AADmSlCDxWu6Cr/LSBKHGGu5xzp2NIKmTuiDBw+qW3C8thEW2kZmOMRcP6tr5PgBAADAkuUihBLaSKsr+ufnaS5YAABgCIIarNrQV+/vG5nilI4tcrcFPeb8uqGO9+y0HD8AAGCZct6krjXJ6KXlMfmu37XduXOntV1cXLxrbc+9dG3FfwAA4PwIarB4bQGFtqv3D7Hmq8PbTgy4Kp6lOaepj+bA8QMAAKaXAEQJOBzabt26Vduavsdn5MLtx3Rt+b22Vgx9HgcAAGCuBDVYvLbhBnMyYCg5AbJUXUfbaJu3MVe4wLGmCFbls7p9oo9pOH4AAMC0hp4+EgAAgOkIarAKbQXCIYbNzDKGDn3McTjPtpM8KXyPuc5z3SZMZ4jP2NCfVbpz/AAAgGm1XbgCdTIaYt30K5mWBQAAmJagBqvQViDMcJzHFvCyjKFlmUOO0vHo0aPq1nVdT97kcW2hlyG2ZZ1cba+4fh72vRePeX/ld8f4rNKN4wcAAAAAAEA3ghqswr7ib1uIoU2KirtD9n/wwQfVreOluJjlH1u8zO83TfXQVjitk6sr2gwZMMlyMieuaSrOyxjF/PyOkMbpOX4AAMDy5DzHoS39u67t5cuXja2M7LCvTwEAALAWghqsRjr2TVLIS0GvTwE4RcAUFbeLgDkJcfv27ereMLL8PM9uIKSrsp5NDjnJ0bYt49iASSmwugr+PO2bRznv50M+q9vKCUOm5/gBAADT2Z6+4tCWaS8ObTnn0LXlIpumBgAAcG4ENViNdOxTnG2TYm4KfCn01RUJ839tRcCchBhLCZOkgJl1SKuTddy3nsW+gmmTbMt9v1sCJtvbs22bpuW17Vtn1i/vr30hin2f1X3vpzE/q7Rz/AAAAAAAAGgnqMGqPHz4sLrVLoW+UiTcbvm/piLgoaGHvlLAzDqk7a5fWce29SyyvsdcldKl2FqU7dm2TdPy2iByNdW+YFWU99bu+6rt/TTVZ5Vmjh8AAAAAAADNBDVYlT7FwT6ODT1Mbaj1HWt71skIC0vaxhwvo150CWv0sbTP6po5fgAAAAAAANQT1GB1SnFwiAJwlpH5WocuAHYdTaCvFCuHXt8sK8vcN1XFoco6Z5twfoYKa4z1WeU4jh8AAAAAAADXCWqwSikOpgB86NXcKfqmAJhljCXLLgXMYwvVUxQrs+xszyEKrmX7KrAS5bN6yOdgis8qx3P8AAAAAAAA+MzFjRs3Lt+8eVPd3Wzu3r27+eSTT6p7sA6vXr3avH79+t3tFy9ebJ4/f/7udlEKxLdv3z5p4e/Jkyfv1i9217HIumY94+bNmycbQaBs07rtWWwX3rPOp1xflmH7s/rgwYN3/26by2eV4zh+cO4++uijzccff1zdu/L27dvNxcVFdQ8A/rv27t/HbexQG7CmcHXL3CJNqsC4bWpn3bixu/wXBgJkEcAXsJvtPjc2YCDFIoD/i5R248aGu9TBRYxUAdLk9gkW8Hx+PTx3tRrykJJIiqKeBzgYaUZDUfxxRJ7z8hDY9ujRo9Zzh4S4T3VumDactvPWc3bK5Uld1/Z2qnV27ucutnUAYEqfPn3a3L17t3l249WrV5snT540z24IagAAwIwENQAA9iOoMQ+d18slqDEu2zoAMKWhQQ23PgEAAAAAAAAAmImgBgAAAAAAAADATAQ1AAAAAAAAAABmIqgBAAAAALCHp0+fbq6vr1dV8plgiLbt55yKbR0AWAJBDQAAAAAAAACAmQhqALR4+fLl5urqajEFAAAALtWbN29cFc9F6xrBxT4AAHC+BDUAAAAAAAAAAGYiqAEAAAAAAAAAMBNBDQAAAAAAAACAmQhqAAAAAAAAAADMRFADoMXTp08319fXiykAAAAAAADAOghqAAAAAAAAAADMRFADAAAAAAAAAGAmghoAAAAAAAAAADMR1AAAAAAAAAAAmImgBgAAAAAAAADATAQ1AAAAAAAAAABmIqgBAAAAAAAAADATQQ0AAAAAAAAAgJkIagAAAAAAAAAAzERQAwAAAAAAAABgJoIaAAAAAAAAAAAzEdQAAAAAAAAAAJiJoAYAAAAAAAAAwEwENQAAAAAAAAAAZiKoAQAAAAAAAAAwE0ENAAAAAAAAAICZCGoAAAAAAAAAAMxEUAMAAAAAAAAAYCaCGgAAAAAAAAAAMxHUAAAAAAAAAACYydUX1180Tzebn//855tf/vKXzTMAAGBMf/vb3zb/+Mc/mmc3fv3rXzePAAAAAAA4V//61782f/7zn5tnN37/+99v/vCHPzTPblx9KT+mNAAAAAAAAAAAGMVvfvObzZ/+9Kfm2Q23PgEAAAAAAAAAmImgBgAAAAAAAADATK6+uP6iebrZ/OxnP9v84he/aJ4BAABj+vvf/7755z//2Ty78atf/ap5BAAAAADAufr3v/+9+ctf/tI8u/Hb3/5288c//rF5duPqzp071z/88EPzdLN5/Pjx5vXr180zAABgTN9+++3m+++/b57d+Pz5cxLUzTMAAAAAAM7Rp0+fNnfv3m2e3Xj16tXmyZMnzbMbbn0CAAAAAAAAADATQQ0AAAAAAAAAgJkIagAAAAAAAAAAzERQAwAAAAAAAABgJoIaAAAAAAAAAAAzEdQAAAAAAAAAAJiJoAYAAAAAAAAAwEwENQAAAAAAAAAAZiKoAQAAAAAAAAAwE0ENAAAAAAAAAICZCGoAAAAAAAAAAMxEUAMAAAAAAAAAYCaCGgAAAAAAAAAAMxHUAAAAAAAAAACYiaAGAAAAAAAAAMBMBDUAAAAAAAAAAGYiqAEAAAAAAAAAMBNBDQAAAAAAAACAmQhqAAAAAAAAAADMRFADAAAAAAAAAGAmghoAAAAAAAAAADMR1AAAAAAAAAAAmImgBgAAAAAAAADATAQ1AAAAAFiFq6ur1nIKHz58aJ2XFPbTtgxTsoxZrrZ1lnIOHj161Drvc29zXfPx8uXL5hXsaynrFgBAUAMAAAAA+NpRmZJO4K7OzJT8rRQdxgAAAPsT1AAAAACAC1WCGQlg3L9//2t59uzZ5u3bt80rbsvfSslrS3hDaAPgtFKnbwfrSkkdDQAsi6AGAAAAAFygBCtKMONYu6ENAAAAuglqAAAAAMAFKVdcjxHQaJPQRqZvhI1+ZTSTJRfo2k5Tl0yp633VLQDAGghqAAAAAMCFyGgXGUVjDgmCGF0DAADgNkENAAAAALgACU1ktIs+L1682Lx///5rub6+vlXy+7zm4cOHzX90y/sJawAAAPyUoAYAAAAArNyQkEYJZjx9+nTzzTfffC1t8vu85s2bN19f3xfaENYAAAD4KUENAI5Wu6cuAAAAp5VztlpII0GLBC66ghl9Smgj0+kirAEAAPAjQQ0AAAAAWKkPHz5snj171jy7LaNoJGgxhkwn0+uSsEbmhx9lmZVbyhxTurS9dt8CAACMT1ADAAAAgNmlw75tVL5jSpe21x5TMkLFufj48WPz6LaEKg4dRaNLplcLazx//rx5BAAAcLkENQAAAABgpbpG08htSsYOaRSZbtdtUGq3YIFDTBH66tpO79+/3/r6Q8s5hb44Ttv6n6JkG22Tbbrt9VMUt7kCgGEENQAAAABghWq3GRnrdiddMv2HDx82z35K5zQAAHDpBDUAAAAAYIW6bnvSNdrF2B48eNA8+ql37941jwAAAC6ToAYAAAAArFBXIOLevXvNo2nN9T4AAADnRlADAAAAgNl98803m+vr67MsU982ZO3evn3bPGIMtVvc1P4GAACcjqAGAAAAAMCZ6rrFzaUQ+uIctK3/tZY3b940nxoAqBHUAAAAAIALcukd+2vTdYubsK4BAGCZBDUAAAAAYIUePHjQPPqpWsf+mLpCAg8fPmweMbVnz541jwAAgCUR1AAAAACAC/L27dvm0bS6QgJdARIO07c+P3z40DyCcd2/f39zdXU1WRE0AgDWTFADAAAAgLP08uXLr+XRo0dfS1tHXyn5e3n9pXRcP336tHl0W5bHlLKcu9y7d695xLFqy7nY5/Yn2Tfa9p9DyrnIZ04ZUpeUv6cMWfYAANBFUAMAAACAs1E6U9NpmqutUzKiQN+oAvl7eX25CjzTWntoo+s2I1keU332TLfrSvjMzzfffNM841hDbmOTdbH27XxfJZiReiD1QcqQuqT8PSWv3w5wCG4wp7INl+/E8r3YV8pryzZruwWA0xHUAAAAAGDR0iFVOqFKZ+oYMq0S2lhrR/abN2+aR7fls4/9uTO9TLfLd9991zziWOlgHbov7DOqxpqVuqQEM8ZSghul85tpbYdk9i1jfX/MLdtutq3yOco2nJLPNPRzldemlP8v07T9AsC8BDUAAAAAWKzSqTq0E+pQeY+81xoDGy9evGge3VY+9xjSwZfpdcl8GE1jPENG0yjSGbvGbXsfZfucsi4pnd9j7VNctu1wRrbdbFtTKtuv0AYAzENQAwAAAIDFKVe+Tx3Q2Jb3SmfY2jq0nz592nkLlMjnPqZTLssrHXu1TsS8f+aDcWSZd+0bXev6+fPnzaPLUuqSqTu5t2XdZJ9YW12y6/3795vr6+vJSi1ktmZlm50jnNEl23AJbQhsAMA0BDUAAAAAWJR0Ug298j2d0unMq3UY5m8pQzv91hjWyC1Q+sIau1dSdy2D/D5l+0rvmrxv7RYs7K8rdJFtvOv2MlnHfdt1Rjxp24cOKUuQzzu0LsmyK3VJV31S6pGU2v5UrLEuYVqpV4dus3Mp3w22ZQAYl6AGAAAAAIsypOM/HaXpOE0AICM11G6pkb+l5HXbna01a+xg7QtrFCW0kWWQzrndkt+nDLnSW0hjfOnI7erELftC13pe43Zdk89bk+VUQhlZdmX5ddUnpR5JyXad/+vbpy5tmXOYbCP7jvxSQkMlXFS25Vopryv/O+Q7oci2nHkEAMYhqAETy0F2Sk6icyDb1sCR35erVVLmVN6zNm/lNUs7qeya7yXO65T22b6WqMx/12dY4vxvz2/bPJdS5nvp2+P2Ouj6HEtaB2Veu5Z9mdeUS6oLAADWIsdzNelYKuGMQ5XO1nRW1Tqp+jp5z1GWXT73HMq6YlxdHblZ3kXXqBpxKbdA6atLsh9k++wKZQxV9qlLq0tOKdt6WwhhSNknmDCXtF1kGxk68ku2t3yWEhoq4aIh23J5XfnfbL+ZVqa5XYd0yTz27VsAwEB37tzJOHT/Vx4/fvzlexnmtb0NbpcvB4fNK8aV6ba9X8pYvhzctk5/aPly0jDZ549Mv+19h5R8tjG1vUdK1+cfMu95zbk4dHus/V+tTLFtHfIZsh0dsh1OMf9D5D0Pmd/tkmmMvf8Uc6+DqT5HzTHL/xTzC11+97vf3dpGP3/+3PwVAC5bjtt2vye3y1THdbVjzUPPP2qfZSmOPcfpKmOf+7S9R8olHud3rbP8fldtG2x7/dja3jdlDqf67LV96pC6pGt6h9ZLh+pqc5h6H+x632M+f9cyPVV9UttWS8k8zzl/Xct9u0y5HwHAufvrX/9667vz1atXzV9/ZEQNGFkS0Lmi+9ikfBlmdOyEcqaX+RuS0O6Sz5ZpzH2let4v83/MvK9B2cb2GQpx2/a2Nfc6LPLeQ68U2DXVvtGljNyQ9zx228s0TrX/bCv70jHrIP871zrI+5xrvQUAwH5qV/q/f/9+0NXCh8gVxQ87rrI+9NzrHJQrqV+82G/4+y6ZTtZTucKbceX8tOu8qG0EjayDrvWa6az5/Ojjx4/No9uy3U/lUusSDtc3wk3q1GxXc9apqcPz3VD7Xlh7HQIAcxDUgBGVjs8lyoHzsR2du/JZ00gwh8z/oZ3KazLmNpZlmWnNeVI15naYaUzZ8Z7pZnmPEdBok2U/V9Bh25j7UqYx5WcYc3sp8tnnqrcAANhf17FfAgBTd1LVbhUx1XnHUmwPf59lXYIbtU66/K28Nh2J+V8BjelkG+zq6M+66FrutVDC3G0Cc+paVtlWp1arS5yPsi37X9f3XvbrKQOKQ6T+qO0zl3IbJQCYiqAGjCSdlWN2Jo4pB/05+Z5CTnzn6Gx24D/dNjZXYGCq7XCKaZZ5nXqfzvTnWPbFFOtgqs+whnoLAID91DowEwCYWjrDEjpoU7s6f22yrEtwo4Q32kr+Vl4rnDGtvvOjWhgjah2tmW6mvya1zzPHtpr3qIWcoKjt1wn8LKFurW3PaRMSPgKAwwlqwAj6OtBLAjplt2EjvytXqkxhSGdn3jvz0DZvZf5qpj4o71u+l6C2DMrVS23b19Bta+p1WNsOy/zvznvZ9obM/5id7kP2mSj7Tde8l/nvk2U/R2jgmHXQZ+ztZw31FgAA4xlyTjC1d+/eNY9gfn23BOqTjtba63L+lfOwtegKVg05vx3LgwcPmkc/pS6hqO1z2VaXENIoamEw2zQAHE5QA45U60BPY1JOhHMwm4PrtgPs/K5cqZJOxhyIj9UI1dfZuT1/mYddZZ7zt7yuNl+5Qn2Kk/pMs235Zl66OmnnPPGeQ9c2ls+az1yuXmrbvra3rb7taqp1GG2NSrvzv6tse5n/vnWa5TPGvPftM1G2u7LfdM17mf+yXdZk/qcOa7R9rqHrIK/pWwddw8ruq28dnEO9BQDAuLo6PKdw79695hEsQ1+7U9u5XJu8rnZ+tLawxqmpS+hTG6lpidtPV/3RVT8BAP0ENeAIOYGtnSynI3HoCXORzsUhHdN9hnR27jN/eV1e33dSP7bdDv68f18nbVmGa9C2jWUZpON8320ry6QvMDDFLWYyasH2ZyjrcJ/5L53uNcfO+5B9JvPQtt31yWftCztkGU0V1tgdOeKQbWjIOjh2hIq11FsAAABj6Atp7Nv2MeT8KOdlwGnt014zlzlDkwBwKQQ14Ai15HPuI3iM0il66EFwrdM6ncX7nswXfSf1Y99KYLeDP++/xJOVqex2ImebOHTdRZZdrbM9y3vsdbg90sIx6zD/0xd0OMaYAYEufWGHfIYpGsXa1sEh+tbBsaNqrKXeAgDgfNXO82FOY4c0ir7zo5wbTz3i46nMeYuGrrpkrM7unH9fXV0NLs57z0dt/zwlo8QAwPgENeAIXZ2S6VA8tkM3Mo1Drt7PyVftZP6QaW6rNQYc21G7bazO5bUYc7uasrO95th1mG23dsJ6aMNDrRFq7G2vb/lPOcLDGJ9lqnWwlnoLAIDDdXUCzXm81tWR60riwyWMvl1y7F9KzsVSSmfyFMH1c5NlkGVRuxjh2IuDcn5UO6/Le1sfAAAwLUENOFDtZPXUCeOuRqwxO5xrowJMcSJ/bCPEuRujo3rbVJ3tNbVtZh+1beHQq2NqDWBjhjSKvuU/VWPYWPtRrZH60HWwxnoLAIDxzHW8Vjs3WJss0yFlO1ixW0rQYjdwsV0SRt8uOfYvJcv7kpZ5nyzvvvB+zmvGuIijL6wRmZes53PT1X6SbS3LeGp5j65zXKMS0GepdaIRpwBgfIIasDJpGOkyZtih1igw9oF7Gg7GaIQ4Z1MEVaYIPHQZazSQyHS6GpMOOZmt7TO1kS+OVVv+fQ1zhxhzHYwZGoo11lsAAOyvdrw2xTHyrq7j0px/jH0MPKa2cMSQkmU6pGwHK3ZLCVqUcqxLPi7P9pflXTNWSKMYEtbIes72cm6Bja7PVbvl5lhq7zHm+luCbLO7dcuYJdvfWtW+V5a4v3WtiynbzgBg7QQ1YAKnbFjoahiZIuzQdSA+9knUFCManJMxO9i3ZZpjBh5qxr5iZMxhh2v7zJSNsVn+tZPZsa/yGXsdjLntrLHeAgDgMLVR0GoB32Nl2l3HpUu/7UnXsTnnIR2y6ZDuO5caO6RRDAlrxLmdM3Xtt1nOp6pLdGizq2vfy/42x+gvQ9X2GaPEAMDhBDVgRWpp6ylGZKgdiI91MqHBadoTnlqD45jp/Skak7rss+3VPuMcjbG1dTt24GvsdVBbPmOtg3OttwAAOFyOW7vOA0sH69jHbbWO1czLkkfT4HxlO862NyQAMVVIo0hYoxaSir6/L0322znrkrI+u+qSGLMuSejj+vp6cFGPLVOtbSUjsyyhnSLzUNuu52zzA4C1EdSACYx924ihut43J6ZTHDTXpjlWJ/McneVLNtVoGkXtRH2s7XiKK0bGCjjUPuMcjRi1dTvm1Upzr4N9rLHeAgDgOLXAbjqLMtR+Ar/HdmBlGn0jGUwRHh7b0s6bcyy/W3JOslvS8b9dLq0zOZ2wtW2vyLKZsl2gyHvkvdrMNQ9jq43QWuqSYwMb+d/UJZlWbX12LVsuW+q81JFtyjZ6yrBG9o/MQxfbNQAcR1ADDlQ7Qc2BdA5k59Z1QnjOYQeJ/+nVTgjHMMWIIGM1EHV9xq5lMoU0UE5t7nWwT+BhjfUWAADHqXUYFwk2p/MoQYsS2iilTelMTcn5ev6vLxx9Lp3TQ4/3S2iiq+wGKVLy+y67V+yXks7x3ZJz+92SZbtdLk2WS235xtzbYN4r63B7vvL4nNdPX12Sc9IS2Egp9UmXUs/kdalH8r9rqUs4jb5AYNk+55RtvC/IeO51AwAsgaAGHKF2Qp0D2TkPomsnkVPqWgZjjMZQW76XYooO9l1Td4gv9aStts/MGRKoreOx9utzXAdTmrLeAgBgHDmG7etgLUpoo5R0Lu2W0pmaUut4Ks6pYzXzuRuWaCu74Ynd0hamOIcRRc5Zlnvb+Ul+d8ptMPOV98985PE5G1qXpF5IKfVJWz2SUuqZvnBGcU51SU3qg7Z65VQl87MWQ7bRbJvZ/kqYaAppo9kOINWsoW4AgCUQ1IAj9DVYlLDGHJ2RtSvYT3HyMqThi36nPpk/VUf6HJa2z7RZ+6041FsAANSUzquuoO0UTt1BzuXZDWuUDtBTb4N5/7V0xOazpHNfXcJSZTvpC2tECROV0EYJbpSRYIa045XXlf/LNEo4Y0gAqdRRAMDxBDXgCDmI7jvJywF0DnSnTDzHGq8Ed+uDecwxagfdLrnRxggWAAD0yfFyOoSGdGAdI+f2udXHEjrIuTy5EKh07OsAnU6Wbd8tfcZQ1qO6hH1ke9knUJQ25xLcKCPBpCR0USvldeX/9rloRR0FAOMS1IAj5eB0yAF0OXCeOrDRpu2gfKyyz8E8LElXSGDqBhuGaatvxirqLQCA81M6sNJJlI7WseT4vwQ01jSUPuelBJJ07E8v+3mW9diBjUwv9VPqKeuRY2T7zLa0pPapbN+2bQAYn6AGjGBoWCNKYCOdhQltAHQx4gQAAPxUOonS0bod2hja4ZrXpGx3qApowGUqgY3tuqTUEUPs1iWZnk5sxpJtaYpA0b7KNu57EgCmIagBIykHz/tIaKMENobcQxBYp1OedAMAwLkqoY3tDtcuJZSRokN1Xtuj2x1aYEqlLil1RK0u2Q15qUuY0vb321yhDQEkAJiPoAaMKAevOYjd96A5gY3cG1BgAwAAAACAbduhjRLcKOGNUoYqry/TKMEM4QwAmJegBkwgB805wN3nADlKYOPly5fNbwAAAADgR22jjqQAlyOBihLeKCVBi7RJt0k7dQljlNeXaQhmAMBpCGrARHKAWw6Q9w1sPHv27OvoGmPYPgifuwAcQr0FAAAAAACsmaAGzKAENspwdENkdI2xwhpQ8/Hjx+YRp5L9vc2DBw+aRwAAAADLlds5t430kgIAwG2CGjCjMhzd0NuijBHW6OoAhiEucehD+8zpWQcAADCdtk7UlHSyTmF3FLtDCgAAwNoIasAJlNuiDAlspMNySGOJK+851Lt375pHl8U+c3rWAQAAAAAAcIkENeCESmCjL6zx/Pnz5tFhproqhnXoGr0gt+pZs3v37jWPbptzn3n58mXz6LaMwnOp1FsAAAAAAMBaCWqwCENuAzKmpY0g0BfWGHIbgFqn88ePH5tH8FM6w9vZZ+ah3gIAAFivttvYpAAAAIIaLNwl3ZKhL6xRu+o+MjoH69O33o9V6wyvdaKvQW2fefbsWfNoel313NwBtlNQbwEAAAAAAJdIUINFePDgQfPop4aMJHGIqaZ7rK7lMFRXx+6cnc6Ma+qwUm3buIRO9NrtXeYabaSrPjq2PjgX6i0AAABgLrlYrm2kFxeTAABzE9Rg8cbuLJ16hIJjHDuCQa1jd8mfm25Thopq+1YtwLAmtX3u+fPnzaPpPHr0qHl029OnT5tH66beAgDgEDmfaStdyt9zjDm05Hi9r1xdXX39uVbpuGzr0EyBc7Zdb7SVLmkryN/b6oy+slt/lJJ6ZO11CQAAt13duXPn+ocffmiebjaPHz/evH79unkG88gJzv3795tnP5UO4zE7LHPiU3PKxoYxlkPt8y21IaVrnsde90uVk/Xa6AFTLYfatvL+/fu9riSofYaptruxtpsxl8O+xtz217oONACzRt9+++3m+++/b57d+Pz5c3VfAIA1WeN3Xttxa+0c/5THuV3Lf+rzn2Oc4zxPqWt5XNL5U19byjnKiJMZ7WFbwhttF/Essc1sqXXepelaD23bFwAwjU+fPm3u3r3bPLvx6tWrzZMnT5pnN4yowSLUTqrHPOnKSdy5GjraRk7Uukjmn6fsAznJGlNtetmGLqmhKw17XboaGMZQ2x+X1tgyNfUWAMBl6br9HcBQx45Ku0RLvVUzw6XtOUGqU5autqxsX22vn7sAAD8S1GAxah11Y3RSZxpjhz7G7jwfQ+1ENQfkU87zUpfJGox5G46so1oAYY2NHTUJpdQaiqcICmRf6WqAqdWFa6XeAgC4LLXb30GbXI3fVi5xNA1uWPcAAJw7QQ0Wo9ZRl07lYzvSprgyPtNMJ99Yap3xQ09A87paR+8Yy7JNOrPXNuTkkqSzeozAQF9I49JG0yi+++675tFtYy37Iuuga19JYOTSRtMI9RYAAAAAAHBJru7cuXP9ww8/NE83m8ePH29ev37dPIN51YY/O/Q+euncSwBi++r1TKvravZckTFEAhqlgy/TS0fvMR3ctQ70dGDu23nbN5TcIdNss70c4pD7w3bN61jzuHS7y7Dm0P0g+kIax0y79hmG7lP7Gnu7GbJ8jt3P+9b1MctqDevgnOotOMa33367+f7775tnNz5//ty7DwDAWuxzDtQlx+fH2GdUj64LS/qOIWvnGFMdow/RdczhuPh8dK3DU25Xp5DwfVf73jEOqV+G1CmH1CVdn3GJbWZLrfPmNMb329pdWj0FwGX69OnT5u7du82zG69evdo8efKkedZIUOPLj/8rjx8//vJdCafx/v37n2yPbSWvGerLScut//9ystX6+1KG6pr2IWrzk3KIIcsy87vP8tzWNc+HTK9tOil5j0tQW/9df9t32dTeo5RDt4WoTX8qbe+Vsu+y2ZZ9om2a2+WQ6WfZ9k37mOUfa1gHWQZt09suS6m34Bi/+93vbm2Hnz9/bv4KAKxF7fj2lNrmJ8Vx8floW38prE9XW8IxbR9TWWqdN6da24xyUwDgEvz1r3+99R346tWr5q8/cusTFiUJ8i8nIM2zdklm58qBJJST1N6V3+VveU1bgvnQEQOGSMI975u0e+YhpU3msW8+iy8nOc2j/WRZ9v1v5nd3edaWaUo+W988M55cHdG2T2T5l/WWsmufbSyyrbhy6qZ+6KuDdpd92z4T5e/ZZ7Kf1a7ysfxvqLcAAACAc5V2vOvra6VSAIAfCWqwOLm1wBDpcCudddslv+vqjDs09LCvdCRmHkqHbts81uazOLbzdkinZ1GWZ22ZptQ6m5lGLTxQ1kvbOhuyjYWQwE8NCWtEWfZt+0xK+XvfPmP5/5R6CwAAAAAAWDtBDRZnn066fZxbZ+hY8zvV8mzz4sWLs1rG52RoeGAfmd657RdzyfKeer/J8s+VBJb/beotAAAAAABgzQQ1WKTSSTdGx/RUnaFdt6Q4VjoNx57fTCvTzLSnUOY5y4TpjBnWyDrL9HRQdyv10Nj7TdZhWf50U28BAAAAAABrJajBYqWT7pir2ufoDM20S0fisR3oc3QaZtpjdTyX5aujc15lnzh0e8s6y/9bZ8OkHhprv9mukyz/4dRbAAAAAADA2lzduXPn+ocffmiebjaPHz/evH79unkGy/Hhw4fNx48fvz5+9+7d5u3bt18fF6Xj+sGDByftgHv58uXX+YvdeSwyr5nPuHfv3slGNSjLtG15FtuBgMzzKed3rbLNPHv2rHn2U+lQrunb3sq2Zr2Np68uiu36KIQCxqPeYg2+/fbbzffff988u/H58+fN1dVV8wwAWIMcu96/f7959lN953pTWuMxxymX5ymsZR0mlO9cre7Ro0et5765CGFpbQ21Ou/c2DYBgGN8+vRpc/fu3ebZjVevXm2ePHnSPLshqAFwYscENQA4P4IaAHAZBDXmI6hxnnSG9xPUOA3bJgBwjKFBDbc+AQAAAAAAAACYiaAGAAAAAAAAAMBMBDUAAAAAAAAAAGYiqAEAAAAAF+L6+np15dK0LYNzLN98803ziViDrM+29XyOxbYJAMxBUAMAAAAAAAAAYCaCGsBqvXz5cnN1dbWYAgAAwOWoXV0OMMSbN29a65CnT582rwAA4FwJagAAAAAAAAAAzERQAwAAAAAAAABgJoIaAAAAAAAAAAAzEdQAAAAAAAAAAJiJoAawWk+fPt1cX18vpgAAAAAAAAAIagAAAAAAAAAAzERQAwAAAAAAAABgJoIaAAAAAAAAAAAzEdQAAAAAAAAAAJiJoAYAAAAAAAAAwEwENQAAAAAAAAAAZiKoAQAAAAAAAAAwE0ENgBN7+vTp5vr6urUAAAAAAAAA6yKoAQAAAAAAAAAwE0ENAAAAAAAAAICZCGoAAAAAAAAAAMxEUAMAAAAAAAAAYCaCGgAAAAAAAAAAMxHUAAAAAAAAAACYiaAGAAAAAAAAAMBMBDUAAAAAAAAAAGYiqAEAAAAAAAAAMBNBDQAAAAAAAACAmQhqAAAAAAAAAADM5OqL6y+ap5vNz3/+880vf/nL5hkAADCmv/3tb5t//OMfzbMbv/71r5tHAAAAAACcq3/961+bP//5z82zG7///e83f/jDH5pnN66+lB9TGgAAAAAAAAAAjOI3v/nN5k9/+lPz7IZbnwAAAAAAAAAAzERQAwAAAAAAAABgJldfXH/RPN1sfvazn21+8YtfNM8AAIAx/f3vf9/885//bJ7d+NWvftU8AgAAAADgXP373//e/OUvf2me3fjtb3+7+eMf/9g8u3F1586d6x9++KF5utk8fvx48/r16+YZAAAwpm+//Xbz/fffN89ufP78OQnq5hkAAAAAAOfo06dPm7t37zbPbrx69Wrz5MmT5tkNtz4BAAAAAAAAAJiJoAYAAAAAAAAAwEwENQAAAAAAAAAAZiKoAQAAAAAAAAAwE0ENAAAAAAAAAICZCGoAAAAAAAAAAMxEUAMAAAAAAAAAYCaCGgAAAAAAAAAAMxHUAAAAAAAAAACYiaAGAAAAAAAAAMBMBDUAAAAAAAAAAGYiqAEAAAAAAAAAMBNBDQAAAAAAAACAmQhqAAAAAAAAAADMRFADAAAAAAAAAGAmghoAAAAAAAAAADMR1AAAAAAAAAAAmImgBgAAAAAAAADATAQ1AAAAAAAAAABmIqgBAAAAAAAAADATQQ0AAAAAAAAAgJkIagAAAAAAAAAAzERQAwAAAAAAAABgJoIaAAAAABfi6uqqtZzChw8fWuclhf20LcOULGOAfTx69Ki1Pnn58mXzCpakbV2lqP+P07UfWK4AjElQAwAAAAAGSAdNSjosuzpxUvK3UnRuAgAAsEtQAwAAAAA6lGBGAhj379//Wp49e7Z5+/Zt84rb8rdS8toS3hDaAAAAIAQ1AAAAAKBFghUlmHGs3dAGcN5KgOtcinoHAGBZBDUAAAAAYEtG0UjH5hgBjTYJbWT6RtgA4NxtB4KWWvK9DgBLI6gBAAAAAI1cdZ5RNOaQIIir3AHOT1sYIAUAYChBDQAAAAD4IqGJjHbR58WLF5v3799/LdfX17dKfp/XPHz4sPmPbnk/YQ0AAIDLIqgBAAAAwMUbEtIowYynT59uvvnmm6+lTX6f17x58+br6/tCG8Iaw5Xb0qy5nGJbyG142ubl3Ir9CACAcyGoAQAAAMBFSyd1LaSRoEUCF13BjD4ltJHpdBHWgPOS/bqMonMOJXUQAADLIagBsEC7VwhprAMAAJhGzr+ePXvWPLsto2ikQ3YMmU6m1yVhjcwPAJyLtmDQvqXruzGjUbW9ft9yaNASAKYkqAGwMGmUu3//fvPsRhrrEtgAAAAuxxS3eOjS9tpjSkaoOBcfP35sHt2WjqOxO3cyvVpY4/nz580jAAAA1kpQA2BhdkMa24ysAQAAMK6u0TRym5KprsDNdLtug1K7BQsAAADrIKgBsCB9Q9xqsAMAABhP7RxsrNuddMn0M6R7m3MakWRuCbm0DWu/pvLmzZvm084n22PbvCy11EalWZK2EYeOvQgn/982XbdNAgA4L4IaAAAAAFykrtuedI12MbYHDx40j37q3bt3zSMAAADWSFADAAAAgIvUFYi4d+9e82hac70PsBxGSwUAIAQ1ABak7/7Hc13VBQAAnN453+Jh6tuGrJ2OXAAuSdcIV74PAVgzQQ2AhandZ9XVVgAAADDMhw8fNldXV7fKo0ePmleM7xTvCdF38Q8AAMsiqAGwMDmxTljj4cOHzW9uRtLI75x0AwAATK/ryl441IMHD5pHXJLttp2xGGGANXr27Fnz6LaXL182jwBgXQQ1ABYogYw3b978ZNhgIQ0AAIBxdXWev3v3rnk0ra5AyBSdu/xIRzfAcmQkopq5vpMBYG6CGgAAAACwZa6O/K4riI2+MI5TXPBgNBaAcQnXAbBWghoAAAAAK5XhwlMePXr0tVxdXXWW/L28vu/q1rXI6IVdsjymVBvK/d69e80jYI0upY5dq9r6s273NyTgVvvOBIBzJagBAAAAsCIlmJHwRUZsSMnVqH1XpObv5fX379//+v+XENrous1IlsdUnz3T7RpNI/Pj1pfAPtwuiXPW9X24bchrAODcCGoAAAAAnLl0/G+HM8YaJnw7tLHWwMabN2+aR7fls4/9uTO9TLfLd9991zxiTYyScpncxmid3OJoPPuMlGFUDQDWRlADAAAA4IwloJGO/7HCGV3yHnmvNQY2Xrx40Ty6rXzuMaSTqRbSyHwYTQPostbA3JoIcexnn5EyjKoBwNoIagAAAACcoXTYJUAwdUBjW94rQYO1dRY+ffq0euuAfO4s60Ov5s3yKqOddMn7Zz6Yx1Tb8Lt375pH5yXbdrbRcym1wBNM7Vz386U5pB4eKzgJAEsgqAEAAABwZtK5kY7KISGNBAAyUsP79+8319fXrSV/S6mNLLFtjWGN3AKlL6yRoEU6iUtoo2sZ5PcppfO7r1M571u7BQuHq61TOBWjLqyXUR+G6/puTL3dVXfnu3htxx8AXC5BDQAAAIAzM6TjP6GLhDASAMhIDbVbauRvKXldCW70hTYuMaxRlNBGlsH2Vf6l5PcpQzrs8n5CGgDnoy8kKUjQrzZC1Xfffbd58OBB8+y2vmMgADgXghows+2ranIFTluDTn5frs6pHbROobxnbd7Ka5Z20tE130uc13NR21bzu7I9HGvIPpG/j/Feh9iev655TCnzuZTtrW+elza/XTKP5bPUPsc5fBYAgDHk+KcmAYsSzjhUCW0ksFELLqyxsyTLLp97DmVdsX61oBQcq9apzbjS9sBx0nbTFWTMMUc5Bqkdf/QdCwHAWbhz5871lx//Vx4/fnwNp7a9TW6XFy9eNK8YV6bb9n4pY3n//n3r9IeWLwemk33+yPTb3ndIyWcbU9t7pHR9/iHznteci7G3x0OmV/uftnLo9rnv+6RMvS8UeY9j9ouUTGPs/aPPMfPdtVzz+7bXp0zpmOU/93KHffzud7+7tc1+/vy5+SsA1PWdW051HFQ7Nus6juxT+yxLcew5QVcZ+1yh7T1SHBd3r8O595Wlq533nVPJ8l+Srnpu7Hrz0Om16dqGx3yPczbke2HOZdX2/ilLrv9ry3B7vru291Km3N+75nHJyxWA5fjrX/966zvk1atXzV9/ZEQNmFgSwrni+9irjMqwqmOnhcsV6n1D9tXks2Uac1/JnvfL/B8z7/xU2V73vZ/mvtvnoe8T2+81xTaXKyPKvB27bWUa2T/muNqi7A/HzHf+9xT78q5zrpcAAKb2/Pnz5tFt79+/n+yq/dotQXIcuVb53NfX119Hvuj6/PvIdLKe+m5Fw/Q+fvzYPBrXseeRS5NtNvvAuZS1j1Az1XbLcEP28TV/Lx4r7TRdyzDfs9vfjXmcOqhLpqPdB4BzJqgBE0pn41KHgc1B7LEdobvm6pCOzH/eb20NIKc0xvaa9dHXOZ5tZIz9Iu+V6Yx1QrYd0BhbppnlO5Wy7sbaHzKtKee3y7nXSwAAc+g6VkpHxtQd/7lnfJexjsuXKsGK7dBGSjqUauGN/K28NuGM/K+AxvzcEoJLlro5JefFpeR8P2Xt9fYU9mlfsHxvyzKptQm2Ba36boEyZtsgAMxNUAMmkhOeMTsbx9R3UHyMqTuki9pVZOxv7O21a/3kfcYOQoyxLWefmPpqhyzfKfaNqeqaqea3yxrqJQCAqdU6iNKRMbXala2XdJV3lnUJbpTwRlvJ38prhTNgPVIX5yKDIaXrPDfnqW2v7ytdbRdd08v7p+TvpeR8f4p2hEvw7t275lE/bZe31dp9Emjsku9TYQ0A1khQAybQ13GaA8scfJYrarZLfleuzJnCkM7QctVP27yV+avJZ98nYb6vqTqmL1W2ibbluX3V13YZsn1mersd49kmutbbMe8Vc3TCl/2ibT7LvjFkuYx54jhkXxgy3/l7m0x7yn25WEO9BABwSkOOmae2T+cVXJol7KOwy21U9tfWBtO1f4/dBrSvtLO0hXdqZcr2tdq0swz7Ao3CGgCskaAGjKzWcZqDyXQo5sAyB59tB6D5XbkyJ52Q6Xwc64S+rzN0e/4yD7vKPOdveV1tvpLQn+LgONPsOinq6sTt68C9ZG3bRJZZll3XVV9l++zbBrZPSPMz28Suss763iuvGfpeY9rersp+0TafZd8oy6WmL5AwVF9Io8z7kPnO37vWZ9bblI3ubdvgtsxT5q18jl1DPkMxVb0EAHBqc97a4d69e80jALgcXRd/5Du4q+1RGOZGXxtW2nyGqN2CLYQ1ADg3ghowohwIdh10pvMwB51tnaU16XzM/x0bNhjSGbrP/OV1eX2tU3SsDultu8MGDunELcuQ23aXZ5blmNtAmX7btpD3altnXYa+11i2Qw77yHLJZ6s59qSxNjpJlP15n3kv67Nt3mvvdYy11EsAAAChgxDWq+silrS9dLW/uGCkP6TR14a2bUibW9p9aqN3AMCSCGrAiGop6b7Eb58c8OdA9NArpWqd2KVD+hB9naJj32pg+8B+305cbttentm+DlmWtW0n0287OZrqvcaQ7aqM8nGovhPHY8MCbaOTFGW/ONSQk96xrKVeAgC4JK4OZi3crodLkHPj7ZJz7ZSc9x/T7nFpui6Y2W57yHJtc8nfm0NCGvu2Dw5pt+pqjwSApRHUgBF1dZ7mQP2QTuldmcYhJ1G1q+9zQnHsiVmtM7XWobyv7Wllvo/pjOanjt1Gu05GY3fby7qb6r2O7YDPid5Y21XfZzz0ioraieZY+0XmfeqwxlrqJQCAOXXddmTO45uuzu05b7+yNjk32C45Vi4lx/8pV1dXX8uh5xGXzO16GFvOV3OBxzmUnBtvl8x7yjHtMpdoyHdf7Tv6EuvuvpDGMW2RQ9qt8t6+NwFYOkENGEntoO/UjQJdjXZjhh1qB8dTHBAfO0IJP3Vsp3j+P9vTEMduc7V5PeaKqGzDYzdU1EIlh6qFG8banyPLYor5L9ZYLwEAnNJcxze1Tpe1yTIdUraDFbulBC12AxfbJSPubZccK5eS5X1Jy3ytBJngfKUub6uHdy8yqbWjjH273iHSJtIW3qmVsdpj+kIau8vuEEPCGpHv1cwPACyRoAasXO1AdMywQ62De+wh/nIwP3aH+iUbclIzxJCGp7HeK9tAm0MbMLM9TbFN1UJah+wXc+3PxbEnzV3WWC8BAMyhdnyTjoipdR3HjdHhMqW2cMSQsh2eqJXtYMVuKUGLUo7lOBZgXqnL27S1g3W1A6X+T7Bv7fIZ8/1Z+77LMcNYgZAcFyVg0tVOWGR+Ml8J3QDAkghqwAxO2ZDSdWA8RdihKzXedUJzqDFHDaDe2LuPISPHjPVe53I1Uu3zHjL6x5z7czH3qCDnWi8BAMylFn6e8orRTLvrOG7px+d9HTicj9IJuE9JmKZN6bgbs3S9V84/2l5fK1Puz8Aw+wYU06bR1Q7RVT+sRernvs+Y5TZFu26mOeS7PnXxJQRmADgfghqwYrWU8BRX39c66sc6CNbANq4xO+H7OtjHfK85trWxjLXN1vbnKRvGx74yco31EgDAnHLc3XWMmY7ndCqNfZxTC2lkXpY8mgYA+0mn9+4tMVIura7Pd2nXd1+t/aK2nNYYwMpyyuc6VUijGBLWSNh1qgudAOAQghowg0OunB9D1/vmoHWKg9LaNMcaVeRcRlI4F0NGwRjLnO+1JGNts7V65JwaS9ZYLwEAzK3WQZROpXSWJCB7bGAj08iV/V0dVTFF2HZsSzuPzLHvbkmwfbekQ2m7XGJHKad3yGggSylwjK7gQersvvaL1Nlt8n26potGcpyQ5VQ7TogssylDGkXeo2vZD1lvADA3QQ0YSe1ALwerp0hMdx0kn3PYQaPUsuWkp8uYJ0Nr6HzvO4nd1fX62jIfSxqJx7LGegkAYG45Hu7qiCjSuZrOk3RWltBGKW3y+7wuJeev+b++28VlHs6h02NoaDzH1rWyG6RIye+77F6NXko6knZLznV3S5btdgFgHrV23NTZfVJn5zuiTb6b1xDWyGfoO06IfE8OWWZjybLPd+329/Pc8wAAQwlqwIhqDTRzhzVOdcDftQzGGFWktnw5jMa+83dOAYc11ksAAKeSY/m+sEZRQhulbF9xXkp+n9elDAkVn0tII0qnTV8poYmu0hamOIcRRQAYLoHFru/BrvBFm3xHdMl37rkbchxyyoBE3rfM36nmAQD6CGrAiPoaaEpYY47OytqoArUThakMaehjvS4lZJN9e/sqxJQhVxf0yfS6nNMtZdRLAADjKp0kcx5v573OKaTBugwN3ayh6Fhcl7QXtIXkzqnU2ibWIuupqx0n33/7tl3UggxzXtA3lVpYI78/dT1WvjMAYKkENWBEOfjrayBLx2BS0zkYn/IEZ41Xirs1AkvQFsYojRa7VyHOEQQ4pwZyI1gAAIwvx4PbV41OJee6uZI473VOx6AAMETae2ojXRwSOsj3Zdf3c9qM1hLW2G0Pz2d2rAAA/QQ1YGQ5aO8La0QOxtOZO3Vgo812Gn7sMkfHNMxlO5BRtvFThDEuIeCwXY+MXdRLAMAlSIdIrhpN58g+Q7P32Q5onGIUNGAe2b+3R/QYq3R1UqduaXv9mAWG6gtpHBOGbAsyFGmvWENYo7SH53gh+56QBgAMI6gBExga1ogckKfDN52JazgwhzVIOCP75HYgY4mG1jMAAFyOdI6UDtcS2kgZcuyY15SOlvxvpiGgAcDaPX/+vHl0W74Xjw0e1NqK1xTWcLwAAPsR1ICJ5OA0jVv7yIF5CWwkyQ3Mq4yckXAGAACcuxLaSMk5au0K8xLKKB0troadT85Bji0A7C/tr2kL6rpAJ+GKfC+O4bvvvmse3baWsAYAsB9BDZhQGrfS2NWVmO6Sg/MMtyewAfPoOzEfIvt5SrlisVyBuG9gCwAAAFiXhN/SRnAOZd92zHNVbndSawsaK6QR2QZqt1ApYQ1twQBwOQQ1YAY5qM+B+KGBjdyGAZjGkBPzbW1hjJTtqw9dgQgAAACwTKUtqKYWqjjUkLBG5ktYAwAug6AGzCQH4unEPSSZntswjDX8Xd67dCzPXWCJ+k7MSzCjbMfCGONTLwEAAABzyAVxQ0IaU7X59IU1IvO31gv32m7flSKcAsAlEtSAEyiBjXT+Dg1tlOHvgPH07VPZR0swAwAAAIDzlXagXBBXk7baqS/MyfT72oTLhXsCDACwXoIacELp/E0ncFLUQwIbY4Q1ht7eAS5BbX/Ifrn0gMZa9mf1EgAAS9J2pW/KVJ1lu6O+HVIA6Jb6O22qfe0PaZ9NW+0c8j597cGZ3+fPnzfPAIC1EdSABUiKemhgIwfoQxqHHjx40DwC2tRCTxlJY+qrJy6RegkAAACYW8IOSwppFKU9uMsp5gkAmI+gBixICWz0hTWOTVIbMg+6R3HI/re0kTRqAYc59ud37941j6ajXgIAAACm0NfeespARNqD28IaQhoAsH6CGixSX1BhbHN0Qu6j7+ShLwEe9+7dax7d9vHjx+YRsGvsUR+WVr8cYkidM4R6CQAAADiFrvbWJQQidsMaQhqnl+XfdqsxI/ACMCZBDc7KGjo8h+oLa7x8+bJ51M5BI3Q7t9Eb1hJwUC8BAABwidIOcXV1dRZlrIs1lmi3vTXhiKUEIkpYI/P33XffNb8FANZMUINF6rqifaoThaWegBx7ZX9X0OPZs2fNI7hMtXBDLRRxiDHql1rAYer9+dGjR82jcaiXAAAAgFMpYY2EIpZ2QUnmJ/PnQhcAuAyCGpydsa+E7xuZ4pSO7TCuBT2W/LlhLcbcz168eNE8um3K/XnsIJt6CQBgHjl3bitdyt9zTDa0JNTbV3J1dn6uVTrT2oZGTwFgmYQhAIAlENRgkeYc5n/NV3E/ffq0eXSbq9dhemPerqlWL061P0/RoK5eAgDotzsM/SHl/v37raVL+XuOyYaWhHr7SpSfAAAAwA1BDRaplmhOY9BYcgXQuRo62kbtKvw1X9UENXOEwVK/jNkg3Xelx9j1Wa6mnKpBXb0EAFDXdbs4uBRt4SPlxzL0/C+va/v/OUtXQCznm22vn7sAAMCpCGqwWLWOvNpwrUNlGmOHPsaYr7HVOqRzUjzlPC91mUDNGPXC2PVLUasX835j7m/Pnz9vHo1PvQQAUFe7XRy0abv1Soqh/WHZEsxr23eXWGojZAIAsD9BDRar1pGXNP6xHW21IV8PlWkOvaphiFpH6dDGlryu1rk7xrJsk6vip+iohjH07T/H7BP53ynql+hrFBlrf87+O9VoGqFeAgAAAAAALpmgBovV15F66NXe6fzbHVp/zGFl0wmY6R/byZj/7+oorXVwthnSuTtWwCTTydCRU3bywhimCArkf6YKaRTv379vHrU7JuSQ/2sLaexb5wyhXgIAmFbOc48pOQYcWnKM2la2r8QGAAAAfiSowaKlYadLOtzS8bZPh2Q669L5t91ZlwaosYeVzfTzPruBkKHKfHY5ZKjB2rKMYwMmpSPU1eqci9qoPbFv4KFtvy0N3GNKiC3Trcl8ZH720VY/Rl/dcQz1EgBAu5zzbYccDilv3rw5qmQehpYco7YVAAAAoJ2gBouWhp0hHZLpiEuHXFtnXn5X66xLA9RUSpgkHY2Zh5Q2mce++SwO7TTNsuz73xIw2V6etWWaks/WN8+wRNkn+kIUffVL3z4wVf2S6fbVjZmfvn25b/5TZ0zZwK5eAgAA2rSFj5QfSwJSQ+R1bf+v/FgAAOBUBDVYvO+++655VJcOudKZt13yu67OukNDD/tKR2PmIWV3/so81uazOLbTdEinaFGWZ22ZpuxefQ/nJI1WfYGHKPvD7r5Q2wemrl+GhDWiti/X5j/TnjKkUaiXAAAAAACASyOoweLt04m3j2NDD3Mba36nWp5tMlrBOS1jLtPQwMM+5qpfppj3yPxPNRpIG/USAAAAAABwSQQ1OAulE2+MDslMI0Mbjt1RN/TK/H2lU3Hs+c20Ms2+2z4cqszz0KE44dTGCjxMVb/UZN7HCjlk/ucKmexSLwEAAAAAAJdCUIOzkU68Yzok0wGZjroprxLPtEtH47GdvnN0KmbaWZ5jdIyW5asjlHNV6pdD9t056peaY0MO2/N/ipDGNvUSAAAAAACwdld37ty5/uGHH5qnm83jx483r1+/bp7Bcn348GHz8ePHr4/fvXu3efv27dfHRelsffDgwUk76F6+fPl1/mJ3HovMa+Yz7t27d7KO0rJM25ZnUZZrZJ5POb8wle365dmzZ19/bltK/dKlb1/ed/5Tj3Uth6nDKeol1ujbb7/dfP/9982zG58/f95cXV01zwDgMuRY7/79+82zn0rY9lTW+J18yuUJ1Ou7c5MLIlwMsRxd31mnGjG1z1q+Y+0HANR8+vRpc/fu3ebZjVevXm2ePHnSPLshqAEAVJ0yqAFrJKgBADcENeYjqAGnJajBVAQ1TsN+AEDN0KCGW58AAFVlVCAAAAAAAACOJ6gBAByk3LIJAAAAAACA4QQ1AICqt2/fNo8AAAAAAAA4lqAGANDp5cuXzaPb3IsTAIA1ur6+Xl0BTuubb75p3TfPsWgL4Bht29Q5FvsBAGMQ1AAAOr179655BAAAAAAAwBgENYCLkZEBrq6uFlPgHHTd9uThw4fNIwAAOEztCnMAoF/bd2hKvmMBgGUT1AAAWtVue/LgwYPmEQAAAAAAAPsQ1AAAWnXd9iSjabgXJwAAAAAAwGEENQCAWx49etR52xOjaQAAAAAAABxOUAMAzkgCFFP78OFDZ0gjjKYBAAAAAABwOEEN4GKkc/n6+noxBQ6RAMXV1dXXMMUUMt379+83z2578eJF8wgAAAAAAIBDCGoAwBlKmGLswEZG66iFNB4+fGg0DQAAAAAAgCMJagDAGSuBjZcvXza/2V/+N9Oo3e4kIY03b940zwAAAAAAADiUoAYArMCzZ8++hi1KaCMjbXSNtpHf5zUZQSOvz//WCGkAAAAAAACMR1ADAFYmwYuMtFFG29gt+X1eUxtBoxDSAAAAAAAAGJegBgDQ6sWLF0IaAAAAAAAAIxPUAIAz8v79+68BiillFI3r6+vN06dPm98AAAAAAAAwFkENADgj33zzzdcARQlsJFQxhkwn00tAwygaAAAAAAAA0xHUAIAzVAIbCVUkXFGCG0PCG/l7CWZshzOMoAEAAAAAADC9qzt37lz/8MMPzdPN5vHjx5vXr183zwAAgDF9++23m++//755duPz58+bq6ur5hkAAAAAAOfo06dPm7t37zbPbrx69Wrz5MmT5tkNI2oAAAAAAAAAAMxEUAMAAAAAAAAAYCaCGgAAAAAAAAAAMxHUAAAAAAAAAACYiaAGAAAAAAAAAMBMBDUAAAAAAAAAAGYiqAEAAAAAAAAAMBNBDQAAAAAAAACAmQhqAAAAAAAAAADMRFADAAAAAAAAAGAmV19cf9E83Wx+/vOfb375y182zwAAgDH97W9/2/zjH/9ont349a9/3TwCAAAAAOBc/etf/9r8+c9/bp7d+P3vf7/5wx/+0Dy7cfWl/JjSAAAAAAAAAABgFL/5zW82f/rTn5pnN9z6BAAAAAAAAABgJoIaAAAAAAAAAAAzufqP//iP68+fPzdPN5uf/exnm//8z/9sngEAAGP63//9380///nP5tmN//qv/2oeAQAAAABwzv7nf/6neXTj//2//7f57//+7+ZZbDb/H+1kAJN5qpenAAAAAElFTkSuQmCC;" vertex="1" parent="1">
          <mxGeometry x="-909.69" y="-490" width="227.94" height="100" as="geometry" />
        </mxCell>
        <mxCell id="A81RwFwUyYRlChPBO0ci-158" value="" style="edgeStyle=orthogonalEdgeStyle;fontSize=12;html=1;endArrow=ERmany;rounded=0;startArrow=ERmandOne;startFill=0;endFill=0;" edge="1" parent="1" source="A81RwFwUyYRlChPBO0ci-155" target="A81RwFwUyYRlChPBO0ci-151">
          <mxGeometry width="100" height="100" relative="1" as="geometry">
            <mxPoint x="-662.9" y="-370" as="sourcePoint" />
            <mxPoint x="-562.9" y="-470" as="targetPoint" />
            <Array as="points">
              <mxPoint x="-640" y="-440" />
              <mxPoint x="-640" y="-440" />
            </Array>
          </mxGeometry>
        </mxCell>
      </root>
    </mxGraphModel>
  </diagram>
</mxfile>
